<?xml version="1.0" standalone="no"?>
<!DOCTYPE svg PUBLIC "-//W3C//DTD SVG 1.1//EN" "http://www.w3.org/Graphics/SVG/1.1/DTD/svg11.dtd" >
<svg xmlns="http://www.w3.org/2000/svg" xmlns:xlink="http://www.w3.org/1999/xlink" version="1.1">
<metadata>
Created by FontForge 20170731 at Thu Oct 12 11:22:48 2017
 By ,,,
Copyright (c) 2017 by Typhoon Type - Suthi Srisopha. All rights reserved.
</metadata>
<defs>
<font id="MidnightBangkok" horiz-adv-x="1030" >
  <font-face 
    font-family="Midnight Bangkok"
    font-weight="400"
    font-stretch="normal"
    units-per-em="1000"
    panose-1="0 0 0 0 0 0 0 0 0 0"
    ascent="750"
    descent="-250"
    x-height="361"
    cap-height="670"
    bbox="-508 -427 1916 845.536"
    underline-thickness="50"
    underline-position="-150"
    unicode-range="U+000D-2212"
  />
<missing-glyph horiz-adv-x="250" 
 />
    <glyph glyph-name=".notdef" horiz-adv-x="250" 
 />
    <glyph glyph-name=".null" horiz-adv-x="0" 
 />
    <glyph glyph-name="nonmarkingreturn" unicode="&#xd;" horiz-adv-x="250" 
 />
    <glyph glyph-name="NULL" horiz-adv-x="0" 
 />
    <glyph glyph-name="NULL" horiz-adv-x="0" 
 />
    <glyph glyph-name="space" unicode=" " horiz-adv-x="250" 
 />
    <glyph glyph-name="exclam" unicode="!" horiz-adv-x="421" 
d="M145 -23q-8 -20 -26 -33.5t-40 -4.5q-11 5 -18 14q-6 8 -8.5 20t5.5 30q7 17 17 26.5t20.5 13.5t20.5 2t17 -7q25 -22 12 -61zM376 639q9 -5 15.5 -12t9 -20t1 -33.5t-8.5 -51.5q-16 -59 -37 -100.5t-48 -84.5q-11 -17 -29 -49t-37.5 -69.5t-37 -75t-26.5 -64.5
q-8 -20 -16 -20t-11 2q-7 10 -9 16t-6 23q-5 27 0 56.5t14.5 57t20.5 50t18 34.5q2 4 3.5 6.5t2.5 4.5q34 59 61.5 105t47.5 83t32 66.5t15 55.5l2 4q2 7 7 13.5t16 2.5z" />
    <glyph glyph-name="dollar" unicode="$" horiz-adv-x="529" 
d="M586 583q0 -6 -1 -23.5t-8 -35.5q-7 -22 -19.5 -33.5t-26.5 -16.5t-26.5 -5t-19.5 2q-6 0 -3 3l3 3q25 17 36.5 40.5t15.5 36.5q0 3 2 9v1q2 11 3 23t-2 22l-90 -167q0 -14 -0.5 -32t0.5 -38q2 -38 6 -84t6 -94q1 -12 1.5 -28.5t-0.5 -36t-3 -39.5t-7 -39q-1 -2 -1 -3
t-1 -3q-4 -15 -13 -34.5t-24 -39t-38 -37t-56 -27.5q-50 -14 -102 -11h-5q-12 1 -24 3t-24 5h-3l-13 -23q-5 -8 -13 -8q-5 0 -7 1q-13 7 -6 21l10 19q-11 4 -24 11q-42 21 -64 53t-32 63t-11 54.5t-1 27.5q1 24 6 39q2 9 5 16q11 31 31 57q17 22 46.5 42t75.5 25h1q1 1 3 1
q37 3 74 -14q11 -5 29 -20t27 -41q0 -2 1 -4l62 117q-1 16 -1 32v33q-1 57 5 96.5t14 64.5q8 26 18 42t14 22q17 21 45 36t67 3q1 0 3 -1t10 -3l17 33q7 13 21 6q5 -3 7 -9t-1 -11l-20 -37q10 -10 17 -25.5t8 -39.5zM516 627q-18 0 -32.5 -29t-23.5 -74zM143 -15l12 -4
l12 -4l88 163q-8 0 -14.5 1t-11.5 3q-7 2 -7.5 4.5t1.5 4.5q2 3 6 6q18 11 22 30q5 23 -2 35t-11 15q-1 1 -7 5q-19 11 -44 15t-54 -10q-28 -15 -44 -38t-22 -36q-2 -2 -2.5 -4t-1.5 -4q-3 -8 -5 -17q-2 -8 -3 -16.5t-1 -16.5q-1 -3 -1 -7v-8.5t2 -10.5q0 -2 4 -19.5
t19 -38.5q4 -5 19 -20.5t45 -27.5h1zM370 192q-1 20 -2 43t-3 48l-167 -311q28 -2 49 3q20 2 39.5 10t37.5 25q26 23 37 61q4 11 5.5 20.5t3.5 17.5q0 6 1 9q2 19 1.5 38t-2.5 36z" />
    <glyph glyph-name="percent" unicode="%" horiz-adv-x="387" 
d="M357 670q10 -5 16.5 -12t9 -20.5t0.5 -34t-9 -51.5q-12 -42 -34 -92.5t-48 -101t-53 -97t-49 -82.5q-10 -17 -28 -49.5t-37.5 -70t-37 -74.5t-26.5 -64q-8 -20 -16 -20.5t-12 2.5q-7 11 -8.5 16t-5.5 22q-5 27 0 57t14.5 57.5t20.5 50t18 34.5q3 8 6 11q23 39 50 86.5
t54.5 97t53.5 98.5t46.5 91t34 75t16.5 50v3q0 1 1 1q2 7 7 13.5t16 3.5zM189 451q-32 -22 -64.5 -26.5t-52.5 12.5q-12 11 -15.5 32t2 46t20 49.5t37.5 42.5q25 19 43 21.5t29 0.5q8 0 17 -6q7 -3 17.5 -11.5t18.5 -25.5q6 -14 6 -33t-11 -45q-4 -8 -15 -25t-32 -32z
M174 572q-11 -5 -25 -20t-25 -33t-15.5 -35t4.5 -26q8 -7 22 -1t30 20q4 4 7 7.5t5 5.5l2 2v1q6 8 14 19t12.5 22.5t4.5 21.5t-9 16v1q-13 4 -27 -1zM370 106q6 -14 6 -33.5t-11 -45.5q-3 -8 -14 -24.5t-32 -31.5q-32 -23 -65 -27t-53 13q-12 10 -15 31.5t2.5 46.5t20 49.5
t37.5 42.5q25 18 43 21t29 1q3 -1 7.5 -2t9.5 -4q7 -4 17.5 -12.5t17.5 -24.5zM309 13q6 8 13.5 19t12 22.5t4.5 21.5t-9 16q-11 6 -26 -1q-11 -4 -25.5 -19t-25.5 -33t-15 -35t5 -26q8 -7 21.5 -1t30.5 20q4 4 7 7.5t5 5.5q0 1 0.5 1t0.5 1q1 0 1 1z" />
    <glyph glyph-name="ampersand" unicode="&#x26;" horiz-adv-x="548" 
d="M535 73q2 -6 -5 -13q-19 -18 -38 -27t-27 -12q-6 -2 -9 0q-17 4 -32.5 11t-29.5 16q-3 -1 -4 -4q-5 -8 -15.5 -22t-30 -27.5t-49 -23.5t-70.5 -10q-55 0 -91 12t-56 26q-24 15 -38 36t-20 43.5t-5 44.5t7 39q17 50 62 88.5t132 70.5q-4 35 -1.5 60.5t4.5 35.5
q6 36 21 66.5t37 52.5t48.5 34.5t55.5 12.5q27 0 45 -7.5t28.5 -18.5t15 -25t5.5 -27q0 -3 0.5 -13.5t-1.5 -24.5t-8 -31t-18 -35q-2 -2 -2.5 -4t-2.5 -4q-17 -23 -40.5 -40.5t-45.5 -30.5q-10 -5 -19 -10t-16 -8l-4 -2q-2 -1 -3 -1t-2 -1h-1l-10 -5h-1h1l-15 -6
q8 -25 20 -50.5t31 -52.5q4 -6 6 -8q4 23 4.5 43.5t-0.5 35.5q0 5 4.5 13.5t23.5 2.5q15 -7 24.5 -15t15.5 -16q6 -9 10 -18q11 -26 12 -56.5t-9 -59.5q29 -14 54 -20t42 -8q2 -1 5 -2t5 -5zM301 73q12 13 21 30q-40 39 -62 80t-33 79q-8 -4 -14 -7.5t-11 -5.5v1
q-4 -3 -8 -5.5t-8 -4.5q-11 -8 -24 -20.5t-24 -29.5q-4 -7 -6 -12t-4 -9t-3 -8q-10 -28 -10 -48t5.5 -34.5t14.5 -23t18 -13.5q11 -7 27.5 -11t39.5 -2q18 2 33.5 9.5t26.5 15.5q16 11 20 18h1v1zM426 514q-4 6 -8 11q-10 10 -27 14q-8 2 -24.5 -1t-37.5 -20q-6 -5 -19 -21
t-22 -42q-6 -20 -10.5 -48t-0.5 -63q34 14 63.5 32t50.5 38q8 8 19.5 22.5t17.5 32.5q5 17 2.5 28.5t-4.5 16.5z" />
    <glyph glyph-name="plus" unicode="+" horiz-adv-x="355" 
d="M336 332q2 -2 2 -5v-4q0 -11 -2.5 -23.5t-8 -25t-15.5 -22.5t-26 -15q-18 -6 -40.5 -7t-47.5 0q-10 -20 -19 -38.5t-14 -35.5t-5 -31t8 -24q2 -4 2 -3q0 -1 -1 -1q-3 0 -5 1t-3 2q-11 7 -21 16.5t-17 22t-8.5 28t5.5 34.5q4 14 15 34q-41 2 -74 -0.5t-45 -22.5
q-1 -1 -1 -2t-1 -1t-1 1v4v3q1 13 5.5 26.5t13.5 24.5t23 18t35 9q14 1 33.5 -1.5t42.5 -5.5q11 21 21 42.5t14 41t0.5 36.5t-18.5 30l-2 2q-2 1 -1 2h5q2 -1 4 -1q10 -5 21 -11.5t20 -16.5t14.5 -23t4.5 -30q-2 -17 -9 -37t-16 -40q38 -2 68.5 6.5t40.5 38.5q0 1 1 2
q0 2 2 2z" />
    <glyph glyph-name="comma" unicode="," horiz-adv-x="189" 
d="M87 86q-2 -5 -7 -15t-15 -20q-26 -26 -55 -45t-61 -28q-2 0 -4 -1q-6 -2 -10 -2q-12 -1 -15 3q-2 3 2 7t7 6q1 0 2 1h1q20 17 33.5 36.5t21.5 34.5q1 2 2 4.5t3 6.5v1q1 0 1 1q3 7 8.5 16.5t12.5 18.5t15.5 15.5t17.5 8.5q22 4 35 -8t5 -41z" />
    <glyph glyph-name="hyphen" unicode="-" horiz-adv-x="833" 
 />
    <glyph glyph-name="period" unicode="." horiz-adv-x="138" 
d="M13 17q-12 -1 -22 2q-8 2 -16 8.5t-9 19.5q-2 12 3 21t13 15t18 8t18 1q35 -3 38 -30q2 -14 -8 -28.5t-35 -16.5z" />
    <glyph glyph-name="slash" unicode="/" horiz-adv-x="403" 
d="M359 670q10 -5 16.5 -12t9 -20.5t1 -34t-8.5 -51.5q-12 -42 -34 -92.5t-48.5 -101t-53.5 -97t-48 -82.5q-10 -17 -28 -49.5t-37.5 -70t-37.5 -74.5t-27 -64q-8 -20 -16 -20.5t-11 2.5q-7 11 -9 16t-6 22q-5 27 0 57t14.5 57.5t20.5 50t18 34.5q2 4 3.5 6.5t2.5 4.5
q23 39 50 86.5t54.5 97t53.5 98.5t46.5 91t34 75t16.5 50q0 1 0.5 1.5t0.5 1.5v1q2 7 7 13.5t16 3.5z" />
    <glyph glyph-name="zero" unicode="0" horiz-adv-x="685" 
d="M587 583q40 -17 62 -48t30 -69.5t4.5 -81.5t-13.5 -85q-29 -111 -81 -198q-23 -37 -52.5 -73t-67.5 -64t-84.5 -45t-103.5 -17v1q-42 0 -85.5 12.5t-81 37.5t-66 63t-40.5 89t-4.5 114.5t42.5 140.5q29 66 65.5 113.5t75 82t77 57.5t72.5 40q9 4 21 8.5t26 7t29 2
t30 -5.5q2 -1 6.5 -3.5t4.5 -7.5q0 -3 -5 -6q-30 -11 -71 -33.5t-85.5 -61.5t-88 -98.5t-79.5 -143.5q-32 -75 -36.5 -129.5t8 -92.5t37 -62t51 -37.5t49.5 -18.5t33 -6q12 -1 34 0t50.5 8.5t61.5 24.5t69 48q35 30 59.5 69t38.5 68q6 13 12 27.5t11 27.5t8 23.5t5 15.5
q12 42 18.5 83.5t4.5 77.5t-13.5 63.5t-35.5 39.5q-23 12 -47 11t-47 -11t-44.5 -26.5t-40.5 -35.5q-45 -45 -86 -110q-25 -41 -38.5 -75t-18.5 -61.5t-3.5 -49.5t7.5 -38q13 -39 46 -61q7 -5 12 -10q11 -11 8 -19q-2 -5 -7.5 -6t-11.5 1q-7 2 -15 5q-37 18 -59.5 42.5
t-33.5 51.5t-13 55.5t1 55.5q8 62 43 130q29 52 59 88.5t60 59.5t58.5 35.5t53.5 17.5q59 11 115 -8z" />
    <glyph glyph-name="one" unicode="1" horiz-adv-x="233" 
d="M274 635q6 -17 6 -43t-12 -64q-11 -33 -36.5 -86.5t-54 -116t-54 -126t-36.5 -116t-1 -87t53 -37.5q5 0 10 1t11 2.5t12 5.5q1 1 2 1h4q4 0 -1 -10t-14.5 -22t-23.5 -21.5t-33.5 -13t-45.5 2.5q-36 9 -51.5 43t-15.5 82t14 104.5t38 110.5q17 39 40 83t46 89t44.5 87.5
t35.5 77.5q-23 -16 -42.5 -23t-36 -8t-29 3t-22.5 10q-2 1 -3 2q-2 2 -2 4l1 1q2 2 6 2q24 0 59.5 26.5t77.5 66.5q1 1 3.5 2.5t6.5 2.5q13 4 25 -7q4 -3 9 -11l5 -7.5t5 -10.5z" />
    <glyph glyph-name="two" unicode="2" horiz-adv-x="498" 
d="M410 278q-6 -8 -27 -34t-53 -54q-23 -21 -53.5 -47t-65 -55t-70 -60t-66.5 -62q50 -3 104.5 -6.5t102.5 -1t84.5 12t50.5 32.5q0 1 1 2q2 2 4 2q1 -1 3 -4q0 -2 1 -4q0 -11 -4 -24t-14.5 -25.5t-29 -22.5t-48.5 -15t-67 -6.5t-77 -0.5t-81.5 2.5t-80.5 3.5v-1
q-23 0 -35.5 6t-18 14.5t-6.5 18.5t1 18q2 9 7 17.5t9 13.5q14 15 28.5 29t29.5 28q28 25 61.5 51.5t68.5 53t68.5 53t61.5 50.5q4 4 10.5 10t12.5 13q49 56 74.5 108t36 93t11.5 68t0 34q-1 11 -4.5 19t-7.5 13q-5 5 -11 9q-16 7 -43 -4q-23 -10 -62 -39t-97 -91
q-4 -4 -8 -7q-8 -6 -14 2q-12 15 -13 30t3 26q4 13 14 26q67 65 117.5 84t84.5 15q40 -4 67 -33q20 -20 26 -51t6 -60q0 -34 -7 -70q-6 -38 -28 -86t-57 -94z" />
    <glyph glyph-name="three" unicode="3" horiz-adv-x="528" 
d="M514 218q0 -18 -4 -38q-3 -17 -10.5 -41t-21.5 -50q-17 -32 -45 -65.5t-71 -64.5q-1 -1 -2 -1q-46 -31 -98 -46t-110 -4h-1q-3 0 -4 1q-2 0 -8 2q-12 3 -33 11t-42 23t-38 37.5t-22 54.5q-1 2 -1 4.5t-1 4.5v7q-2 27 9 62q6 21 18 45q13 27 25 40q6 7 11 12
q10 9 31.5 18.5t47.5 2.5q1 -1 2 -1t2 -1q9 -4 5 -13q-2 -4 -6 -9q-7 -8 -12.5 -15t-10.5 -14q-2 -2 -3 -4q-16 -20 -28 -42q-11 -19 -19.5 -43t-6.5 -47h1q0 -1 -1 -2q2 -18 11 -35t29 -31q13 -8 29 -14q1 -1 2 -1t2 -1q9 -3 21 -6q5 -1 10 -1.5t10 -1.5q43 -4 82 17.5
t73 54.5q3 4 18 21.5t32 44t32 58t19 62.5q4 43 -15 78q-4 7 -8 13q-9 -6 -21.5 -10t-25.5 -5t-24.5 1.5t-16.5 8.5t-5 11t1.5 8.5t4 6l3.5 3.5q19 11 34 26.5t26.5 31t19 30.5t11.5 24l2 6l2 6q21 57 23.5 94.5t1.5 46.5q-3 20 -13 32q-5 5 -11 9q-16 7 -43 -4
q-23 -10 -62 -39t-97 -91q-3 -4 -7 -7q-8 -6 -14 2q-13 15 -14 30t3 26q4 13 14 26q67 65 117.5 84t84.5 15q40 -4 68 -33q19 -20 25.5 -51t6.5 -60q0 -34 -7 -70q-4 -20 -11.5 -42.5t-19.5 -46.5q0 -2 -1 -2q-2 -5 -4 -8.5t-4 -8.5q24 -24 38.5 -56.5t14.5 -75.5z" />
    <glyph glyph-name="four" unicode="4" horiz-adv-x="492" 
d="M477 640q10 -17 12.5 -45.5t-12.5 -73.5q-6 -18 -17 -43.5t-25 -55t-29.5 -63t-31.5 -68.5q31 -13 42 -32.5t13 -36.5v-4q0 -4 -3 -4q-2 -1 -4 1q-1 1 -1 2q-9 13 -26 20t-40 11q-23 -54 -40 -104.5t-21 -90.5t8.5 -65.5t49.5 -28.5q5 0 10 1t11 2.5t12 5.5q1 1 2 1h4
q4 0 -1 -10t-14.5 -22t-23.5 -21.5t-34 -13t-46 2.5q-36 9 -51.5 43t-15.5 82t14 104.5t38 110.5q2 2 2 4q-54 -3 -111.5 -12t-107.5 -16q-14 3 -19.5 11.5t-6.5 17.5t1 17t3 10h1q31 18 70 63.5t81.5 100.5t86.5 108.5t84 88.5q31 26 55.5 31.5t43.5 0.5q6 -2 17.5 -9
t19.5 -21zM284 302q23 46 49 94.5t48.5 94t38.5 85t19 67.5q-23 -7 -48.5 -28.5t-52 -51t-53 -64t-51.5 -68.5t-47 -63.5t-40 -48.5q-16 -18 -31 -31q45 5 87.5 9.5t80.5 4.5z" />
    <glyph glyph-name="five" unicode="5" horiz-adv-x="529" 
d="M557 686q1 -1 1 -5q0 -2 -1 -3q-4 -13 -13 -26t-26 -23.5t-43.5 -17t-64.5 -6.5q-24 0 -58 3t-73 7q3 -17 1.5 -39t-11.5 -51q-11 -34 -37 -88q27 -3 58 -9t62 -17t59.5 -27.5t50.5 -39.5t35 -54.5t13 -71.5q0 -18 -4 -38q-4 -17 -11.5 -41t-21.5 -50
q-17 -32 -44.5 -65.5t-70.5 -64.5q-1 -1 -2 -1q-46 -31 -98 -46t-110 -4h-1q-3 0 -4 1q-2 0 -8 2q-13 3 -33.5 11t-41.5 23t-38 37.5t-22 54.5q-1 2 -1 4.5t-1 4.5v7q-2 27 9 62q3 11 7.5 22t9.5 23q7 14 14 24t12 16q6 7 11 12q10 9 31 18.5t48 2.5q1 -1 2 -1t2 -1
q9 -4 5 -13q-2 -4 -6 -9q-7 -8 -12.5 -15t-11.5 -14q-2 -2 -3 -4q-16 -20 -28 -42q-11 -19 -19 -43t-6 -47h1q0 -1 -1 -2q2 -18 11 -35t29 -31q13 -8 29 -14l4 -2q9 -3 21 -6q5 -1 10 -1.5t10 -1.5q43 -4 82 17.5t73 54.5q3 4 18 21.5t32 44t32 58t19 62.5q4 39 -11.5 70.5
t-46 55t-72 39.5t-88.5 25q-8 2 -16.5 3t-16.5 2q-15 4 -20.5 14t-6 20.5t2 20.5t4.5 14q22 42 39 80t25 67q2 8 3 15t2 13q2 5 8 14.5t22 10.5q48 -3 93.5 -6.5t84.5 -3.5t68 4.5t43 16.5q2 2 5 2h2v0z" />
    <glyph glyph-name="six" unicode="6" horiz-adv-x="533" 
d="M466 665q34 -19 51 -55q7 -15 10.5 -36t0.5 -48.5t-13.5 -61.5t-31.5 -76q-9 -13 -20 -21q-10 -7 -24.5 -11t-32.5 4q-5 2 -6 5.5t0 7.5t4 9q43 74 58.5 119t17.5 71q2 30 -9 43q-5 4 -12 7q-6 2 -14 3.5t-19 -0.5q-8 -2 -37 -12t-68.5 -37t-85 -75t-85.5 -125
q41 17 94 14t123 -40q35 -18 58.5 -46.5t37 -62.5t16.5 -70.5t-4 -72.5q-7 -35 -22 -66.5t-38 -56.5l-5 -5q-2 -2 -5.5 -5t-8.5 -7q-15 -13 -42 -28t-64 -21q-48 -9 -101 2.5t-97 45.5t-70 90.5t-20 136.5q5 67 37 147q26 65 56.5 115t62.5 86.5t64.5 61.5t63.5 41t64 27
q27 9 58.5 12t57.5 -9zM352 309q-59 31 -112 29q-23 -1 -46 -9t-44 -27.5t-38.5 -52t-29.5 -81.5l-1 1q-6 -59 8 -98.5t36.5 -63.5t48 -34.5t42.5 -10.5q14 -3 40.5 1.5t55.5 21t55.5 46.5t39.5 76q16 57 9.5 95t-20.5 62q-17 28 -44 45z" />
    <glyph glyph-name="seven" unicode="7" horiz-adv-x="513" 
d="M516 647q4 -11 6 -27q1 -19 -6.5 -43.5t-30.5 -56.5q-15 -21 -44.5 -55t-66.5 -76t-78 -89t-78 -94t-66.5 -92t-44 -82t-11 -64t33.5 -39l10 -2q11 -2 25 1h2h4q2 -4 -4 -10q-8 -8 -20.5 -17t-28.5 -13.5t-36 -2.5t-43 16q-32 19 -37 56t9.5 82.5t44 95.5t68.5 95
q32 37 80 88.5t98.5 105.5t95.5 105.5t70 89.5q-34 -1 -68.5 -3.5t-67 -5t-60.5 -4t-49 -1.5q-38 1 -64 8.5t-42.5 18t-25.5 24t-12 26.5q-1 1 -1 3q0 4 1 5h2q2 0 5 -3q17 -15 58 -19.5t94.5 -3.5t114 4.5t117.5 3.5q9 0 23.5 -4.5t22.5 -20.5z" />
    <glyph glyph-name="eight" unicode="8" horiz-adv-x="594" 
d="M521 393q-2 -1 -4 -3t-4.5 -4t-6.5 -4q-11 -7 -27.5 -15t-36.5 -14l6 -3q36 -18 58 -46.5t31 -62.5t6 -70.5t-17 -72.5q-14 -35 -36 -66.5t-54 -56.5q-2 -2 -6 -5l-7.5 -5t-9.5 -7q-20 -13 -53 -28t-76 -21q-39 -7 -81 -3.5t-79.5 17.5t-67 39.5t-42.5 63.5
q-3 9 -8.5 30.5t-5 53t12.5 72t45 87.5q14 19 32.5 36.5t38.5 31.5t40.5 24t38.5 15q14 5 27.5 8t29.5 5q-17 17 -24 38q-2 6 -6 20t-3.5 35t8.5 48t30 58q18 26 46.5 45.5t52.5 25.5q32 12 72.5 12t88.5 -25q24 -12 38.5 -31.5t20 -42.5t3.5 -48.5t-11 -49.5
q-9 -23 -24 -43.5t-36 -37.5zM336 393q11 -5 26 -7q2 -1 6 -1q9 -1 26 0.5t37 12.5t41 34t39 65q15 36 14.5 60.5t-9.5 39.5t-21.5 22.5t-21.5 10.5q-8 2 -16 3t-16 1q-23 -1 -53 -17.5t-60 -66.5q-17 -34 -23 -65q-5 -26 -0.5 -52.5t31.5 -39.5zM438 113q28 57 29.5 94
t-8.5 60q-11 26 -35 42q-62 30 -122 28q-26 -1 -53 -9t-54 -27.5t-52 -52t-45 -81.5q-17 -58 -12 -96t23 -61t45.5 -34t55.5 -14q15 -3 44 2.5t62 23.5t66 48.5t56 76.5z" />
    <glyph glyph-name="nine" unicode="9" horiz-adv-x="577" 
d="M461 653q8 -4 24 -15t33.5 -31t32.5 -50t21.5 -72.5t0.5 -98.5t-30 -128q-7 -17 -22.5 -53t-39.5 -78.5t-57 -86.5t-74 -77t-90 -50t-106 -5h-1q-2 0 -3 1q-8 2 -28.5 9t-43.5 21.5t-43.5 38t-28.5 58.5q-2 6 -2 9q-4 23 -1 51t16 62q11 28 20 40q5 7 10 12
q9 10 28.5 19.5t46.5 -0.5q5 -2 6 -5.5t0 -7.5q-2 -4 -5 -9q-6 -8 -11.5 -16t-10.5 -16q-13 -20 -23 -42q-8 -19 -13.5 -43t-2.5 -47h1l-1 -2q4 -23 20 -44t51 -35q13 -5 23 -8q29 -8 56 -1t50.5 23t44 39t37.5 48q40 59 71 140q-44 -17 -99.5 -14t-125.5 40
q-35 18 -57.5 46.5t-33.5 62.5t-11.5 71t9.5 73q10 35 28.5 66t45.5 56l5 5q4 4 15 12q17 13 47 28t69 21q37 7 76.5 3t75.5 -20zM506 411q10 58 -1 97.5t-32.5 63.5t-47 34.5t-43.5 10.5q-14 4 -42.5 -1t-60.5 -21.5t-62 -46.5t-48 -76q-21 -57 -17.5 -95t17.5 -62
q15 -28 42 -45q60 -31 115 -29q24 1 48.5 9t48.5 27t45 51.5t38 82.5z" />
    <glyph glyph-name="at" unicode="@" horiz-adv-x="733" 
d="M463 129q-5 -1 -9 -1h-8q-23 1 -30.5 16t-5.5 38q-14 -20 -36.5 -37t-51.5 -17q-29 1 -46 15.5t-24.5 36t-6.5 46.5t8 48q8 26 24.5 52t40.5 45.5t55 29t67 2.5q4 -1 8 -3t8.5 -3.5t9.5 -4.5q12 -8 21.5 -22t6.5 -38q-2 -11 -7.5 -18t-12.5 -10.5t-14 -5t-11 -1.5
q-5 0 -2 3q1 4 4 12t5 17t2 19t-3 19q-5 9 -13 15q-12 7 -28.5 0.5t-33.5 -22.5t-33 -39.5t-26 -49.5q-20 -53 -15.5 -84.5t23.5 -35.5q8 -2 18.5 3.5t21.5 15.5t21.5 24t18.5 29q8 12 15 26.5t12 26.5l1 1q1 1 3 1q7 -4 14.5 -9.5t13.5 -13.5t8 -17.5t-2 -20.5
q-3 -8 -6 -12q-8 -18 -10 -27.5t0 -14.5q1 -5 6 -6q2 -2 5 0q6 0 16 5t17 10q15 9 30 23t27.5 34.5t20.5 48.5t10 65q1 31 -5 54t-16.5 40t-24.5 28.5t-29 19.5q-35 18 -81 19q-41 -2 -73.5 -13.5t-59 -28.5t-46.5 -38.5t-35 -43.5q-35 -52 -52 -117q-12 -49 -11 -86.5
t10 -65.5t24.5 -48t33.5 -33q42 -31 104 -38q39 -5 72.5 -1.5t60.5 13t49 23t39 28.5q40 35 63 84l10 -23q-17 -36 -39.5 -62.5t-47.5 -45t-51 -30t-50 -17.5q-57 -15 -119 -9q-57 8 -97.5 27t-67.5 43.5t-42 54t-22 58.5q-17 69 0 151q10 45 37.5 91.5t71.5 84t103 61
t133 22.5q69 -1 118 -25.5t74.5 -64.5t26.5 -89.5t-26 -100.5q-23 -40 -48 -65q-4 -4 -14 -13.5t-24 -20t-31.5 -20.5t-36.5 -15q-2 0 -3.5 -0.5t-3.5 -0.5z" />
    <glyph glyph-name="A" unicode="A" 
d="M127 -132q-34 16 -53.5 41.5t-30 53.5t-13.5 54t-3 43q0 42 9.5 78t23 65t28 51t24.5 35q26 34 55.5 55.5t60.5 33.5t62.5 16.5t61.5 4.5q2 0 24.5 -1t51.5 -8.5t59 -25t47 -50.5q37 -4 81 -9t92 -9q50 55 94.5 109.5t80.5 102t60.5 86.5t34.5 63q4 4 6 7t9 3
q4 0 12.5 -4.5t16 -14.5t13.5 -25t6 -37q0 -42 -30 -110t-79 -176q35 7 60 21.5t38 38.5v1l1 1l1 -2q0 -9 -4.5 -28.5t-19 -41.5t-41 -41.5t-70.5 -28.5q-22 -54 -36.5 -102.5t-14.5 -85.5q0 -32 13.5 -52t45.5 -22q5 0 10 1t11 2.5t12 5.5h1q1 0 1.5 0.5t1.5 0.5q4 0 4 -3
q0 -8 -7 -19t-19.5 -21t-29 -17.5t-35.5 -7.5q-51 0 -73.5 35t-22.5 92q0 42 10.5 90.5t29.5 97.5q-15 1 -27 3q-11 2 -21.5 3.5t-16.5 3.5q-36 -46 -76.5 -93t-83.5 -90t-88 -79.5t-91 -62.5q-8 -4 -24.5 -12.5t-40.5 -17t-53 -15t-60 -6.5q-47 0 -89 19zM982 602
q-25 -46 -75.5 -128.5t-123.5 -182.5q12 -1 24 -1h24q19 40 41.5 82t43.5 83t38.5 79t27.5 68zM368 218q-3 -4 -5 -9q-5 -10 -5 -22q0 -13 11.5 -27t42.5 -14q22 0 38.5 8t28 21.5t17 31t5.5 35.5v9q-48 0 -83.5 -6.5t-49.5 -26.5zM447 116q-10 -3 -19 -4t-17 -1
q-20 0 -34.5 5.5t-24.5 12.5q-11 8 -19 19q-17 23 -17 56q0 20 8.5 40.5t26.5 37t46.5 27t69.5 10.5q-14 10 -33.5 17t-48.5 7q-39 0 -74.5 -14t-65.5 -37q-39 -31 -70 -72q-26 -35 -48 -86t-22 -115q0 -16 2.5 -35.5t12.5 -36t28.5 -27.5t50.5 -11t64.5 11.5t58.5 25.5
q31 16 60 37q64 48 134 114.5t139 140.5q-26 4 -53.5 7t-55.5 5q0 -20 -8 -42q-8 -21 -20 -39q-11 -16 -28 -30.5t-43 -22.5z" />
    <glyph glyph-name="B" unicode="B" horiz-adv-x="741" 
d="M295 269q-56 -101 -74.5 -162t-18.5 -92q0 -24 6 -35t6 -14t-4 -5t-9.5 -3.5t-10.5 -2t-6 -0.5q-27 0 -40 24t-13 60q0 62 33.5 152t97.5 190q37 58 65.5 95t49.5 58t36 28.5t26 7.5q12 0 20.5 -5.5t13 -14t6.5 -18t2 -17.5v-8.5t-5 -5.5q-11 -2 -24.5 -13t-28 -27.5
t-30 -37.5t-29.5 -42q-33 -50 -69 -112zM233 -41q4 43 22.5 67t39 35.5t38 13.5t20.5 2h9q26 0 45 -4t37 -11.5t37.5 -17.5t48.5 -22q14 23 21 51t7 48q0 63 -52 98.5t-149 43.5q-11 1 -11 8v2l1 1l16 37q1 2 3 5q4 6 14 7q14 2 39.5 9t54 22t56 39t46.5 62q20 40 20 72
q0 25 -11.5 42.5t-30.5 28.5t-43.5 16t-50.5 5q-34 0 -70.5 -10.5t-73 -33t-72 -58t-66.5 -86.5q-10 -16 -18 -33q-7 -14 -12 -30t-5 -29v-5.5t1.5 -7.5t5 -6.5t11.5 -2.5q4 0 9 3.5t11 3.5q4 0 4 -6q0 -2 -2 -6q-1 -2 -2 -3l-3.5 -3.5t-10.5 -8t-18 -8t-26 -3.5
q-17 0 -28 4.5t-18 9.5q-8 6 -13 14t-7 17.5t-2 20.5q0 14 2.5 27t5.5 24q4 12 9 24q13 30 42 71.5t77 79t117.5 64t162.5 26.5q8 0 15.5 -0.5t15.5 -0.5q50 -4 90 -21q17 -7 33.5 -18t29 -26t20.5 -35t8 -46q0 -60 -24 -101t-59 -67.5t-75 -41t-72 -20.5q56 -2 101 -20
q19 -8 37.5 -19.5t32.5 -28.5t23 -39.5t9 -52.5q0 -37 -13 -74.5t-30 -64.5q62 -20 139 -36.5t155 -16.5q55 0 106 10.5t96 36.5q1 0 3 1q4 2 5 2q2 0 2 -2q0 -11 -15 -33t-45 -44t-75.5 -39t-106.5 -17q-46 0 -88.5 7.5t-82 19.5t-74.5 26.5t-66 29.5q-24 -21 -51 -36
t-55 -24.5t-54.5 -14t-49.5 -4.5h-9t-9 1q-1 -1 -17.5 1t-36 11t-35.5 28.5t-16 52.5v7zM421 -69q11 3 22 9q10 5 22 13.5t26 20.5q-41 20 -74.5 34t-59.5 14q-5 0 -9 -0.5t-9 -1.5q-12 -3 -22 -10q-8 -6 -15 -16.5t-7 -27.5q0 -22 19 -33t49 -11q26 0 58 9z" />
    <glyph glyph-name="C" unicode="C" horiz-adv-x="912" 
d="M931 235q8 -8 8 -16q-38 -80 -91 -150q-23 -30 -51 -60t-61.5 -57t-72.5 -49t-83 -35q-39 -11 -78 -11q-44 0 -86 13t-75.5 40t-54 67.5t-20.5 95.5q0 34 12.5 79.5t35.5 95.5t56 101t75 98q-69 -7 -134.5 -15t-117.5 -20.5t-83.5 -31.5t-31.5 -48q0 -8 -3 -8
q-5 0 -16 6.5t-22 17.5t-19.5 25.5t-8.5 30.5q0 43 40.5 64t110 30t161.5 11.5t195 8.5q44 38 85.5 64t79.5 43q27 11 55 21q24 8 52.5 15t54.5 7q29 0 47 -12t18 -34q0 -21 -18.5 -45t-59.5 -46.5t-106 -41t-158 -29.5q-38 -38 -76 -87t-73 -112q-35 -62 -49.5 -109.5
t-14.5 -82.5q0 -47 19.5 -75.5t44.5 -44.5t49.5 -22t35.5 -7q5 -1 18 -1q25 0 68 9.5t96.5 42t114.5 95t123 168.5l1 1q2 2 4 2t4 -2zM832 618q-6 -1 -22.5 -5.5t-41 -14.5t-56 -27t-66.5 -43q40 4 77.5 11t66 16.5t46 21.5t17.5 28q0 5 -3.5 9t-17.5 4z" />
    <glyph glyph-name="D" unicode="D" horiz-adv-x="843" 
d="M295 269q-27 -50 -44 -89t-26.5 -70t-13.5 -54t-4 -39q0 -26 6.5 -37.5t6.5 -13.5q0 -3 -4 -5t-9 -3.5t-10 -2t-6 -0.5q-29 0 -42 25t-13 63q0 61 31.5 150.5t91.5 187.5q36 58 63 95t47.5 58t35.5 28.5t26 7.5q15 0 23.5 -7t13 -17t5.5 -21t1 -18q0 -6 -4 -6
q-11 -2 -24.5 -13t-27.5 -27.5t-29 -37.5t-28 -42q-33 -50 -66 -112zM1123 -11q1 0 1 -3q0 -11 -14.5 -32.5t-43.5 -44t-74 -39t-106 -16.5q-85 0 -160.5 23.5t-135.5 50.5q-58 -40 -112.5 -55t-101.5 -15h-15.5t-14.5 1l-1 -1h-2q-7 0 -24 3.5t-34.5 14t-31 28.5t-13.5 48
q0 46 18.5 71.5t40.5 37.5t40.5 14t17.5 2q34 0 53 -4t37.5 -12t43.5 -20.5t71 -28.5q24 20 48 51q20 26 42.5 67t39.5 100q12 40 17 74t5 63q0 61 -18 103.5t-45 70.5t-59.5 43.5t-62 23.5t-51.5 9.5t-28 1.5q-35 0 -72.5 -11t-74 -34.5t-70 -59t-60.5 -83.5
q-10 -16 -17 -33q-6 -14 -11 -30t-5 -29q0 -4 2 -13t16 -9q6 0 11 3.5t10 3.5q2 0 3 -2t1 -4t-2 -6q-1 -2 -2 -3l-3 -3.5t-10 -8t-18 -8t-27 -3.5q-17 0 -28.5 4.5t-18.5 9.5q-9 6 -13 14q-5 8 -7.5 18.5t-2.5 21.5q0 14 2.5 26.5t5.5 23.5q4 12 8 23q13 29 41 70.5
t73.5 79.5t110 65t150.5 27h24.5t25.5 -2q21 -2 50.5 -8.5t62.5 -20.5t65.5 -37t59 -58t42.5 -84.5t16 -115.5t-14.5 -122.5t-35.5 -102.5t-45 -80t-43 -56q59 -17 126.5 -30t136.5 -13q55 0 106 10.5t96 36.5l4 2q2 1 4 1zM428 -69q23 6 42.5 15.5t38.5 21.5
q-47 23 -83 38.5t-65 15.5q-5 0 -9 -0.5t-9 -1.5q-12 -3 -21 -10q-8 -6 -14.5 -16t-6.5 -27q0 -22 18.5 -33t50.5 -11q24 0 58 8z" />
    <glyph glyph-name="E" unicode="E" horiz-adv-x="956" 
d="M311 29q-1 6 -1.5 12t-0.5 11q0 25 7 49t15 42q10 21 22 40q24 31 54 52.5t56 34.5q31 15 62 24q-22 43 -22 82q0 20 5 38.5t13 35.5q-72 -7 -144 -15t-129 -20.5t-92.5 -32t-35.5 -50.5q0 -8 -3 -8q-5 0 -16 6.5t-22 17.5t-19.5 25.5t-8.5 30.5q0 44 42 64.5t113.5 29.5
t165.5 11.5t199 9.5q27 27 57.5 48.5t56.5 36.5q30 18 60 30q12 5 29 11t35.5 11t38 8.5t37.5 3.5q29 0 47 -12t18 -34q0 -21 -18 -44.5t-57.5 -45.5t-102 -40.5t-152.5 -30.5q-20 -28 -27 -52.5t-7 -44.5q0 -14 2 -24t4 -18q3 -9 7 -15q8 1 19 2t21 1h22q8 0 13.5 -4
t8.5 -9t4.5 -10.5t1.5 -9.5q0 -2 -3 -5q-1 -1 -2 -1q-66 -7 -113 -22t-79 -34t-51.5 -40.5t-29.5 -42.5t-13 -39.5t-3 -30.5q0 -3 0.5 -6t0.5 -5l2 -9.5t7.5 -24t16 -32t28.5 -32t44 -24.5t63 -10q24 0 67 8.5t97.5 41t117 95t125.5 170.5l1 1q2 2 4 2t6.5 -5t4.5 -10v-3
q-37 -80 -90 -150q-23 -30 -51 -60t-61.5 -57t-72.5 -49t-83 -35q-39 -11 -78 -11t-77.5 10.5t-70.5 32t-54.5 53.5t-30.5 76zM693 532q-4 -2 -5 -4q40 4 77 11t66 16.5t46.5 21.5t17.5 28q0 4 -2.5 8.5t-12.5 4.5q2 0 -9.5 -1.5t-36 -10t-60 -26t-81.5 -48.5z" />
    <glyph glyph-name="F" unicode="F" horiz-adv-x="950" 
d="M412 -97q5 -1 15 -1q29 0 53.5 14t45.5 37t38.5 53t32.5 60.5t27.5 60t23.5 52.5q8 17 19 42.5t25 57.5q-8 1 -15.5 1t-14.5 1q-8 -56 -34.5 -88.5t-66.5 -32.5q-21 0 -34.5 6t-22 15.5t-11.5 20.5t-3 20q0 25 10 43t26.5 30t39 19t47.5 10q-5 28 -24 41t-57 13
q-48 0 -91.5 -22.5t-77 -62.5t-53 -96t-19.5 -122q0 -33 7 -62.5t22 -52.5t37.5 -38t54.5 -19zM1059 670q26 1 46 -4q17 -5 31 -17t12 -35q-2 -20 -14.5 -37t-39.5 -31t-69.5 -24.5t-104.5 -16.5q-28 -40 -54.5 -85.5t-50.5 -90.5q31 1 50 7.5t29.5 14.5t14.5 16t5 13
q0 2 1 3q2 2 5 0q7 -5 15.5 -18t2.5 -37q-8 -32 -49 -47.5t-104 -12.5q-18 -36 -32 -66.5t-23 -52.5q-9 -21 -23 -52.5t-33 -65.5t-45 -67t-59 -58.5t-74 -39.5t-91 -9q-76 7 -123 48t-66.5 100t-11 130t44.5 139q19 37 43 63t49.5 43.5t51.5 27.5t50 15q57 11 117 1
q28 -6 46.5 -16t30.5 -22.5t18 -27t8 -29.5q13 1 26 1h26q19 41 42.5 83.5t52.5 83.5q-22 -1 -44.5 -1h-47.5q-114 0 -216 -3t-178.5 -15t-121 -37t-45.5 -70q0 -6 2 -12q2 -5 4.5 -10.5t7.5 -7.5q2 -1 4 -3q2 -4 -2 -6q-8 -4 -20 -8.5t-25.5 -5.5t-27 3t-24.5 17
q-21 26 -19 63t36.5 71.5t106 60t188.5 28.5q52 1 112 0.5t121 -2t121.5 -2t114.5 0.5q42 48 92 79t110 33zM611 279q-30 -4 -49 -13.5t-24 -26.5q-5 -14 -2 -23.5t10.5 -13t17.5 -1.5t19 10q8 7 16 26t12 42zM1088 616q-5 12 -17 12t-25 -5q-15 -6 -33 -18
q-12 -8 -23.5 -18.5t-23.5 -23.5q64 5 94 18q24 11 26.5 22t1.5 13z" />
    <glyph glyph-name="G" unicode="G" horiz-adv-x="688" 
d="M550 29q-20 -38 -42 -76q-19 -32 -42 -68.5t-46 -65.5q51 1 97 4.5t80 12t54 22.5t20 35q0 9 -3 18q3 0 0.5 3t-7 7.5l-9 9t-4.5 6.5q0 3 8 3q9 -1 22.5 -4t26 -11.5t21.5 -24t9 -39.5q0 -34 -20 -56t-53 -34.5t-76 -17.5t-89 -5q-23 0 -56.5 1t-73.5 3
q-33 -38 -68.5 -70.5t-74 -56.5t-78.5 -38t-81 -14h-12q-42 3 -75 15q-29 11 -54 33.5t-30 65.5q0 33 11.5 55.5t29.5 37t38.5 22.5t38.5 11.5t30 4t13 0.5q46 3 108 3q42 0 86 -1t89 -1q23 33 48 73t51 89q-25 -23 -55 -44.5t-63.5 -38.5t-69 -27t-72.5 -10t-71 11
t-59.5 33.5t-40.5 56.5t-15 81q0 51 21 117.5t70 147.5q41 69 85 120.5t87.5 90t85.5 64t80 42.5q26 12 54 22q24 8 52.5 15t56.5 7q26 0 44 -7q15 -6 26 -17q10 -9 18 -24t8 -35t-10.5 -46.5t-39.5 -59.5q-10 -10 -21 -19q-9 -8 -20.5 -16.5t-23.5 -15.5q-25 -14 -44 -20
t-33 -6q-19 0 -30 8.5t-16.5 20.5t-7 24.5t-1.5 19.5v6q4 -3 10 -6q5 -2 12 -4t18 -2q23 0 51 11.5t52 29t40 37.5t16 38v8.5t-3.5 11.5t-12 10t-24.5 4q-5 0 -10 -0.5t-11 -1.5q-6 -2 -28 -8t-54 -21t-72.5 -40t-84 -64t-89 -94t-87.5 -130q-44 -78 -61.5 -133t-17.5 -93
q0 -35 11.5 -56.5t27.5 -33.5t32.5 -16.5t26.5 -4.5q5 -1 10.5 -1h10.5q42 0 78 9.5t67 25.5t56 36t45 41q47 49 78 113q7 20 11.5 41.5t4.5 46.5q0 8 -0.5 15t-1.5 15q0 2 1 7t6 5q7 0 15.5 -8t16 -22t13 -33t5.5 -42q0 -28 -9 -63.5t-31 -80.5zM15 -244q-20 -3 -35 -11
q-14 -7 -24.5 -19t-10.5 -32q0 -18 10 -32.5t26 -24.5t37 -15t43 -5q8 0 27.5 1.5t48.5 14t67.5 41t84.5 82.5q-43 2 -85.5 3t-82.5 1q-30 0 -57 -1t-49 -3z" />
    <glyph glyph-name="H" unicode="H" horiz-adv-x="1041" 
d="M792 209q-23 0 -50 4q-23 3 -54.5 8.5t-67.5 14.5q-32 -68 -75 -131q-18 -27 -41 -55.5t-49.5 -56t-57 -52.5t-64.5 -44q-26 -14 -54 -25q-25 -9 -56 -16.5t-65 -7.5q-68 0 -108.5 25.5t-61.5 59.5t-27 68.5t-6 53.5q0 42 9.5 79t23 67t28 52.5t25.5 35.5
q27 34 56.5 55.5t60.5 33.5t62.5 16.5t61.5 4.5l24 -0.5t55.5 -8t61.5 -25t41 -51.5q21 -2 45 -5t50 -6q47 103 66 168t19 92t-13 35t-28 8q-7 0 -13 -2t-12 -2q-3 0 -3 3q0 1 2 7q5 16 15 28q8 11 21.5 19.5t33.5 8.5q22 0 38 -9t26 -24.5t14.5 -36t4.5 -43.5
q0 -21 -3.5 -43t-9.5 -43q-7 -23 -22 -68.5t-45 -106.5q37 -4 74 -6.5t72 -2.5q8 0 15 0.5t15 0.5q24 49 52 102t52.5 102.5t41 91.5t16.5 69q0 3 -0.5 6t-0.5 7t4 4q6 0 13.5 -6t15 -16.5t12.5 -25.5t5 -34q0 -42 -30.5 -111t-80.5 -178q34 8 57.5 21t34.5 35q1 0 1 1l1 1
l1 -2q0 -8 -3 -28t-16 -42t-39.5 -42t-72.5 -29q-21 -51 -34.5 -98t-13.5 -82q0 -32 13.5 -52t45.5 -22q5 0 10 1t11 2.5t12 5.5h1q1 0 1.5 0.5t1.5 0.5q3 0 3 -2q0 -8 -7 -19t-19 -21.5t-28.5 -18t-35.5 -7.5q-51 0 -73.5 35t-22.5 93q0 41 10 87t27 94zM416 190
q8 12 11.5 27t3.5 37q-64 0 -104.5 -13t-40.5 -52q0 -3 1.5 -10.5t7 -14.5t16.5 -12.5t31 -5.5q30 0 47 13.5t27 30.5zM35 54q-1 -2 -1 -6v-15q0 -14 3.5 -36.5t16 -44t36 -37t63.5 -15.5q32 0 63 12t55 27q28 18 52 40q32 29 67 69q30 34 67 84t73 116q-14 2 -27 2.5
t-27 1.5q-1 -11 -2.5 -22t-6.5 -22h1q-9 -28 -27 -49q-15 -18 -39.5 -33t-59.5 -15q-44 0 -70 25t-26 68q0 20 8 40.5t26 37t46.5 27t69.5 10.5q-13 10 -32.5 17t-48.5 7q-39 0 -74.5 -14t-66.5 -37q-8 -6 -28 -24t-42.5 -48t-42 -71.5t-26.5 -94.5z" />
    <glyph glyph-name="I" unicode="I" horiz-adv-x="596" 
d="M808 670q8 0 22 -1.5t27 -7t22.5 -16t9.5 -29.5q0 1 -1 -13.5t-13.5 -35t-40.5 -40.5t-82 -30q-35 -7 -64 -11t-54 -7q-27 -43 -51.5 -90.5t-45.5 -92.5t-37.5 -83.5t-27.5 -63.5q-9 -20 -22 -50t-31 -62.5t-42 -65t-54.5 -58t-68.5 -41.5t-84 -16h-12t-12 1
q-35 4 -61 17q-23 11 -41.5 33t-18.5 60v8t1 9q5 30 18 54q11 20 33 37t60 17q5 0 11 -0.5t12 -1.5q11 -3 20 -8q8 -5 14.5 -12.5t6.5 -21.5q0 -11 -4 -11q-5 0 -17.5 7t-28.5 7q-8 0 -18 -3t-19 -11t-15 -22.5t-6 -37.5q0 -12 2.5 -26t11 -25.5t23.5 -19.5t40 -8
q43 0 77 31t60 75t46.5 92t36.5 83q9 19 22 51t31 72t41 84t50 86h-47t-68 -2t-76 -7t-70.5 -15.5t-52 -27.5t-20.5 -43q0 -6 2 -14t2 -13q0 -3 -2 -3q-5 0 -11.5 4.5t-12.5 12.5t-10 18t-4 22q0 17 9 35.5t29 36t53.5 31t82.5 19.5q44 5 110 7t135 6q45 55 98.5 92
t118.5 39h8zM850 601q4 7 6 14q1 4 0 6q-4 12 -16 15t-26 1q-16 -2 -36 -8q-24 -9 -48.5 -30.5t-48.5 -52.5q60 7 106 19.5t63 35.5z" />
    <glyph glyph-name="J" unicode="J" horiz-adv-x="492" 
d="M-342 -313q-1 1 -1 3v8q0 11 4.5 29.5t21 37.5t48.5 34t88 19q45 3 104 3q39 0 81.5 -1t86.5 -1q32 47 69 107.5t76 139.5q33 68 53.5 113.5t34 78t23 55.5t20.5 45.5t26 48.5t41 65h-53t-70 -2t-75 -7.5t-68.5 -16.5t-49.5 -28.5t-19 -43.5q0 -6 2 -13t2 -11q0 -3 -2 -3
q-5 0 -11.5 4.5t-12.5 12.5t-10 18t-4 22q0 17 9 35.5t29 36t53.5 31t82.5 19.5q44 5 110 7t135 6q46 57 101.5 94t123.5 37q8 0 22 -1.5t27 -7t22.5 -16t9.5 -29.5q0 1 -1 -13.5t-13.5 -35t-40.5 -40.5t-82 -30q-35 -7 -64 -11t-54 -7q-42 -67 -70 -122.5t-49.5 -105.5
t-41 -97.5t-44 -98.5t-59 -108.5t-85.5 -127.5q51 1 97 5t80 12t54 22t20 36q0 8 -3 17q3 0 0 3l-7.5 7.5t-8.5 9t-4 6.5q0 3 8 3q10 -1 23.5 -4t25.5 -12t20.5 -24t8.5 -40q0 -33 -20 -55t-53 -34.5t-76 -17.5t-89 -5q-22 0 -55.5 1t-74.5 3q-33 -38 -68.5 -70.5t-74 -56.5
t-78.5 -38t-81 -14h-12q-42 3 -75 15q-29 11 -53.5 33.5t-29.5 65.5zM-149 -381q14 2 33.5 8.5t43.5 22t53 41t62 65.5q-41 2 -81.5 3t-77.5 1q-32 0 -63 0.5t-56.5 -4.5t-41 -19t-15.5 -43q0 -18 10 -32.5t26.5 -24.5t37.5 -15t43 -5q6 0 12.5 0.5t13.5 1.5zM749 601
q4 6 5 11.5t1 7.5q0 10 -10.5 14t-20.5 4q-47 0 -78.5 -24t-65.5 -68q60 7 106 19.5t63 35.5z" />
    <glyph glyph-name="K" unicode="K" horiz-adv-x="932" 
d="M410 98q-4 -1 -9 -2t-11 -1.5t-13 -0.5q-12 0 -29 4t-32.5 13.5t-26.5 27t-11 44.5q0 10 2.5 25t10.5 29.5t23.5 24.5t42.5 10q20 0 37 -11.5t17 -40.5q-1 -3 -3 -3q-8 0 -15.5 3t-13.5 3q-12 0 -21 -3.5t-15 -8.5q-7 -5 -12 -11q-3 -5 -6 -9q-5 -8 -5 -21q0 -6 2.5 -13
t8.5 -14t17 -11.5t28 -4.5q20 0 34.5 8t24 19t15 21.5t8.5 15.5q3 8 5.5 17.5t2.5 20.5q0 19 -7 37q-7 16 -21 29q-12 11 -34 20t-57 9q-38 0 -72 -13t-64 -35q2 0 -20.5 -17.5t-50 -52t-50.5 -84.5t-23 -116q0 -32 11 -55.5t28 -39t38.5 -23t42.5 -7.5q32 0 62.5 12.5
t54.5 27.5q27 18 52 40q51 45 100 107q42 53 89.5 129.5t85.5 178.5q25 66 35.5 106t10.5 63q0 26 -12.5 34.5t-26.5 8.5q-7 0 -13 -2.5t-13 -2.5q-3 0 -3 4t1 7q4 16 14 28q8 11 22 19.5t35 8.5q22 0 38 -9t26 -25t14.5 -36.5t4.5 -43.5q0 -21 -3.5 -43t-9.5 -43
q-8 -29 -30.5 -92t-70.5 -147q43 31 97.5 70.5t105.5 81.5t93 83.5t61 78.5q-34 8 -48.5 26.5t-14.5 42.5q0 25 10.5 40t24 22t27.5 9t20 2q24 0 40 -8t25.5 -21t13 -28.5t3.5 -31.5q47 13 104.5 37.5t117.5 47.5t119.5 40.5t111.5 17.5q55 0 98 -14.5t72.5 -34t45 -39.5
t15.5 -31q0 -3 -2 -3q-3 0 -4 1q-1 0 -1 1q-26 15 -77 28.5t-123 13.5q-59 0 -128.5 -12.5t-148.5 -44.5q-66 -26 -118.5 -41t-92.5 -21q-22 -57 -72 -105.5t-114 -93t-135.5 -86.5t-136.5 -86q61 -21 119.5 -59.5t116 -76t116 -65.5t121.5 -28q14 0 30 2t30.5 7.5
t26.5 14.5t18 24q3 6 6 6q1 0 1.5 -0.5t1.5 -0.5l1 -1q15 -11 24 -22.5t9 -26.5q0 -24 -14 -41t-34.5 -27.5t-45 -15.5t-45.5 -5q-32 0 -64 8q-67 16 -125 52.5t-113.5 77.5t-111.5 79.5t-117 59.5q-20 -30 -44.5 -62.5t-53 -64t-60.5 -60.5t-66 -50q-24 -14 -51 -25
q-23 -9 -54.5 -16.5t-67.5 -7.5q-69 0 -109 24.5t-61 59t-27 71t-6 60.5q0 41 9.5 77t23 65t27.5 50.5t24 33.5q27 34 56.5 55.5t61 34t62.5 17t61 4.5h11.5t24 -1.5t31 -4.5t32.5 -9q48 -15 71.5 -50.5t23.5 -76.5q0 -23 -8 -49q-8 -22 -21 -40q-11 -16 -28.5 -31.5
t-41.5 -20.5zM1005 574q10 -4 15 -5q2 0 2.5 5t0.5 7q0 16 -7 22.5t-15 6.5q-13 0 -13 -15q0 -11 8 -17q4 -3 9 -4z" />
    <glyph glyph-name="L" unicode="L" horiz-adv-x="785" 
d="M380 -112q16 7 31.5 20t26.5 27q13 16 25 33q-78 23 -121 23q-12 0 -24.5 -2t-23 -7t-17 -15t-6.5 -25q0 -25 18.5 -42.5t51.5 -17.5q16 0 39 6zM545 -56q-22 -32 -55 -57q-28 -21 -70 -38.5t-99 -15.5q-37 2 -63 16q-11 6 -21 15t-16.5 22.5t-8 31.5t3.5 41
q7 33 30.5 51.5t55.5 26t69 5t72 -12.5q5 -2 18.5 -6t33.5 -9q26 43 46.5 88t36.5 79q11 25 30.5 71t47.5 102q-75 -10 -147.5 -15.5t-137.5 -10.5t-120.5 -11t-96 -17.5t-63.5 -30.5t-23 -49q0 -7 2 -13q4 -13 12 -18q2 -2 4 -3q2 -3 -2 -5q-16 -9 -30.5 -7t-25.5 11
q-16 14 -22.5 34.5t-0.5 43.5t27 46.5t60.5 43t100.5 33t147 17.5q98 5 192.5 11.5t163.5 15.5q26 45 57 87.5t67.5 76.5t78.5 55t89 23q24 -1 42 -7q16 -5 29 -17.5t12 -36.5q0 -23 -12.5 -54.5t-45.5 -64.5t-92 -64t-153 -53q-36 -66 -64.5 -127t-43.5 -97
q-12 -28 -31.5 -71.5t-48.5 -88.5q32 -9 68.5 -18.5t78.5 -20.5q88 -23 187 -43.5t193 -31t174 -6t131 32.5l4 2q4 2 5 2q2 -2 1 -5.5t-3 -5.5q-7 -15 -24 -39.5t-50 -46t-84 -33.5t-125 -2q-49 6 -104.5 19.5t-114.5 30.5t-119 36t-117 38q-36 12 -70 23t-66 21zM1013 624
q-10 5 -21.5 3.5t-22.5 -6.5q-12 -5 -26 -14q-32 -21 -65 -63t-65 -93q52 12 87.5 27t58.5 31.5t37 35t22 38.5q2 9 3 17q1 7 -0.5 13.5t-7.5 10.5z" />
    <glyph glyph-name="M" unicode="M" horiz-adv-x="1619" 
d="M491 275q0 -2 13.5 17t43.5 42.5t78 43.5t116 20q34 0 68.5 -8.5t62 -26t44.5 -44.5t17 -64q0 -13 -1.5 -25t-6.5 -24q0 -1 -6 -16t-20 -33t-38 -32.5t-61 -14.5q-12 0 -29 4t-32 14t-25.5 27.5t-10.5 44.5q0 26 12 50q-32 -2 -68 -7t-75 -12q-14 -17 -28.5 -39.5
t-26.5 -49.5t-19.5 -58t-7.5 -66q0 -29 10.5 -51.5t28 -37.5t39 -23t43.5 -8q32 0 63 12t55 27q28 18 52 40q49 44 97 104q42 51 88.5 126t84.5 174q-15 48 -25 90t-10 74q0 43 12 67.5t27.5 36.5t29.5 14.5t19 2.5q23 0 39 -9t26 -24.5t14.5 -36t4.5 -44.5q0 -21 -3.5 -43
t-9.5 -43q-5 -17 -14 -46t-25 -67q15 -32 29.5 -67.5t25.5 -65.5q13 -35 25 -70q24 23 48 56.5t49 73.5t51 85t54 92q40 67 70.5 109t53.5 64.5t40 30.5t31 8h6q5 0 14 -2.5t18 -10t15.5 -21t6.5 -35.5q0 -13 -3 -32.5t-12 -46.5q-8 -25 -25 -61.5t-37 -80t-41.5 -91
t-39 -93.5t-29 -87.5t-11.5 -73.5t13 -51.5t45 -21.5q2 0 12.5 0.5t21.5 7.5l1 1q1 0 1.5 0.5t2.5 0.5t2 -3q0 -8 -7 -19t-19 -21.5t-28.5 -17.5t-34.5 -7q-52 0 -75 34.5t-23 92.5q0 59 19 121t48 125t63 127t64 128q10 21 19 39t9 26q0 5 -2.5 6t-3.5 2q-17 0 -41 -33
t-53.5 -85.5t-62 -116t-65.5 -124.5t-65 -112t-60 -78q-23 -22 -47.5 -29t-45.5 -7q-16 0 -30 2.5t-14 5.5q0 1 3 4q8 5 13.5 12.5t8.5 13.5q4 7 5 14v9q0 32 -16 80t-38 105q-44 -77 -94 -147q-21 -30 -46 -61.5t-52 -61.5t-55.5 -56t-57.5 -45q-22 -13 -48 -24
q-23 -9 -54 -16.5t-67 -7.5q-58 0 -98 17.5t-65 46.5t-36 65.5t-11 74.5q0 33 6.5 62t14 51t13.5 35l6 13q-46 -8 -85 -12.5t-78 -4.5q-50 0 -95 7.5t-79 23t-54 40t-20 58.5q0 25 10.5 42.5t25.5 28t31 15t26 4.5q2 0 5 -3q0 -1 -2 -3q-1 -1 -1 -2q-11 -10 -16 -17.5
t-6 -13.5t0 -9.5t1 -5.5q0 -26 20 -43t54.5 -27t80 -14t95.5 -4q31 0 62.5 1t63.5 3zM796 339q-7 1 -13.5 1h-12.5q-37 0 -64 -8.5t-45 -19.5q-21 -12 -35 -27q40 2 71 4t49 2q44 0 67 -9t23 -46q0 -3 -2 -3q-8 0 -15.5 3t-13.5 3q-12 0 -21.5 -3.5t-15.5 -8.5
q-7 -5 -12 -11q-3 -5 -6 -9q-5 -8 -5 -21q0 -6 2.5 -13.5t8.5 -14t17 -11t28 -4.5q20 0 35 8t24.5 19t15 21.5t7.5 15.5q8 18 8 39q0 16 -6 36q-6 14 -17 26q-10 10 -27.5 19.5t-44.5 11.5zM1082 600l-2.5 -0.5t-5 -4.5t-4.5 -12t-2 -23q0 -17 4 -42.5t11 -48.5q11 31 15 53
t4 37q0 28 -7.5 34.5t-12.5 6.5z" />
    <glyph glyph-name="N" unicode="N" horiz-adv-x="1554" 
d="M447 14q-3 24 -3 45q0 36 5.5 64t13.5 48q8 23 19 41q-48 -8 -89.5 -13t-82.5 -5q-49 0 -93 7t-78 22t-54.5 38.5t-22.5 55.5q0 27 10.5 45.5t25 30t30.5 16t27 4.5q5 0 5 -3q0 -1 -2 -3q-1 -1 -1 -2q-11 -11 -16 -18.5t-6 -13t0 -9t1 -5.5q0 -27 20.5 -44t55 -26.5
t80 -13.5t96.5 -4q32 0 65.5 1t66.5 3q31 35 70 62q33 23 79 42.5t103 19.5q40 0 75 -10t61 -28.5t41 -45t15 -60.5q0 -25 -9 -49q0 -3 -7.5 -18.5t-23.5 -33t-39.5 -31.5t-56.5 -14q-28 0 -46 9t-28.5 22.5t-14.5 28.5t-4 28q0 21 5 38q3 9 6 16q-31 -2 -67.5 -7t-75.5 -12
l-14.5 -17t-31 -44.5t-30.5 -63.5t-14 -74q0 -29 10 -53.5t27.5 -42.5t41 -28.5t49.5 -10.5q32 0 63 12t55 27q28 18 52 40q49 44 97 104q42 51 88.5 125.5t84.5 173.5q-17 50 -25.5 87t-8.5 67q0 29 6 50t13.5 35t14.5 21l9 9q7 5 18 11t28 6q22 0 37.5 -9t25.5 -25
t14.5 -36.5t4.5 -43.5q0 -21 -3.5 -43t-9.5 -43q-5 -18 -15 -48.5t-27 -72.5q30 -61 55 -121q10 -26 20 -53.5t18 -55t13 -53.5t6 -48q7 7 16.5 21.5t17.5 28.5q10 17 19 35q18 33 37 76.5t37.5 90t37.5 92.5t38 85q22 46 50 87t58.5 71.5t62.5 48t63 17.5q24 0 40 -8
t26 -20.5t14 -27t4 -27.5q0 -25 -8 -44.5t-12 -19.5q-1 0 -3 2q-1 1 -1 3q-3 16 -10 26t-15.5 15.5t-17 7.5t-14.5 2q-26 0 -53 -24.5t-54 -64.5t-52.5 -90t-49.5 -100.5t-45 -97t-38 -78.5q-21 -39 -41 -74q-18 -30 -38.5 -61.5t-40.5 -50.5q-23 -22 -47.5 -29t-44.5 -7
q-16 0 -29 2.5t-16 5.5q0 1 3 4q9 5 14 12.5t8 13.5q4 7 5 15q1 5 1 18q0 24 -6.5 56.5t-17.5 70t-25 79t-28 83.5q-5 -12 -25.5 -47.5t-52.5 -81t-74.5 -95.5t-91 -92t-101.5 -69t-107 -27q-64 0 -105 17t-65.5 42t-35.5 54.5t-15 53.5zM826 339q-7 1 -13.5 1h-12.5
q-35 0 -62 -8.5t-45 -19.5q-21 -12 -37 -27q14 2 32 4q14 2 33 3t39 1q16 0 34.5 -0.5t34 -6t26 -16.5t10.5 -32q0 -5 -2 -5q-8 0 -15.5 3t-13.5 3q-12 0 -21.5 -3.5t-15.5 -8.5q-7 -5 -12 -11l-6 -8q-5 -8 -5 -21q0 -2 0.5 -9.5t6 -15t17 -13.5t33.5 -6q20 0 34.5 8t24 19
t15 21.5t7.5 15.5q4 8 5.5 18t1.5 21q0 22 -5 36q-6 15 -17 26q-10 10 -27 19t-44 12zM1112 600l-2.5 -0.5t-5 -4.5t-4.5 -12.5t-2 -23.5q0 -20 3.5 -45t10.5 -48q11 35 15.5 58.5t4.5 38.5q0 26 -8 31.5t-12 5.5z" />
    <glyph glyph-name="O" unicode="O" 
d="M747 1q38 31 68 70.5t52 75.5q26 41 46 85q20 48 33 95.5t13 85.5q0 44 -20 69t-59 25q-21 0 -42.5 -8t-43 -20.5t-41.5 -29t-38 -33.5q-42 -40 -81 -91q-50 -67 -68 -115.5t-18 -82.5q0 -24 6 -40.5t14 -27.5q9 -12 20 -20l8 -8q3 -4 6 -7.5t3 -8.5q0 -6 -4 -8.5
t-9 -2.5q-9 0 -15 3q-4 1 -7 3q-49 26 -67.5 63t-18.5 77q0 36 10.5 70.5t24.5 62.5q15 33 35 62q45 65 88 105t82 62.5t73 30.5t60 8q44 0 72.5 -12.5t45 -33.5t22.5 -47.5t6 -53.5q0 -35 -9 -73.5t-23 -75.5q-45 -112 -109 -199q-27 -37 -61.5 -72.5t-76.5 -63.5t-91 -45
t-106 -17q-45 0 -89 14t-79 42.5t-56.5 71.5t-21.5 101q0 48 17 104.5t57 124.5q40 69 85 118t90.5 84t89 58t80.5 40q-47 -5 -102.5 -14t-112 -18t-109 -15.5t-93.5 -6.5q-48 0 -92 7t-77 22t-53.5 38t-22.5 55q0 27 10 45t24 29.5t30 16.5t27 5q7 0 7 -3q0 -1 -2 -3
q-1 -1 -1 -2q-11 -9 -15.5 -17t-6 -13.5t-0.5 -9.5t1 -6q0 -26 20 -43t54 -27t79.5 -14t95.5 -4q60 0 122 3.5t116 7t95 7t59 3.5q9 0 20 -1t20.5 -4t16 -9t6.5 -15q0 -10 -5 -16t-12 -10q-31 -11 -75.5 -33t-94.5 -61.5t-102.5 -98.5t-100.5 -144q-34 -60 -48 -106.5
t-14 -82.5q0 -49 20.5 -79.5t47 -47.5t52.5 -23.5t37 -7.5q4 -1 17 -1q15 0 37 3t49 12t58 25t65 42z" />
    <glyph glyph-name="P" unicode="P" horiz-adv-x="1230" 
d="M1100 337q21 61 21 105q0 43 -15.5 73t-39 49.5t-51.5 30.5t-53 16.5t-44 6.5t-24 1q-36 0 -72.5 -9.5t-71 -32t-66 -58.5t-56.5 -88q-9 -16 -15 -32q-5 -14 -9.5 -29t-4.5 -28q0 -5 1.5 -15t17.5 -10q4 0 9 3.5t11 3.5q4 0 4 -6q0 -2 -2 -6q-1 -2 -2 -3l-3 -3.5t-10 -8
t-17.5 -8t-26.5 -3.5q-17 0 -28.5 4.5t-18.5 9.5q-9 6 -13 14q-8 9 -11.5 21t-3.5 25q0 12 2 24t5 22q4 11 8 21q14 37 40 79t68.5 78t105.5 60t152 24h22q2 -2 24.5 -3.5t55 -8t70.5 -21t70 -42.5t53 -72.5t21 -110.5q0 -17 -2 -35.5t-7 -38.5q-21 -64 -62 -114
q-18 -21 -42.5 -41.5t-56.5 -36.5t-72 -25.5t-90 -9.5q-20 0 -42.5 2t-46.5 6q-14 -37 -22.5 -70t-8.5 -60q0 -32 14.5 -51.5t49.5 -22.5q5 0 10 1t11 2.5t12 5.5h1q1 0 1.5 0.5t1.5 0.5h2t1 -3q0 -8 -7 -19t-19 -21.5t-28.5 -17.5t-35.5 -7q-51 0 -73.5 34.5t-22.5 91.5
q0 69 26 149q-38 8 -98.5 24.5t-128.5 32.5t-136.5 28t-123.5 12q-54 0 -87.5 -15.5t-33.5 -54.5v-5q0 -5 2 -10t4 -11t7 -11l1 -1q0 -1 0.5 -1.5t0.5 -1.5q0 -3 -4 -3q-8 0 -21 6t-26 17.5t-22 27.5t-9 36q0 29 13 50t36 34.5t53.5 19.5t66.5 6q39 0 82 -7t87 -19
q40 -12 86 -28t92 -32.5t90 -31.5t81 -24q22 54 50.5 107.5t54 102.5t43 90.5t17.5 71.5q0 4 -0.5 7.5t-0.5 7.5t3 4q5 0 13 -5.5t15.5 -16t13 -26t5.5 -35.5q0 -23 -10.5 -55t-28 -72t-39.5 -87.5t-44 -101.5q19 -3 39 -3q35 0 65 7.5t55 20.5t45 29t36 33q37 40 61 90z
" />
    <glyph glyph-name="Q" unicode="Q" horiz-adv-x="1028" 
d="M929 538q42 -18 59 -53.5t17 -80.5q0 -35 -9 -73.5t-23 -75.5q-44 -110 -107 -196q-27 -37 -61 -72.5t-74.5 -63.5t-89 -46t-103.5 -19q45 -18 89 -36t80 -18q17 0 32.5 5.5t26.5 19.5q1 -2 3.5 4t5 14t5 14.5l2.5 6.5q4 0 12 -15t8 -32q0 -13 -6.5 -26.5t-20 -24.5
t-33.5 -18t-47 -7t-61.5 10.5t-72.5 26t-79 34t-80 34t-75.5 26t-66.5 10.5q-12 0 -23 -3t-19.5 -7t-13.5 -8.5t-3 -7.5v-4q0 -11 12 -18t26 -11q17 -4 38 -6q1 -1 3 -1h8q7 0 17 3.5t20 3.5q3 0 3 -2q0 -4 -4 -11t-11.5 -13.5t-18.5 -11t-24 -4.5q-14 0 -32 6q-19 7 -33 18
q-12 9 -22 22t-10 32q0 8 3 17q5 17 17 30q11 11 30 20.5t51 9.5q14 0 32 -2.5t39 -8.5q-29 29 -46 68t-17 90q0 47 17.5 104.5t56.5 124.5q40 69 85 118t90.5 84t89 58t81.5 40q-48 -5 -103.5 -14l-111 -18t-108 -15.5t-94.5 -6.5q-50 0 -94.5 7.5t-78 23t-53 40
t-19.5 57.5q0 25 10.5 42.5t25 28t30 15t25.5 4.5q5 0 7 -3q0 -1 -2 -3q-1 -1 -1 -2q-11 -9 -15.5 -16.5t-6 -13.5t-0.5 -10.5t1 -6.5q0 -26 20 -43t54 -26.5t79.5 -13.5t95.5 -4q60 0 122 3.5t116 7t95 7t59 3.5q9 0 20 -1t20.5 -4t15.5 -9t6 -15q0 -10 -5.5 -16t-10.5 -10
q-31 -11 -75.5 -33t-95 -61.5t-103 -98.5t-100.5 -144q-34 -60 -47.5 -106.5t-13.5 -81.5q0 -50 20.5 -80.5t47 -47.5t52.5 -23.5t37 -7.5q4 -1 17 -1q15 0 36.5 3t48.5 12t58 25t66 42q38 31 68 70.5t52 75.5q26 41 46 85q20 48 33 95.5t13 86.5q0 44 -20 68.5t-59 24.5
q-21 0 -42.5 -8t-43 -20.5t-41.5 -29t-38 -33.5q-42 -40 -81 -91q-50 -67 -68.5 -115.5t-18.5 -82.5q0 -24 6 -40.5t14 -27.5q9 -12 21 -20l8 -8q3 -4 6 -7.5t3 -8.5q0 -6 -4 -8.5t-9 -2.5q-9 0 -15 3q-4 1 -7 3q-49 26 -67.5 63t-18.5 77q0 36 10.5 70.5t24.5 62.5
q15 33 35 62q45 65 88 105t82 62.5t73 30.5t60 8q16 0 29 -2.5t22 -4.5q11 -3 19 -6z" />
    <glyph glyph-name="R" unicode="R" horiz-adv-x="1256" 
d="M1397 -5q16 -11 25 -22.5t9 -26.5q0 -24 -13.5 -41t-34 -27.5t-45 -15.5t-45.5 -5q-60 0 -115.5 22.5t-107 56t-100 72t-95.5 69.5q-38 24 -64 33q-13 -35 -20.5 -66t-7.5 -57q0 -32 14.5 -51.5t49.5 -22.5q5 0 10 1t11 2.5t12 5.5h1q1 0 1.5 0.5t1.5 0.5q3 0 3 -2
q0 -8 -7 -19t-19 -21.5t-28.5 -18t-35.5 -7.5q-51 0 -73.5 35t-22.5 92q0 68 26 148q-38 8 -98.5 24.5t-128.5 32.5t-136.5 28t-123.5 12q-54 0 -87.5 -15.5t-33.5 -54.5v-5q0 -5 2 -10t4 -11t7 -11q0 -1 1 -2q2 -2 2 -3q-2 -2 -5 -2q-9 0 -22 6.5t-25.5 18t-21.5 27.5
t-9 36q0 29 13 49.5t36 34t54 19.5t66 6q58 0 124 -16.5t133.5 -39.5t134 -47t127.5 -39q22 54 50 107.5t53.5 102t43 90t17.5 71.5q0 5 -0.5 8.5t-0.5 7.5t3 4q5 0 13 -5.5t15.5 -16t13 -26t5.5 -35.5q0 -23 -10.5 -55t-28 -72t-39.5 -87.5t-44 -101.5q19 -3 39 -3
q35 0 65 7.5t55.5 20.5t45.5 29t36 33q37 40 61 90q21 61 21 105q0 43 -15.5 73t-39 49.5t-51.5 30.5t-53 16.5t-44 6.5t-24 1q-36 0 -73 -9.5t-71.5 -32t-66 -58.5t-56.5 -88q-9 -16 -15 -32q-5 -14 -9.5 -29t-4.5 -28q0 -5 1.5 -15t17.5 -10q4 0 9 3.5t11 3.5q2 0 3 -2
t1 -4t-2 -6q-1 -2 -1 -3l-3 -3.5t-10 -8t-18 -8t-26 -3.5q-17 0 -28 4.5t-19 9.5q-9 6 -14 14q-8 9 -11.5 20.5t-3.5 24.5q0 12 2.5 24t5.5 22l8 22q14 37 40 79t68.5 78t105.5 60t152 24h22q2 -2 24.5 -3.5t55 -8t70 -21t69.5 -42.5t53 -72.5t21 -110.5q0 -17 -2 -35.5
t-7 -38.5q-18 -61 -58 -109q-17 -21 -40 -41t-53 -36.5t-68 -27t-84 -12.5q43 -24 87 -53.5t90 -55t92.5 -42.5t93.5 -17q13 0 28.5 2.5t29.5 8t26 14.5t18 23q2 6 6 6q1 0 1 -0.5t1 -0.5h1v0z" />
    <glyph glyph-name="S" unicode="S" horiz-adv-x="1070" 
d="M519 179q17 47 43 72t52 37q30 14 62 16h4q2 0 5 0.5t7 0.5q13 0 33 -3t39 -14t32 -31.5t13 -55.5q0 -30 -11 -48.5t-28 -29t-37.5 -14t-38.5 -3.5h-17t-17 1t-33.5 3.5t-66.5 7.5v-6q0 -10 4 -33t19.5 -46.5t48 -41.5t89.5 -18q36 0 61.5 10.5t43 26.5t27.5 34.5
t15.5 35t7 27.5t1.5 12q1 8 1 15.5v15.5q0 48 -4.5 113.5t-6.5 143.5q0 61 8 104t17.5 70t17.5 39t9 12q14 17 34 30t48 13q15 0 30 -4q17 -6 30 -17q11 -10 21 -28t10 -47q0 -34 -8 -55.5t-20.5 -33.5t-27.5 -16t-28 -4q-8 0 -14.5 0.5t-6.5 3.5q0 1 2 3q1 1 2 1
q16 10 26.5 24.5t16.5 28.5q7 16 11 33q2 7 3 14t1 15q0 13 -6 24t-20 11q-15 0 -27 -18.5t-21 -49.5t-14 -71.5t-5 -84.5q0 -34 2.5 -85.5t10.5 -123.5q0 -5 1 -11q1 -5 1.5 -13t0.5 -18q0 -20 -3 -47.5t-11 -59.5q-15 -42 -44 -75q-25 -28 -68 -51t-110 -23
q-53 0 -90.5 12t-63 31t-41 42.5t-23 47t-10 44t-2.5 33.5v12q0 3 1 5q-52 5 -106 9t-105 4q-42 0 -78.5 -3.5t-64 -12.5t-43 -24t-15.5 -38v-8t2 -9q-4 0 -1 -4t8 -10t9.5 -11.5t4.5 -8.5t-6 -3q-11 0 -26.5 4.5t-30 15t-24.5 27.5t-10 41q0 32 16 57t44.5 42.5t68.5 26.5
t88 9q62 0 133 -16t148 -33zM655 151q16 -3 30 -3q23 0 37 6.5t22 14.5q10 9 14 21q1 5 1 13q0 18 -7.5 29.5t-18 17.5t-22 8t-19.5 2q-11 0 -20.5 -2t-16.5 -4l-15 -5q-20 -13 -33.5 -27.5t-21.5 -26.5q-10 -14 -15 -28q22 -5 43 -9t41 -7h1z" />
    <glyph glyph-name="T" unicode="T" horiz-adv-x="588" 
d="M195 464q0 -1 0.5 -1.5t0.5 -1.5q0 -2 -4 -2q-5 0 -14.5 4t-18.5 13t-15.5 24.5t-6.5 38.5q0 28 14.5 54.5t46 47t81.5 33t122 12.5q41 0 91.5 -3t104.5 -7t108.5 -7t105.5 -3t93.5 4t73.5 14.5t48.5 28.5t17.5 47q0 11 -4 22.5t-17 22.5q-1 0 -1 1q-1 0 -1 2t2 2
q7 0 18 -4.5t20.5 -14t16.5 -24t7 -34.5q0 -44 -25.5 -73.5t-67.5 -47.5t-97 -25.5t-114 -7.5q-35 0 -81 2.5t-96 6t-102 6t-99 2.5q-58 0 -103.5 -6t-68.5 -23q-12 -8 -22 -19q-8 -9 -14.5 -22t-6.5 -30t7 -32zM561 540q15 14 33.5 23t38.5 9q13 0 25 -4q8 -3 14 -9
q5 -5 10 -13.5t5 -22.5q0 -4 -1 -11t-3 -7t-7.5 2.5t-12.5 2.5q-10 0 -18.5 -2.5t-18.5 -12.5t-22 -30t-28 -54q-15 -31 -29.5 -62.5t-28 -61t-24 -54t-17.5 -40.5q-9 -21 -22 -50.5t-31 -62t-42 -65t-54.5 -58t-68.5 -41.5t-84 -16h-12t-12 1q-35 4 -61 17
q-23 11 -41.5 33.5t-18.5 60.5v7.5t1 8.5q5 30 18 54q11 20 33.5 37t60.5 17q5 0 11 -0.5t12 -1.5q11 -2 20 -7q8 -5 14 -12.5t6 -21.5q0 -12 -4 -12q-5 0 -17.5 7t-28.5 7q-7 0 -17 -3t-19.5 -11t-16 -21.5t-6.5 -34.5q0 -9 3 -20t11 -20.5t23.5 -16t39.5 -6.5
q43 0 77 27.5t60.5 68t46.5 85.5t37 80l16.5 38.5t24 55.5t29.5 65t33 66q8 16 18 32q8 14 19.5 30t25.5 30z" />
    <glyph glyph-name="U" unicode="U" horiz-adv-x="789" 
d="M272 302q9 21 19.5 47t19.5 49q11 27 22 55q10 28 14 50.5t4 39.5q0 29 -8.5 46t-19.5 26q-12 11 -27 14q-7 2 -14.5 3t-15.5 1q-21 0 -42 -8t-37.5 -24t-27 -40.5t-10.5 -56.5q0 -27 12 -48q5 -10 14 -18q8 -7 19.5 -12t28.5 -5h7q3 0 3 -2q0 -4 -6 -12.5t-17 -16.5
t-25.5 -14.5t-30.5 -6.5q-17 0 -33 6.5t-28 21.5q-10 11 -17 25q-7 12 -12 30t-5 41q0 55 21.5 92.5t53 60.5t68.5 32.5t67 9.5q27 0 51.5 -5t43.5 -13q20 -10 36 -28q14 -16 25.5 -42t11.5 -67q0 -20 -3.5 -45t-12.5 -54q-3 -14 -15 -43t-29.5 -66.5t-37 -80t-35.5 -84
t-27 -78.5t-11 -64q0 -29 12 -46.5t43 -17.5q33 0 67 21.5t66 55t61.5 73t53.5 76.5t40 66t23 40q16 27 34 63t35 68q18 38 38 77q23 49 39.5 90.5t16.5 68.5q0 4 -0.5 6.5t-0.5 6.5q0 3 2 3q5 0 13.5 -5t16 -15.5t13 -26t5.5 -35.5q0 -14 -2.5 -30.5t-9.5 -36.5
q-8 -25 -24.5 -61.5t-37 -80t-42 -91t-39 -93t-29 -87.5t-11.5 -74t13.5 -51.5t45.5 -21.5q2 0 12 1t21 7q1 0 2 1q1 0 1.5 0.5t1.5 0.5q2 0 2 -3q0 -8 -7 -19t-19 -21.5t-28.5 -17.5t-34.5 -7q-53 0 -75 34t-22 93v20t2 21q-28 -35 -59.5 -65.5t-64.5 -53.5t-66.5 -36.5
t-66.5 -13.5q-32 0 -54 10.5t-35.5 28t-20 40.5t-6.5 48q0 33 9 71t21.5 75t26.5 70.5t24 57.5z" />
    <glyph glyph-name="V" unicode="V" horiz-adv-x="735" 
d="M745 484q-32 -123 -91 -235q-25 -48 -58.5 -97.5t-77 -96t-97.5 -86.5t-119 -68q-10 -2 -15 -2q-26 0 -43 11.5t-28 29.5t-15.5 39t-4.5 40q0 17 2 32t4 27q3 14 6 26q6 25 15.5 52.5t19.5 53t19.5 47.5t15.5 37q11 26 22.5 54t20.5 51q11 27 20 54q0 1 3.5 10t7 22.5
t6.5 30.5t3 34q0 24 -7.5 39t-17.5 24t-19 12.5t-12 3.5q-7 2 -14.5 3t-15.5 1q-22 0 -43 -8t-37.5 -24.5t-26.5 -40.5t-10 -57q0 -12 2.5 -24t8.5 -23q5 -10 14 -18q8 -7 19.5 -12t28.5 -5h8q3 0 3 -2q0 -4 -6.5 -12.5t-17.5 -16.5t-25.5 -14.5t-30.5 -6.5t-32 6.5
t-29 21.5q-10 11 -17 26q-7 13 -12 30.5t-5 40.5q0 55 21.5 92.5t53.5 60t68.5 32t66.5 9.5q28 0 52.5 -5t43.5 -13q20 -11 36 -30q14 -17 25 -43.5t11 -67.5q0 -20 -3.5 -43.5t-11.5 -51.5l-5.5 -15.5t-15 -40.5t-23 -55.5t-28.5 -61.5q-16 -33 -31.5 -67t-27.5 -66.5
t-19.5 -62.5t-7.5 -54q0 -20 6.5 -35.5t21.5 -23.5q48 20 89 53.5t75 74t61 86t48 89.5q49 104 79 222q2 0 -12.5 3t-32.5 13.5t-33 29.5t-15 49q0 26 9.5 45t24.5 32t34 19t38 6q40 0 66.5 -23.5t26.5 -81.5q0 -5 -0.5 -9t-0.5 -9q44 8 88.5 21.5t81.5 26.5q43 15 83 30
q57 23 101.5 32.5t79.5 9.5q46 0 76.5 -15t47.5 -34.5t24 -39t7 -28.5q0 -1 -1 -1q-17 23 -47 32.5t-71 9.5q-55 0 -122.5 -14t-134.5 -32.5t-126.5 -37t-98.5 -27.5zM652 543q5 -1 18 -1q5 20 5 44q0 20 -6.5 33t-26.5 13q-4 0 -10 -1.5t-12 -6.5t-10.5 -14t-4.5 -23
q0 -11 8 -25t39 -19z" />
    <glyph glyph-name="W" unicode="W" horiz-adv-x="1074" 
d="M553 147q12 95 27 159t31 104.5t32 61.5t29.5 30t23.5 9.5t15 0.5q14 -2 25 -10q10 -7 18 -20t8 -37q0 -27 -11.5 -61.5t-31 -72.5t-44 -77t-49.5 -75q-3 -19 -5 -38q-2 -17 -3 -37.5t-1 -41.5q0 -38 6 -64t25 -26q61 29 111 79t89 108.5t68 118.5t47.5 108.5t27.5 79.5
t10 32q-45 8 -69 34t-24 58q0 27 9 46.5t24 32.5t33.5 19t38.5 6q40 0 66.5 -23.5t26.5 -81.5q0 -5 -0.5 -9t-0.5 -9q44 8 88.5 21.5t81.5 26.5q43 15 83 30q57 23 101.5 32.5t79.5 9.5q46 0 76.5 -15t47.5 -34.5t24 -39t7 -28.5q0 -1 -1 -1q-17 23 -47 32.5t-71 9.5
q-55 0 -122.5 -14t-134.5 -32.5t-126.5 -37t-98.5 -27.5q-31 -124 -90 -236q-25 -48 -59 -97.5t-77.5 -96t-97 -86t-119.5 -67.5q-10 -2 -15 -2q-29 0 -47 15t-28 35.5t-13.5 42t-3.5 34.5v11t1 9q0 4 1 8q-24 -32 -51 -60t-55.5 -48.5t-58.5 -32.5t-60 -12q-32 0 -54 10.5
t-35.5 28.5t-19.5 41t-6 47q0 33 9 71t21.5 75t26.5 70.5t24 57.5q30 70 46 109.5t23.5 63t9 37t1.5 32.5q0 28 -8.5 45t-19.5 26q-12 11 -28 14q-7 2 -14.5 3t-15.5 1q-22 0 -43 -8.5t-37.5 -25t-26.5 -40.5t-10 -56q0 -12 2.5 -24t8.5 -23q5 -10 14 -18q8 -7 19.5 -12
t28.5 -5h8q3 0 3 -2q0 -5 -6.5 -13t-17 -16.5t-25.5 -14.5t-31 -6t-32 6.5t-29 21.5q-10 11 -17 26q-7 13 -12 30.5t-5 40.5q0 55 21.5 92.5t53.5 60t69 32t67 9.5q27 0 51.5 -5t43.5 -13q20 -9 37 -27q14 -15 26 -41t12 -67q0 -21 -4 -46t-14 -55q1 -7 -10 -33t-28.5 -63
t-38 -81.5t-38 -88.5t-29.5 -83.5t-12 -66.5q0 -28 12.5 -46t43.5 -18t61.5 18t58.5 45.5t53 62t45 67.5zM698 461q-13 -19 -27.5 -72t-27.5 -119q16 24 31 49t26 48.5t17.5 44t6.5 34.5q0 10 -3 17t-10 7t-13 -9zM1018 542q5 20 5 44q0 20 -6.5 33t-26.5 13q-4 0 -10 -1.5
t-12 -6.5t-10.5 -14t-4.5 -23q0 -6 2 -14t9 -14.5t20 -11.5t34 -5z" />
    <glyph glyph-name="X" unicode="X" horiz-adv-x="625" 
d="M486 97q-1 -4 -1 -8v-23q0 -18 2 -42t9.5 -47t21.5 -41t37 -23q1 0 3 -1q3 -3 3 -4q0 -2 -6.5 -5t-23.5 -3q-36 0 -60 18t-38.5 47.5t-20.5 65.5t-6 72q0 31 3 63.5t7 61.5q-56 -33 -118 -71t-114.5 -77t-87 -76.5t-34.5 -70.5q0 -24 22 -43q-3 -1 2 -3t13 -4.5t15 -5.5
t7 -4q0 -2 -6 -5.5t-15 -6.5t-20.5 -5.5t-21.5 -2.5q-11 0 -25.5 5t-27.5 15.5t-22 28t-9 41.5q0 29 16 60t44 61t65 59t79 53q27 15 58 31t63.5 32l65 32t62.5 32q6 38 9 71.5t5 59t2.5 40.5t0.5 16q0 43 -10.5 68t-24 37t-27 15t-19.5 3q-22 0 -42.5 -7t-37 -22t-26.5 -38
t-10 -55q0 -14 2.5 -31.5t11 -33t23.5 -26t41 -10.5q7 0 13.5 2.5t14.5 2.5q3 0 3 -2q0 -7 -5.5 -19t-16.5 -23.5t-27 -20t-37 -8.5q-11 0 -22 2.5t-22 10.5q-19 13 -33 32q-12 17 -22 41.5t-10 59.5q0 57 23 96t56.5 63t72.5 34.5t72 10.5q8 0 15 -0.5t14 -1.5
q34 -5 60 -25q23 -17 41.5 -52.5t18.5 -98.5q0 -9 -0.5 -17.5t-1.5 -18.5q-2 -27 -4 -49q-2 -19 -3 -36.5t-3 -21.5q51 31 97 66t79 70q-32 11 -49 34.5t-17 49.5q0 28 9 48t24.5 32.5t35.5 18.5t42 6q12 0 28 -3.5t31 -13.5t25 -27.5t10 -44.5q0 -15 -5 -33q43 8 87.5 21.5
t80.5 25.5q42 14 82 30q57 23 101.5 32.5t78.5 9.5q47 0 77 -15t47.5 -35t24.5 -39.5t7 -27.5v-1q-1 0 -1 1l-1 1q-17 22 -47 31t-70 9t-87 -8t-95.5 -19.5t-97 -26t-91 -27.5t-77.5 -23t-57 -13q-24 -33 -53 -59.5t-64.5 -50.5t-77 -46.5t-89.5 -47.5v-3q-3 -18 -7 -41.5
t-8 -47.5t-6.5 -47t-2.5 -40zM679 599q-1 -1 -1 -3v-6q0 -6 2 -13.5t8.5 -14t18.5 -12t32 -6.5q10 17 13.5 30t3.5 23q0 11 -4 18t-9 11t-12 6q-3 1 -13 1q-11 0 -22.5 -6.5t-16.5 -27.5z" />
    <glyph glyph-name="Y" unicode="Y" horiz-adv-x="776" 
d="M-47 -303q0 45 25 69.5t55 35.5q35 13 80 15q25 2 55 3t64 1q38 0 78.5 -1t82.5 -1q33 47 69.5 108t75.5 142q-27 -35 -58.5 -65t-64.5 -53t-66.5 -36t-66.5 -13q-36 0 -58 12.5t-35 31.5t-17.5 42t-4.5 45q0 33 5 56q2 12 5 23q6 25 15.5 52.5t19.5 53t19.5 47.5
t16.5 37q9 21 20 47t20 49q11 27 21 55t14 50.5t4 39.5q0 29 -8.5 46t-19.5 26q-12 11 -27 14q-7 2 -14.5 3t-15.5 1q-22 0 -43 -8.5t-37.5 -25t-26.5 -40.5t-10 -56q0 -12 2.5 -24t8.5 -23q5 -10 14 -18q8 -7 19.5 -12t28.5 -5h8q3 0 3 -2q0 -5 -6.5 -13t-17.5 -16.5
t-25.5 -14.5t-30.5 -6t-32 6.5t-29 21.5q-10 11 -17 26q-7 13 -12 30.5t-5 40.5q0 55 21.5 92.5t53.5 60t69 32t67 9.5q27 0 51.5 -5t43.5 -13q20 -11 36 -29q14 -16 25.5 -42.5t11.5 -67.5q0 -42 -16 -97q0 -10 -11.5 -37t-29 -63.5t-37.5 -80.5t-37.5 -86.5t-29 -81.5
t-11.5 -67t12.5 -46t43.5 -18q43 0 88 34t88.5 87t84 119t75 130.5t60.5 120t40 88.5q16 37 27 67t11 53q0 4 -0.5 6.5t-0.5 6.5q0 3 2 3q5 0 13.5 -5t16 -15.5t13 -26t5.5 -35.5q0 -14 -2.5 -30.5t-9.5 -36.5q-27 -76 -56 -153q-26 -66 -57.5 -144t-65.5 -147
q-21 -47 -47 -93q-22 -40 -50 -84.5t-57 -79.5q52 1 98 4.5t81 11.5t55.5 22.5t20.5 36.5q0 3 0.5 6.5t-1 8t-6.5 11.5t-17 17q0 3 8 3q9 -1 22.5 -4t26 -11.5t21.5 -24t9 -39.5q0 -34 -20 -56t-53 -34.5t-76 -17.5t-89 -5q-24 0 -58 1t-75 3q-33 -38 -68.5 -70.5t-73 -56.5
t-77 -38t-80.5 -14h-12q-42 3 -75 15q-29 11 -53.5 33.5t-29.5 65.5v10zM146 -381q14 2 34 8t45 21t54.5 40.5t64.5 66.5q-42 2 -85 3.5t-83 1.5q-31 0 -62 0.5t-55.5 -4.5t-40 -19t-15.5 -43q0 -18 9.5 -32.5t25.5 -24t37 -15t43 -5.5h14t14 2z" />
    <glyph glyph-name="Z" unicode="Z" horiz-adv-x="570" 
d="M849 626q5 -5 5 -12q0 -15 -18 -38.5t-46 -50.5q-55 -53 -130.5 -106.5t-157.5 -105.5t-162 -100.5t-143.5 -92.5t-102.5 -82t-39 -67q0 -5 2 -11q30 3 56.5 7t46.5 7q23 4 43 8q71 13 124 13q67 0 104 -17.5t54 -41.5t20.5 -48t3.5 -36q0 -5 -0.5 -5.5t-1.5 -0.5
q-8 21 -28 34.5t-49 21.5t-65 11.5t-76 3.5q-54 0 -111 -4.5t-111 -9.5q-3 0 -6.5 -0.5t-6.5 -0.5q-26 0 -42.5 7.5t-26 17t-13 17.5t-3.5 9q-4 11 -4 24q0 28 18.5 59.5t49 63t71.5 62t86 56.5q203 118 353 212.5t231 158.5q-23 0 -60 2t-83 4.5t-97 4.5t-102 2
q-56 0 -108 -4t-92 -15t-64 -29.5t-24 -48.5q0 -1 -1 -4.5t0 -8.5t5 -12.5t14 -16.5l1 -1q2 -2 2 -4q-2 -2 -7 -2q-10 0 -25 4t-28.5 13.5t-23 24.5t-9.5 38q0 36 22 62.5t59.5 44t86 25.5t101.5 8q45 0 103 -7.5t118 -16.5t117.5 -16.5t101.5 -7.5q14 0 26 2t24 2
q10 0 18 -6z" />
    <glyph glyph-name="bracketleft" unicode="[" horiz-adv-x="291" 
d="M99 -99q-8 -2 -15 0q-14 1 -25 6t-19 11t-13.5 12.5t-8.5 11.5q-22 41 -18 98.5t24 121t51 129t63 122.5t61 101t44 65l2.5 2.5t3.5 5.5q1 1 1.5 2t1.5 2q8 11 21 25.5t29 26.5q17 14 42.5 22.5t69.5 0.5q11 -2 16 -7t5 -12.5t-10 -18.5q-8 -8 -17.5 -7.5t-22 -3.5
t-30 -18.5t-40.5 -53.5q-19 -33 -46 -80.5t-56 -100.5t-58 -108.5t-51.5 -103.5t-36 -85t-12.5 -54q2 -32 18.5 -47.5t34.5 -22.5q3 -2 7 -5t6 -8q1 -7 -1 -13q-2 -5 -6.5 -10t-14.5 -6z" />
    <glyph glyph-name="bracketright" unicode="]" horiz-adv-x="539" 
d="M358 669h14q29 -2 44.5 -17t21.5 -25q22 -41 18 -98.5t-23.5 -121t-50.5 -129t-63.5 -122.5t-61.5 -101t-44 -65q0 -1 -1 -2q-3 -3 -4 -5t-1.5 -2.5t-1.5 -2.5q-8 -10 -21 -24.5t-29 -27.5q-17 -14 -42.5 -22t-69.5 0q-11 2 -16 7q-5 4 -5.5 11.5t10.5 18.5q7 8 16.5 7.5
t22.5 3.5t30.5 18.5t40.5 53.5q19 33 46 80.5t56 101t57.5 109t51 103.5t36.5 84.5t13 53.5q-2 32 -18.5 48t-34.5 22l-7.5 5t-5.5 9q-1 7 1 13q2 5 6 9.5t15 6.5z" />
    <glyph glyph-name="grave" unicode="`" horiz-adv-x="264" 
d="M246 456q8 -18 -15 -23q-39 -4 -73 -4q-29 0 -57.5 3t-39.5 14q-11 9 -17 23.5t-4.5 27t10.5 21t29 5.5q19 -3 47 -11.5t53.5 -19t44.5 -21t22 -15.5z" />
    <glyph glyph-name="a" unicode="a" horiz-adv-x="407" 
d="M430 290q2 0 4 -2q4 -4 1 -12q-40 -102 -74.5 -158t-63 -82.5t-50 -31t-34.5 -4.5q-31 1 -41 20t-7 50q-19 -26 -48 -48.5t-68 -21.5q-38 1 -60.5 20t-32 47t-8 61.5t10.5 62.5q10 35 32.5 69.5t54 60t71.5 38t87 2.5q5 -1 11 -3q9 -2 24 -11q16 -11 28.5 -29.5
t7.5 -49.5q-2 -15 -9.5 -23.5t-16.5 -13.5t-18 -7t-14 -2h-1q-3 0 -3 1.5v2.5q2 5 6 15.5t6.5 22.5t2.5 25t-4 24q-5 13 -16 20q-17 10 -39 2t-44.5 -29.5t-43 -52.5t-33.5 -65q-26 -70 -20.5 -112t30.5 -47q10 -2 24 5t28.5 20.5t28.5 31.5t25 38q10 16 19 35t16 35
q0 1 1 2t4 0q9 -5 20 -12.5t18.5 -17.5t10.5 -22.5t-3 -27.5q-2 -5 -4 -8.5t-4 -7.5q-11 -23 -13 -35.5t0 -18.5q2 -7 7 -9q13 -2 29.5 10.5t34 33.5t35 48.5t32.5 55.5t27 53t19 42q2 3 6 7t11 3z" />
    <glyph glyph-name="b" unicode="b" horiz-adv-x="350" 
d="M382 290q8 0 8 -3.5t-3 -7.5q-23 -24 -58.5 -47t-77.5 -35q-2 -5 -2.5 -9t-1.5 -6q-1 -4 -2 -5q-26 -72 -59.5 -108.5t-63.5 -52.5q-35 -18 -71 -18q-47 3 -70.5 28.5t-28 66.5t9 95.5t40.5 116.5q38 79 79 141q18 26 38 50.5t41.5 43t44.5 28.5t46 7q12 -2 22 -9
q8 -6 15.5 -17t9.5 -30q0 -4 -2 -5q-1 0 -1.5 0.5t-1.5 0.5q-6 4 -19 4.5t-33 -13.5t-49 -48.5t-66 -101.5q11 5 22.5 6.5t19.5 1.5q10 0 19 -1q29 -4 45 -18t23 -32.5t7 -40t-3 -40.5q42 8 68.5 25t37.5 26q2 2 6.5 4.5t10.5 2.5zM174 338q-22 1 -37.5 -15.5t-17.5 -43.5
q-2 -17 7.5 -26t20.5 -14q13 -6 31 -8q13 -3 27 -3q11 54 0 81.5t-31 28.5zM178 142q5 12 9 22.5t7 21.5q-25 -2 -49 4q-38 8 -54 24.5t-21 33.5q-12 -24 -26.5 -59.5t-22.5 -70t-4.5 -61t28.5 -32.5q9 -2 25 0.5t34 15t37.5 36.5t36.5 65z" />
    <glyph glyph-name="c" unicode="c" horiz-adv-x="323" 
d="M212 352q14 -11 23 -28.5t5 -44.5q-2 -15 -9.5 -23.5t-16.5 -13.5t-18 -7t-14 -2h-1q-3 0 -3 1.5v2.5q2 5 5 15t7 21q7 23 7 36.5t-2 19.5q-3 7 -9 9q-4 0 -8 -1l-10 -2.5t-13 -6.5q-29 -17 -58.5 -55.5t-47.5 -84.5q-17 -46 -21 -82q-2 -15 0 -30t8.5 -26t19 -17.5
t32.5 -6.5q27 1 50.5 13t41.5 26q20 17 38 37q16 19 33 44t33 50t29 48t21 38q2 2 7 6t12 2q2 -1 4 -3q3 -3 -1 -12q-38 -72 -68 -118.5t-53 -74.5q-19 -24 -44 -42q-22 -16 -52.5 -29.5t-70.5 -14.5q-29 1 -48.5 9t-31.5 17q-14 11 -22 24q-17 29 -17.5 69.5t10.5 75.5
q9 30 26.5 60t43 54.5t57 41t69.5 18.5q10 1 21 0q9 -1 18.5 -4t17.5 -9z" />
    <glyph glyph-name="d" unicode="d" horiz-adv-x="444" 
d="M242 -2q-26 -2 -39 8t-18 22q-6 14 -5 32q0 16 3 36q-9 -15 -21.5 -32t-29 -31.5t-37.5 -24t-45 -8.5q-39 1 -61 20t-31.5 47t-8 61.5t10.5 62.5q10 35 32 69.5t53.5 60t72 38t87.5 2.5q9 -2 19 -6q8 -4 17 -9.5t17 -14.5q3 6 5.5 11.5t4.5 9.5q3 4 5 9q17 31 41.5 70
t53.5 72t61 54t64 16q11 -3 22 -9q8 -6 16 -16.5t10 -29.5q0 -4 -2 -5q-1 -1 -3 1q-6 4 -20.5 4t-37.5 -17.5t-55.5 -60.5t-75.5 -126q-28 -54 -50 -104q-19 -43 -34.5 -87.5t-14.5 -73.5q0 -5 2 -9t9 -5q21 0 47 21.5t52.5 56t51 78t41.5 87.5q2 3 6 7.5t11 2.5q2 0 4 -2
q4 -4 1 -12q-36 -93 -71 -147t-65 -82.5t-54.5 -37t-40.5 -9.5zM164 122q18 32 29.5 58t18.5 45q8 21 12 38q4 19 3 39t-18 31q-17 10 -39 2t-44.5 -29.5t-43 -52.5t-33.5 -65q-27 -70 -21 -112t31 -47q10 -2 23.5 5t28 20t28.5 30.5t25 37.5z" />
    <glyph glyph-name="e" unicode="e" horiz-adv-x="324" 
d="M72 -4q-31 0 -51 8t-32 17q-14 11 -23 25q-17 29 -17.5 69.5t10.5 75.5q9 30 26.5 60t43 54.5t57 41t69.5 18.5q29 3 50 -4q18 -7 30.5 -25t4.5 -57q-5 -19 -14 -37q-8 -16 -20 -32.5t-31 -29.5q-20 -13 -40.5 -21.5t-40 -13.5t-35.5 -7.5t-26 -2.5q-5 -27 -3.5 -47
t7.5 -34q4 -10 15 -17q8 -6 23 -10t38 1q16 4 34 14q15 8 34 22.5t37 37.5q16 19 33 44t33 50t29 48t21 38q2 2 6.5 6t12.5 2q2 -1 4 -3q3 -3 -1 -12q-38 -72 -68.5 -118.5t-53.5 -74.5q-19 -24 -44 -42q-21 -16 -51 -29.5t-67 -14.5zM48 188q-2 -7 -5 -16.5t-5 -15.5
q51 14 81.5 36t47 43.5t21.5 39.5t6 24v3q2 14 0 22l-3 9v1q-1 2 -5 4h-6q-8 0 -15.5 -4t-9.5 -6q-29 -17 -59 -55.5t-48 -84.5z" />
    <glyph glyph-name="f" unicode="f" horiz-adv-x="225" 
d="M307 515q-6 4 -21.5 4t-41 -21t-61.5 -72t-84 -148l-6 -12v-1q44 -5 88 1.5t84 22.5q4 1 9.5 0.5t10.5 -6.5q2 -2 2 -5q0 -5 -9 -8q-42 -17 -86.5 -25.5t-89.5 -5.5q9 -33 15.5 -77.5t6.5 -93.5t-7.5 -97.5t-26.5 -88.5q-26 -55 -65.5 -79.5t-76 -21t-60.5 34.5t-19 88
q3 28 10.5 60.5t19 66t24.5 67t26 63.5q31 71 68 144q38 79 79 141q18 26 38 50.5t41.5 43t44 28.5t45.5 7q12 -2 22 -9q8 -6 15.5 -17t9.5 -30q0 -4 -1 -5h-2q-1 0 -1 1h-1zM-38 -181q17 -11 34 5.5t31.5 51t26 81t18 95.5t7.5 95t-6 80q-13 -28 -31 -66.5t-35 -80.5
t-32 -84.5t-23 -78.5t-6.5 -62t16.5 -36z" />
    <glyph glyph-name="g" unicode="g" horiz-adv-x="406" 
d="M205 361q22 -6 39 -17q14 -10 25 -28.5t7 -47.5q-2 -15 -9.5 -23.5t-16.5 -13.5t-18 -7t-15 -2h-1q-2 0 -2.5 1.5t0.5 2.5q16 34 17 54.5t-4 32.5q-6 13 -19 20q-17 10 -38.5 2t-44 -29.5t-43 -52.5t-33.5 -65q-27 -70 -21 -112t31 -47q10 -2 23.5 5t28 20.5t29 31.5
t25.5 38q9 16 18 35t16 35q1 0 2 2t4 0q9 -5 19.5 -12.5t18 -17.5t10.5 -22.5t-3 -27.5q-2 -5 -4 -8.5t-4 -7.5q-10 -23 -12.5 -35.5t-0.5 -18.5q2 -7 7 -9q13 -2 29.5 10.5t34 33.5t35 48.5t32.5 55.5t27 53t19 42q2 3 6 7t12 3q2 0 4 -2q4 -4 1 -12q-40 -102 -75 -158
t-63.5 -82.5t-50 -31t-34.5 -4.5q-5 0 -8.5 0.5t-7.5 1.5q-12 -26 -29 -55q18 0 40 1t43.5 3t38.5 5.5t25 8.5q12 8 12.5 17t-1.5 16q-1 2 -1 4q0 4 7 3t16 -3.5t16 -9t11 -17.5t0 -29q-6 -27 -35.5 -37t-66.5 -11t-73.5 3t-56.5 5q-29 -47 -66 -93t-79 -77.5t-89 -43
t-96 10.5q-32 13 -52 35q-18 19 -28 49t4 74q13 39 38 68q21 25 56 44t90 15q15 -2 30 -6q13 -5 26 -13t22 -24q22 4 43.5 5t41.5 0q21 39 39 75q-16 -11 -34 -18.5t-40 -6.5q-38 1 -60 20t-31.5 47t-8.5 61.5t10 62.5q10 35 32.5 69.5t54 60t72 38t87.5 2.5zM-143 -276
q25 -4 51 10t52 39.5t51 60.5t48 73q-26 0 -51 -3q0 -5 -0.5 -9t-1.5 -9q-7 -32 -20 -53q-11 -18 -31 -27.5t-51 6.5q-12 8 -19 19q-6 10 -7 24.5t11 34.5q11 20 33.5 32t49.5 19q-11 12 -31 15q-22 3 -44 -5t-41 -26t-34 -44.5t-22 -60.5q-5 -24 -1 -43q3 -17 16 -32.5
t42 -20.5zM-18 -101q-20 -5 -35 -13.5t-23 -22.5q-3 -5 -4 -9q-2 -10 5 -14q11 -6 27.5 2.5t24.5 33.5q4 13 5 23z" />
    <glyph glyph-name="h" unicode="h" horiz-adv-x="395" 
d="M11 -8q1 -2 -1 -4q-1 -1 -3 -1q-16 -1 -26 5t-16 14q-7 9 -12 20q-6 14 -6.5 33t3 41t9.5 45.5t13 46.5q17 53 42 111q37 80 78 142q18 26 38 51t41.5 43.5t44 28.5t45.5 7q11 -2 22 -9q8 -6 16 -17t10 -30q0 -4 -2 -5q-1 0 -1.5 0.5t-1.5 0.5q-7 4 -22 4t-40.5 -21
t-61.5 -72t-84 -148q-5 -7 -9 -17q-4 -8 -9 -20t-11 -26q16 25 36.5 51.5t42 48t44.5 35t46 13.5q13 0 22 -4q13 -5 23 -15q8 -8 14 -22.5t3 -37.5q-3 -24 -14.5 -51t-25 -52t-26.5 -47t-19 -36q-11 -23 -13.5 -35t-1.5 -18q1 -7 6 -8q20 -3 47 17.5t55 55.5t53 80t42 90
q2 3 6 7t12 3q2 0 4 -2q4 -4 1 -12q-40 -102 -78 -158t-70.5 -82.5t-57 -31.5t-37.5 -4q-28 2 -41.5 14t-16 32t4.5 45.5t18.5 54t26.5 57.5t29 57v1q16 28 20.5 43t3.5 23q-1 9 -7 10q-8 3 -23.5 -9.5t-36 -36t-43 -55t-42.5 -65.5t-36.5 -68t-24.5 -63q-3 -9 -4 -18
q-2 -8 -1.5 -16.5t3.5 -13.5z" />
    <glyph glyph-name="i" unicode="i" horiz-adv-x="186" 
d="M211 290q2 0 4 -2q4 -4 1 -12q-40 -102 -77.5 -158t-70 -82.5t-57 -31.5t-37.5 -4q-32 2 -45 17t-13 39t10 54.5t25 63t32 65t31 60.5q7 14 9.5 25t4.5 19q0 3 2 7.5t5 8t8.5 4.5t13.5 -3q24 -12 31 -32t3.5 -44.5t-15.5 -51t-25.5 -51.5t-26.5 -47t-19 -36
q-10 -23 -12.5 -35t-1.5 -18q1 -7 6 -8q20 -3 47 17.5t54.5 55.5t53 80t42.5 90q2 3 6 7t11 3zM109 376q-23 -3 -28 16t-5 36q0 14 3.5 28.5t17.5 20.5q13 6 30.5 7t32.5 -3t24 -13t3 -22q-6 -14 -16.5 -26t-22.5 -22t-22.5 -16t-16.5 -6z" />
    <glyph glyph-name="j" unicode="j" horiz-adv-x="186" 
d="M-154 -50q33 55 63 116.5t53 112.5q27 60 51 118q3 7 5.5 15t4.5 15q3 8 5 16q1 6 7 15t22 2q23 -12 30.5 -31.5t4.5 -43t-14 -49.5t-24 -51l-19 -38t-35 -68q-6 -12 -9 -21q-2 -8 -2 -14.5t8 -6.5q20 -3 47 17.5t55 55.5t53 80t42 90q2 3 6 7t12 3q2 0 4 -2q4 -4 1 -12
q-40 -102 -78 -158t-70.5 -82.5t-57 -31.5t-37.5 -4q-4 0 -7 0.5t-7 0.5q-8 -16 -16 -30t-14 -24q18 0 40.5 1t44 3t38.5 5.5t25 8.5q11 8 12 17t-2 16q-1 2 -1 4q0 4 7 3t16 -3.5t16.5 -9t11 -17.5t-0.5 -29t-19 -28t-36.5 -14.5t-46.5 -5t-49.5 1t-45.5 3.5t-34 3
q-30 -47 -66.5 -93t-78.5 -77.5t-89 -43t-97 10.5q-31 13 -51 35q-17 19 -27.5 49t3.5 74q12 39 37 68q21 25 56 44t90 15q15 -2 30 -6q13 -5 26 -13t22 -24q22 4 44 5t41 0zM-380 -276q25 -4 51 9.5t51.5 39.5t50.5 61t48 73q-26 0 -51 -3v-9t-1 -9q-7 -32 -20 -53
q-11 -18 -31 -27.5t-52 6.5q-13 8 -19 19q-6 10 -6.5 24.5t10.5 34.5t33.5 32t50.5 19q-12 12 -32 15q-21 3 -43 -5t-41.5 -26t-34 -44.5t-21.5 -60.5q-3 -25 1 -44q4 -17 16 -32t40 -20zM-255 -101q-20 -5 -35.5 -13.5t-23.5 -22.5q-3 -5 -4 -9q-2 -10 6 -14
q10 -6 26.5 2.5t24.5 33.5q2 5 3 11t3 12zM109 376q-23 -3 -28 16t-5 36q0 14 3.5 28.5t17.5 20.5q13 6 31 7t33 -3t23.5 -13t2.5 -22q-6 -14 -16.5 -26t-22.5 -22t-22.5 -16t-16.5 -6z" />
    <glyph glyph-name="k" unicode="k" horiz-adv-x="393" 
d="M191 0q-53 1 -81.5 20.5t-42.5 42.5q-16 26 -18 60q-23 -45 -34 -83q-2 -8 -3 -17q-1 -8 -1.5 -16t1.5 -15q1 -4 -1 -4h-3q-15 -1 -25.5 5t-16.5 14q-7 9 -11 19q-6 13 -7 32.5t2 41.5t9 45.5t13 46.5q17 54 42 113q38 79 79 141q18 26 38 50.5t41.5 43t44.5 28.5t46 7
q12 -3 22 -9q8 -6 15.5 -16.5t9.5 -29.5q0 -5 -1 -5h-4q-6 4 -21.5 4t-41 -21t-61.5 -72t-84 -148q-5 -7 -9 -17q-4 -8 -9 -20t-11 -26q16 25 36.5 51.5t42 48t44.5 35t46 13.5q20 1 35 -6q13 -6 22.5 -22t5.5 -48q-1 -7 -6 -24.5t-20.5 -37.5t-44.5 -40t-78 -31
q-25 -6 -59 -9q3 -11 8 -22l11 -22t16 -23t22 -20q11 -8 26.5 -14.5t35.5 -6.5t46.5 21.5t53 56t51 78t41.5 87.5q2 3 6 7t11 3q2 0 4 -2q4 -4 1 -12q-37 -95 -72.5 -150t-66.5 -83t-55.5 -35.5t-39.5 -7.5zM75 170q43 19 71 41.5t44.5 42t24 34t8.5 17.5q3 11 3.5 20
t-5.5 12q-8 3 -24 -9.5t-36.5 -36.5t-43 -55.5t-42.5 -65.5z" />
    <glyph glyph-name="l" unicode="l" horiz-adv-x="210" 
d="M7 0q-23 -2 -35 7.5t-18 21.5q-7 14 -8 32q-2 50 12.5 102.5t32.5 97.5q21 52 48 101q16 31 40.5 70t53.5 72t61.5 54t64.5 17q12 -3 22 -9q8 -6 15.5 -16.5t9.5 -29.5q0 -5 -1 -5h-2h-1h-1q-6 4 -20 4.5t-37.5 -17.5t-56 -61t-75.5 -125q-22 -41 -40 -85
q-16 -38 -32.5 -82.5t-24.5 -86.5q-1 -8 -1 -13t2 -9t8 -3q21 0 47 21.5t53 56t51 78t41 87.5q2 3 6 7t11 3q3 0 5 -2q4 -4 1 -12q-37 -93 -72 -147t-65 -82.5t-54.5 -37t-40.5 -9.5z" />
    <glyph glyph-name="m" unicode="m" horiz-adv-x="532" 
d="M341 261q14 28 18.5 43t4.5 23q-1 9 -6 10q-7 3 -21 -11t-32 -39t-38.5 -58.5t-41.5 -68.5q-17 -26 -29 -52q-11 -22 -19.5 -46t-7.5 -44q0 -5 -1 -9q-2 -9 -11 -9q-41 3 -50.5 29t0 63.5t31 82.5t42.5 86q15 29 20 43.5t4 22.5t-6 10q-6 3 -19.5 -8.5t-30.5 -33
t-37 -50.5t-39.5 -61t-38 -65t-31.5 -62q-3 -8 -6 -15l-4 -14t-1 -12q2 -11 -3 -13.5t-8 -2.5h-5q-32 2 -45 17t-13 39t10.5 54.5t25.5 63t32 65t30 60.5q7 14 10 25t4 19q1 6 7 15t22 2q31 -15 34.5 -43.5t-7.5 -62.5q15 22 31 42t32.5 35t33 23.5t32.5 8.5q22 1 38 -5
q14 -5 22.5 -19t3.5 -42q23 29 48 47.5t48 18.5t39 -8q14 -7 23 -23.5t1 -47.5q-4 -24 -15.5 -51t-25 -52t-26.5 -46.5t-19 -35.5q-10 -23 -12.5 -35.5t-1.5 -18.5q1 -7 6 -8q20 -3 47 17.5t54.5 55.5t53 80t42.5 90q2 3 6 7t11 3q2 0 4 -2q4 -4 1 -12q-40 -102 -78 -158
t-70 -82.5t-56.5 -31.5t-37.5 -4q-43 3 -53 28.5t-0.5 63t31.5 82.5t43 87z" />
    <glyph glyph-name="n" unicode="n" horiz-adv-x="387" 
d="M-10 16q2 -11 -3 -13.5t-8 -2.5h-5q-32 2 -45 17t-13.5 39t10 54.5t25.5 63t32 65t30 60.5q7 14 10 25t5 19q0 3 1.5 7.5t5 8t8.5 4.5t13 -3q19 -9 27.5 -23.5t9 -32.5t-5.5 -38.5t-15 -41.5q18 27 38.5 52t41 44.5t40.5 31t39 11.5q21 0 36 -8q13 -7 22.5 -23.5
t4.5 -47.5q-3 -24 -14.5 -51t-25.5 -52t-27 -46.5t-19 -35.5q-10 -23 -12.5 -35.5t-1.5 -18.5q1 -7 6 -8q20 -3 47 17.5t54.5 55.5t53 80t42.5 90q2 3 6 7t11 3q2 0 4 -2q4 -4 1 -12q-40 -102 -77.5 -158t-70 -82.5t-57 -31.5t-37.5 -4q-43 3 -53 28.5t-0.5 63t31.5 82.5
t43 87q16 26 20.5 41.5t3.5 23.5q-1 9 -7 11q-6 3 -20 -8.5t-32.5 -33t-40 -50.5t-43 -61t-42 -65t-36.5 -62q-3 -5 -6 -11q-5 -12 -5 -30z" />
    <glyph glyph-name="o" unicode="o" horiz-adv-x="363" 
d="M-30 218q20 50 53 86q14 15 31.5 28.5t39 22.5t48 11.5t57.5 -3.5q29 -6 44.5 -20t21.5 -32.5t5.5 -39t-4.5 -39.5q42 8 69.5 25t38.5 27q2 1 6.5 3.5t10.5 2.5q8 0 8 -3.5t-3 -7.5q-24 -24 -60.5 -47t-78.5 -35q-2 -5 -3 -8.5t-2 -5.5q-1 -3 -2 -5q-29 -72 -63.5 -109
t-65.5 -53q-36 -18 -72 -18q-38 2 -62 20t-33.5 47t-5.5 68.5t22 84.5zM212 228q13 54 3 81.5t-31 28.5t-38 -15.5t-19 -43.5q-2 -16 7 -25.5t20 -14.5q13 -6 31 -8q13 -3 27 -3zM182 142q5 12 9.5 23t7.5 22q-25 -2 -49 3q-21 4 -35 11.5t-22.5 17t-12.5 19.5t-5 19
q-8 -15 -18.5 -37t-20 -46t-16 -49t-7.5 -45.5t6 -35.5t25 -19q9 -2 24.5 1t34.5 15t39.5 36t39.5 65z" />
    <glyph glyph-name="p" unicode="p" horiz-adv-x="385" 
d="M-72 -208q1 0 3 -2q0 -4 -4 -4q-17 -10 -30.5 -9.5t-22.5 4.5q-11 4 -19 13q-21 24 -22 61t9.5 78.5t28.5 82.5t35 73q10 18 28 53l36 70q21 40 45 87q7 14 10 25t4 19q1 6 7 15t22 2q29 -14 34 -40t-4 -57q34 41 70 70.5t68 29.5q22 1 38 -7q14 -7 22.5 -23.5t2.5 -48.5
q-4 -24 -15.5 -51t-25 -52t-26.5 -46.5t-19 -35.5q-10 -23 -12.5 -35.5t-1.5 -18.5q1 -7 6 -8q20 -3 47 17.5t54.5 55.5t53 80t42.5 90q2 3 6 7t11 3q2 0 4 -2q4 -4 1 -12q-40 -102 -77.5 -158t-70 -82.5t-57 -31.5t-37.5 -4q-43 3 -53 28.5t-0.5 63t31.5 82.5t43 87
q14 26 18 41.5t5 23.5q0 9 -3 11q-7 3 -21.5 -8t-34 -31.5t-42 -48.5t-45 -59.5t-44 -64t-38.5 -62.5q-38 -64 -60 -119q-9 -23 -16 -46.5t-8.5 -44.5t4 -37t20.5 -24z" />
    <glyph glyph-name="q" unicode="q" horiz-adv-x="405" 
d="M277 268q-2 -15 -9 -23.5t-16.5 -13.5t-18.5 -7t-15 -2q-3 0 -3.5 1.5t0.5 2.5q13 31 14 52t-4 33q-5 14 -16 22q-17 10 -38.5 2t-44 -29.5t-43 -52.5t-33.5 -65q-27 -69 -21 -111.5t31 -47.5q10 -2 23.5 5t28 20.5t29 31.5t25.5 38q9 16 18 35t17 35q0 1 1 2t4 0
q9 -5 19.5 -12.5t18 -17.5t10.5 -22.5t-3 -27.5q-14 -19 -21 -36q-6 -14 -6.5 -27t13.5 -16q13 -2 29.5 10.5t34 34t35 49t32.5 55t27 52.5t19 42q2 3 6 7t12 3q2 0 4 -2q4 -4 1 -12q-40 -102 -75 -158t-63.5 -82.5t-50 -31t-34.5 -4.5q-5 0 -8.5 0.5t-7.5 1.5
q-5 -10 -11.5 -22.5l-13 -25t-11.5 -23t-8 -16.5q-26 -57 -36 -96t-10.5 -63.5t4.5 -36.5t11 -14l1 -1q2 0 2 -2q0 -1 -3 -4q-17 -10 -30 -9.5t-23 4.5q-11 4 -20 14q-21 24 -21 60.5t11.5 77t30 81t35.5 72.5q3 5 6 11l6 12q-14 -10 -31 -16t-37 -5q-38 1 -60 20t-31.5 47
t-8.5 61.5t10 62.5q10 35 32.5 69.5t54 60t72 38t87.5 2.5q21 -5 38 -16q14 -10 25 -28.5t8 -48.5z" />
    <glyph glyph-name="r" unicode="r" horiz-adv-x="271" 
d="M79 261q14 26 19 40.5t5 22.5q0 9 -4 12q-4 2 -8 0.5t-8 -4.5q-4 -4 -9 -8l-13 -13q-5 -5 -10.5 -11t-8.5 -10q-12 -13 -23.5 -17.5t-20.5 -6.5q-11 -2 -20 0q-23 6 -28.5 19.5t-3.5 27.5q2 17 12 36q10 18 21.5 26t21.5 11q11 3 22 1q17 -4 19 -23t-3 -37q5 2 13 9l10 8
q27 19 51 19q11 0 22 -3q13 -5 23 -15q8 -8 14.5 -23t3.5 -38q-4 -24 -15.5 -51t-25 -52t-26.5 -46.5t-19 -35.5q-11 -23 -13 -35.5t-1 -18.5q1 -7 6 -8q20 -3 46.5 17.5t54.5 55.5t53 80t42 90q2 3 6 7t12 3q2 0 4 -2q4 -4 1 -12q-40 -102 -78 -158t-70.5 -82.5
t-56.5 -31.5t-37 -4q-28 2 -41.5 14t-16 32t4 45.5t18 54t26.5 58t29 57.5zM2 314l6 2q2 1 5 2q4 14 4.5 27.5t-4.5 15.5q-4 1 -8 0q-9 -2 -16 -16q-6 -14 -2 -23t15 -8z" />
    <glyph glyph-name="s" unicode="s" horiz-adv-x="287" 
d="M106 149q-9 2 -22 7.5t-24 10.5q-13 6 -27 14q-27 14 -33.5 34.5t-3.5 40.5q4 23 17 47q4 6 12 16.5t20.5 20t31 17t43.5 9.5q39 2 61 -6.5t33 -21.5t12 -28t-2 -26q-7 -22 -20 -38q-11 -14 -30.5 -24t-51.5 -6q-6 1 -7.5 3.5t-1.5 4.5q0 3 2 6q8 9 19 24.5t19.5 31
t11 29t-7.5 19.5q-12 7 -28.5 -3t-31.5 -27.5t-25.5 -38t-10.5 -34.5q0 -12 5 -20.5t13.5 -14t18.5 -9.5t20 -7q80 -28 80 -72q-1 -13 -9.5 -32t-28 -38.5t-51.5 -35.5t-80 -23q-39 -3 -62 2t-35.5 13.5t-16.5 18.5t-4 16q0 8 6 12q7 2 17 -2q6 -3 30 -1t53.5 12.5t57 30
t41.5 50.5q1 3 1 7q0 8 -11 11z" />
    <glyph glyph-name="t" unicode="t" horiz-adv-x="206" 
d="M-57 62q1 24 7 52.5t15 58.5t20 60t23 58q27 65 62 131q-29 -2 -50.5 -7.5t-32.5 -15.5q-3 -3 -4 -3t-2 1q-1 0 -1 4q0 2 1 3q3 12 11 25t23 23.5t38.5 18.5t57.5 10q16 21 33.5 39.5t36 31.5t37.5 20t38 4q11 -2 22 -9q8 -6 16 -17t10 -30q0 -4 -2 -5q-1 0 -1.5 0.5
t-1.5 0.5q-4 3 -11 4.5t-17.5 -1.5t-24 -12t-31.5 -28q51 -3 95.5 -6.5t80.5 -1.5t62.5 12.5t41.5 34.5q0 1 1 2q2 2 4 2q1 -1 3 -4q0 -2 1 -4q0 -11 -3.5 -24t-13 -26t-27.5 -23t-48 -15q-32 -5 -58.5 -6.5t-53.5 -1t-57.5 2t-70.5 2.5q-12 -20 -26 -43q-12 -20 -27 -46
t-29 -55q-16 -32 -31 -68q-13 -31 -26 -69.5t-21 -78.5q-1 -8 -1 -14q0 -13 11 -11q20 0 46.5 21.5t53 56t50.5 78t41 87.5q2 3 6 7t12 3q2 0 4 -2q4 -4 1 -12q-36 -93 -71 -147.5t-65 -83t-54.5 -37t-40.5 -8.5q-26 -1 -39 8.5t-18 21.5q-6 13 -5 31z" />
    <glyph glyph-name="u" unicode="u" horiz-adv-x="395" 
d="M186 229q10 17 19 37.5t16 37.5q8 20 15 40q0 3 2 7.5t5 8t8.5 4.5t13.5 -3q24 -12 31 -32t3.5 -44.5t-15.5 -51t-25.5 -51.5t-26.5 -47t-19 -36q-10 -23 -12.5 -35t-1.5 -18q1 -7 6 -8q20 -3 47 17.5t54.5 55.5t53 80t42.5 90q2 3 6 7t11 3q2 0 4 -2q4 -4 1 -12
q-40 -102 -77.5 -158t-70 -82.5t-57 -31.5t-37.5 -4q-38 2 -49.5 23t-6.5 53q-29 -35 -60.5 -57.5t-63.5 -18.5q-43 4 -59.5 23.5t-18.5 41.5q-4 26 7 57q15 44 39.5 90.5t43.5 86.5q7 14 10 25t4 19q1 6 7 15t22 2q23 -11 30.5 -30.5t4.5 -43t-13.5 -49t-23.5 -50
t-26 -46.5t-20 -37q-9 -18 -13 -33q-3 -13 -0.5 -25t16.5 -16q20 -3 43.5 16t46.5 49t45 66t39 67z" />
    <glyph glyph-name="v" unicode="v" horiz-adv-x="300" 
d="M32 8q-15 -9 -29.5 -8t-24.5 4q-32 9 -43 28.5t-12.5 39.5t3 35.5l4.5 15.5q16 44 40.5 90.5t42.5 86.5q7 14 10 25t5 19q0 3 1.5 7.5t5 8t8.5 4.5t13 -3q23 -12 30.5 -31t4.5 -43t-14 -50t-24 -51t-26 -46.5t-20 -36.5q-8 -14 -12 -26q-4 -11 -4.5 -22t7.5 -19
q3 -4 8.5 -5t15.5 4q35 25 67.5 67t57.5 84q29 48 55 102q19 39 25.5 68.5t-7.5 37.5q-15 8 -31.5 1t-28.5 -17q-2 -3 -5 -4q-5 -4 -10 1q-2 2 -1.5 5.5t2.5 8.5t4 11q6 12 15 23.5t21.5 19.5t28 11t33.5 -1q20 -5 29 -16t12 -22q4 -13 2 -29q-5 -42 -26 -88.5t-49 -88.5
q-27 -41 -58 -79q-26 -32 -59 -66.5t-67 -55.5z" />
    <glyph glyph-name="w" unicode="w" horiz-adv-x="479" 
d="M213 8q-15 -8 -29.5 -7.5t-24.5 3.5q-29 8 -40.5 25t-14.5 35q-26 -30 -55 -48t-59 -14q-29 3 -47 17q-16 12 -23.5 36t9.5 66q16 43 40.5 90t42.5 86q8 14 10.5 25t4.5 19q0 3 1.5 7.5t5 8t8.5 5t13 -2.5q23 -12 30.5 -31t5 -42.5t-13 -49t-24 -50t-26.5 -46.5t-20 -37
q-9 -16 -13 -30q-4 -12 -4 -24t10 -18q17 -3 35 10t36 35.5t35 51t32 57.5q14 30 29 59.5t28 55.5q7 14 9.5 25t4.5 19q0 3 2 7.5t5 8t8.5 4.5t13.5 -3q23 -12 30.5 -31t4.5 -43t-14 -50t-24 -51t-26.5 -46.5t-20.5 -36.5q-8 -16 -12 -29q-4 -11 -4.5 -22.5t7.5 -17.5
q4 -2 10 -2.5t14 3.5q16 10 32.5 27t32 36.5t30 41.5t27.5 43q30 49 58 105q19 39 25.5 68.5t-7.5 37.5q-15 8 -31.5 1t-28.5 -17q-2 -3 -5 -4q-6 -4 -9 1q-4 3 0 14q2 5 4 11q12 25 37 43.5t61 9.5q20 -5 29 -16t12 -22q4 -13 2 -29q-4 -42 -26 -88t-51 -88
q-29 -45 -61 -85q-27 -34 -59.5 -67.5t-61.5 -49.5z" />
    <glyph glyph-name="x" unicode="x" horiz-adv-x="258" 
d="M78 37q21 1 46.5 23t52 56.5t50 77.5t39.5 86q2 3 6 7t12 3q2 0 4 -2q4 -4 1 -12q-40 -102 -78 -158.5t-70.5 -83t-57 -31.5t-37.5 -3q-34 3 -48 24t-18 44q-4 27 1 62q-28 -16 -47.5 -32t-33 -31t-21.5 -27.5t-13 -21.5q-4 -7 -8.5 -13t-16.5 -5q-7 0 -9 3.5t-2 7.5
t1 10q9 27 28 52.5t42.5 47t47 38.5t40.5 28q5 29 10.5 56.5t9.5 52.5q4 30 1 46q-1 6 2.5 17t20.5 8q20 -4 32 -15.5t17.5 -28t6 -37.5t-2.5 -43q15 13 27 24.5t21 19.5q11 10 19 18q30 30 46.5 55.5t5.5 37.5q-11 13 -29 11.5t-33 -6.5q-3 -2 -6 -2q-7 0 -8 4q-2 2 0.5 6
t4.5 8q3 4 7 8q20 19 49.5 28.5t60.5 -10.5q17 -11 22 -24.5t4 -25.5q-1 -14 -8 -29q-17 -38 -53.5 -73.5t-78.5 -65.5q-27 -22 -62 -45q-21 -42 -30 -75q-4 -14 -5 -27t2 -23t11.5 -16t24.5 -4z" />
    <glyph glyph-name="y" unicode="y" horiz-adv-x="394" 
d="M244 156q-19 -31 -30 -57q-5 -11 -9 -21.5t-5.5 -19t-0.5 -14t6 -6.5q20 -3 46.5 17.5t54.5 55.5t53 80t42 90q2 3 6 7t12 3q2 0 4 -2q4 -4 1 -12q-40 -102 -78 -158t-70.5 -82.5t-56.5 -31.5t-37 -4q-4 0 -7.5 0.5t-6.5 0.5q-6 -13 -13.5 -26.5t-15.5 -27.5q18 0 40.5 1
t44 3t38.5 5.5t25 8.5q12 8 12.5 17t-2.5 16q-1 2 -1 4q0 4 8 3q7 -1 15.5 -3.5t16 -9t11 -17.5t-0.5 -29t-19 -28t-36 -14.5t-46.5 -5t-49.5 1t-45.5 3.5t-34.5 2q-29 -47 -66 -92.5t-79 -77t-89 -43t-97 10.5q-31 13 -51 35q-17 19 -27.5 49t3.5 74q12 39 37 68
q21 25 56.5 44t89.5 15q16 -2 31 -6q13 -5 26 -13t21 -24q23 4 44.5 5t40.5 0q16 29 30 56.5t25 51.5q-17 -19 -36 -33q-17 -12 -38.5 -20t-47.5 -2q-36 8 -49.5 27.5t-15.5 39.5t2.5 36l4.5 16q16 44 40.5 90.5t43.5 86.5q7 14 10 25t4 19q1 6 7 15t22 2q23 -11 30.5 -30.5
t4.5 -43t-13.5 -49t-24 -50t-26.5 -46.5t-20 -37q-9 -18 -13 -33q-3 -13 -0.5 -25t17.5 -16q20 -3 43 16t46.5 49t45 66t39.5 67q24 44 37 79q7 18 12 36q1 6 7 15t22 2q27 -14 33 -37.5t-1 -52t-22 -58.5t-30 -57zM-171 -275q25 -4 51 10t52 39.5t50.5 60.5t47.5 73
q-12 0 -25 -1t-26 -3v-8t-1 -9q-7 -32 -20 -53q-11 -18 -31 -28t-52 6q-13 8 -19 19q-6 10 -6.5 25t10.5 35t33.5 32t50.5 19q-11 11 -32 15q-21 3 -43 -5t-41.5 -26t-34 -44.5t-21.5 -60.5q-5 -25 -1 -44q3 -17 16 -32t42 -20zM-46 -100q-20 -5 -35 -13.5t-23 -22.5
q-3 -5 -4 -9q-2 -10 5 -14q10 -6 26.5 2.5t24.5 33.5q4 10 6 23z" />
    <glyph glyph-name="z" unicode="z" horiz-adv-x="330" 
d="M130 1q-2 -18 -5 -31t-5 -20q0 -2 -1 -2q18 0 40.5 1t43.5 3t38 5.5t24 8.5q12 8 12.5 17t-1.5 16q-1 2 -1 4q0 4 7 3t16 -3.5t16.5 -9t11 -17.5t-0.5 -29q-6 -26 -33 -36t-62 -11.5t-71 1.5t-58 5q-5 -13 -16.5 -36t-30 -49t-43.5 -53t-58 -47q-40 -26 -87 -32.5
t-103 15.5q-32 13 -52 35q-18 19 -28 49t4 74q13 39 38 68q21 25 56 44t90 15q15 -2 30 -6q13 -5 26 -13t22 -24q24 4 48 5t44 0q6 11 10 23t6 23q3 12 4 25q4 38 -5 71q-8 31 -19.5 51t-17.5 26q-6 5 -5 10.5t4 10.5q4 5 11 10q40 13 64.5 32t37.5 37q15 21 21 43v1
q3 17 -2 22q-3 4 -9.5 0t-13.5 -10q-8 -7 -17 -18l-13 -13t-22 -17.5t-29.5 -15t-35.5 -5.5q-21 1 -33.5 5.5t-19 11t-9 12.5t-2.5 10q-2 11 0.5 20.5t4.5 17.5q3 9 7 16q11 19 27 29t29 9q13 1 21 -5q7 -5 9 -19.5t-7 -42.5q10 -1 20 1t18 5q10 3 19 7q3 2 8.5 5t10.5 6
q28 19 51 19q19 0 34 -8q13 -7 22 -23t7 -48q-2 -24 -18 -45q-14 -19 -43 -38t-83 -31h-1q7 -5 14 -12q13 -13 22 -31q8 -19 11.5 -39.5t4.5 -40.5q0 -5 3 -8q1 -1 3 -2q20 -3 46.5 17.5t54.5 55.5t53 80t42 90q2 3 6 7t12 3q2 0 4 -2q4 -4 1 -12q-36 -91 -70 -145t-64 -83
t-54.5 -38t-40.5 -10zM15 330q3 12 3 21t-5 11q-4 1 -8 0q-4 -2 -8 -5.5t-7 -11.5q-9 -19 3 -24q2 -2 5.5 -2h6.5q4 0 7 1q0 1 1 4.5t2 5.5zM-193 -275q37 -2 69 12.5t59 40t48.5 59.5t39.5 71q-16 0 -32.5 -1t-32.5 -3q0 -4 -0.5 -8t-1.5 -9q-7 -32 -20 -53
q-11 -18 -31 -28t-51 6q-12 8 -19 19q-6 10 -7 25t11 35q11 20 33.5 32t49.5 19q-9 11 -31 15q-22 3 -44 -5t-41 -26t-34 -44.5t-22 -60.5q-5 -27 -1 -47q3 -18 16 -32.5t42 -16.5zM-68 -100q-20 -5 -35 -13.5t-23 -22.5q-3 -5 -4 -9q-2 -10 5 -14q11 -6 27.5 2.5t24.5 33.5
q4 13 5 23z" />
    <glyph glyph-name="cent" unicode="&#xa2;" horiz-adv-x="763" 
d="M560 444q-25 -14 -44 -19.5t-33 -5.5l-241 -449q28 6 63 20t74.5 40.5t82.5 68t87 102.5q3 5 7 6q2 1 4.5 -1.5t2.5 -11.5q1 -14 -6.5 -29t-11.5 -19q-22 -31 -51.5 -65.5t-66.5 -66t-82 -57.5t-97 -41q-10 -3 -19.5 -4.5t-20.5 -3.5l-14 -27q-5 -8 -13 -8q-5 0 -8 1
q-13 7 -6 21l6 11q-38 0 -72.5 11t-60.5 33.5t-40.5 57t-12.5 81.5t23.5 107t67.5 133q41 65 85 114t87.5 85t85.5 60.5t80 40.5q27 12 56 22q25 8 54.5 14.5t57.5 5.5l15 28q3 5 9 7t11 -1q6 -3 7.5 -9t-0.5 -11l-10 -18q4 -2 7 -3q31 -14 44 -38q6 -10 8 -23.5t-2 -30
t-15.5 -36.5t-32.5 -44q-10 -9 -21 -18q-9 -8 -20.5 -16t-23.5 -14zM618 615q-1 2 -5 4q-3 2 -8 3.5t-12 2.5l-69 -129q24 10 46.5 24.5t37 31t18.5 33t-8 30.5zM453 427q-16 11 -20.5 28.5t-4.5 28.5q0 2 1 4q2 3 8 1q6 -3 18 -5t29 0l73 137q-19 -5 -63 -21.5t-101 -53.5
t-120.5 -100t-121.5 -161q-42 -71 -59.5 -122t-19 -86.5t10 -56.5t28 -33t33 -16.5t26.5 -5.5q12 -2 35 0z" />
    <glyph glyph-name="sterling" unicode="&#xa3;" horiz-adv-x="675" 
d="M697 677q35 -9 53 -30q8 -9 13 -21.5t5 -29.5t-6.5 -38.5t-21.5 -48.5q-7 -10 -16 -20q-8 -9 -17 -19t-19 -18q-38 -30 -64 -35t-42 4t-24 24.5t-11 25.5q-1 2 0 4q2 3 8 2q11 -2 31.5 -0.5t48.5 18.5q22 13 41.5 31t30.5 37t11.5 36t-14.5 29q-5 3 -12 5t-17 1t-24 -6
q-8 -3 -33.5 -17.5t-62 -44.5t-79 -76t-83.5 -112h69q6 0 10.5 -4.5t4.5 -10.5q0 -7 -4.5 -11t-10.5 -4h-86q-5 -8 -9 -16l-8 -16h64q15 0 15 -15q0 -6 -4 -10.5t-11 -4.5h-79q-8 -15 -14.5 -31.5t-13.5 -33.5q-32 -83 -47.5 -146.5t-20.5 -108.5q30 -3 60.5 -3.5t56 3
t44.5 13.5t27 29q0 1 1 2q0 2 2 2q3 -3 3 -5v-4q0 -11 -3 -23.5t-10 -25t-20 -22.5t-34 -15q-40 -9 -94.5 -7t-107 4.5t-94.5 -0.5t-58 -22q-2 -3 -3 -3t-1 1q-1 0 -1 4q0 2 1 3q2 13 8 26.5t17.5 24.5t29.5 18t45 9q14 1 32 -0.5t38 -3.5q2 63 10 116.5t18 93.5
q11 47 25 85q2 5 3.5 10t3.5 10h-67q-6 0 -10.5 4.5t-4.5 10.5q0 7 4.5 11t10.5 4h80q3 8 6.5 16t7.5 16h-55q-15 0 -15 15q0 6 4 10.5t11 4.5h70q48 88 104 144t108 89q34 22 68 38q29 14 63.5 23.5t64.5 4.5z" />
    <glyph glyph-name="dieresis" unicode="&#xa8;" horiz-adv-x="235" 
d="M96 395q-5 -6 -12 -3.5t-15 11.5q-16 21 -27 39q-10 16 -16.5 32.5t-1.5 27.5q4 12 14 19.5t21.5 8t22.5 -6t16 -23.5t6.5 -35t1 -32.5t-3.5 -25t-6 -12.5zM196 360q-5 -6 -12 -3.5t-15 11.5q-16 21 -27 39q-10 16 -16.5 32.5t-1.5 27.5q4 12 14 19.5t21.5 8t22.5 -6
t16 -23.5t6.5 -35t1 -32.5t-3.5 -25t-6 -12.5z" />
    <glyph glyph-name="acute" unicode="&#xb4;" horiz-adv-x="264" 
d="M18 456q3 5 22 15.5t44.5 21t53 19t47.5 11.5q19 3 28.5 -5.5t11 -21t-4.5 -27t-17 -23.5q-12 -11 -40 -14t-57 -3q-34 0 -73 4q-23 5 -15 23z" />
    <glyph glyph-name="Agrave" unicode="&#xc0;" 
d="M127 -132q-34 16 -53.5 41.5t-30 53.5t-13.5 54t-3 43q0 42 9.5 78t23 65t28 51t24.5 35q26 34 55.5 55.5t60.5 33.5t62.5 16.5t61.5 4.5q2 0 24.5 -1t51.5 -8.5t59 -25t47 -50.5q37 -4 81 -9t92 -9q50 55 94.5 109.5t80.5 102t60.5 86.5t34.5 63q4 4 6 7t9 3
q4 0 12.5 -4.5t16 -14.5t13.5 -25t6 -37q0 -42 -30 -110t-79 -176q35 7 60 21.5t38 38.5v1l1 1l1 -2q0 -9 -4.5 -28.5t-19 -41.5t-41 -41.5t-70.5 -28.5q-22 -54 -36.5 -102.5t-14.5 -85.5q0 -32 13.5 -52t45.5 -22q5 0 10 1t11 2.5t12 5.5h1q1 0 1.5 0.5t1.5 0.5q4 0 4 -3
q0 -8 -7 -19t-19.5 -21t-29 -17.5t-35.5 -7.5q-51 0 -73.5 35t-22.5 92q0 42 10.5 90.5t29.5 97.5q-15 1 -27 3q-11 2 -21.5 3.5t-16.5 3.5q-36 -46 -76.5 -93t-83.5 -90t-88 -79.5t-91 -62.5q-8 -4 -24.5 -12.5t-40.5 -17t-53 -15t-60 -6.5q-47 0 -89 19zM982 602
q-25 -46 -75.5 -128.5t-123.5 -182.5q12 -1 24 -1h24q19 40 41.5 82t43.5 83t38.5 79t27.5 68zM368 218q-3 -4 -5 -9q-5 -10 -5 -22q0 -13 11.5 -27t42.5 -14q22 0 38.5 8t28 21.5t17 31t5.5 35.5v9q-48 0 -83.5 -6.5t-49.5 -26.5zM447 116q-10 -3 -19 -4t-17 -1
q-20 0 -34.5 5.5t-24.5 12.5q-11 8 -19 19q-17 23 -17 56q0 20 8.5 40.5t26.5 37t46.5 27t69.5 10.5q-14 10 -33.5 17t-48.5 7q-39 0 -74.5 -14t-65.5 -37q-39 -31 -70 -72q-26 -35 -48 -86t-22 -115q0 -16 2.5 -35.5t12.5 -36t28.5 -27.5t50.5 -11t64.5 11.5t58.5 25.5
q31 16 60 37q64 48 134 114.5t139 140.5q-26 4 -53.5 7t-55.5 5q0 -20 -8 -42q-8 -21 -20 -39q-11 -16 -28 -30.5t-43 -22.5zM1177 723q8 -18 -15 -23q-39 -4 -73 -4q-29 0 -57.5 3t-39.5 14q-11 9 -17 23.5t-4.5 27t10.5 21t29 5.5q19 -3 47 -11.5t53.5 -19t44.5 -21
t22 -15.5z" />
    <glyph glyph-name="Aacute" unicode="&#xc1;" 
d="M127 -132q-34 16 -53.5 41.5t-30 53.5t-13.5 54t-3 43q0 42 9.5 78t23 65t28 51t24.5 35q26 34 55.5 55.5t60.5 33.5t62.5 16.5t61.5 4.5q2 0 24.5 -1t51.5 -8.5t59 -25t47 -50.5q37 -4 81 -9t92 -9q50 55 94.5 109.5t80.5 102t60.5 86.5t34.5 63q4 4 6 7t9 3
q4 0 12.5 -4.5t16 -14.5t13.5 -25t6 -37q0 -42 -30 -110t-79 -176q35 7 60 21.5t38 38.5v1l1 1l1 -2q0 -9 -4.5 -28.5t-19 -41.5t-41 -41.5t-70.5 -28.5q-22 -54 -36.5 -102.5t-14.5 -85.5q0 -32 13.5 -52t45.5 -22q5 0 10 1t11 2.5t12 5.5h1q1 0 1.5 0.5t1.5 0.5q4 0 4 -3
q0 -8 -7 -19t-19.5 -21t-29 -17.5t-35.5 -7.5q-51 0 -73.5 35t-22.5 92q0 42 10.5 90.5t29.5 97.5q-15 1 -27 3q-11 2 -21.5 3.5t-16.5 3.5q-36 -46 -76.5 -93t-83.5 -90t-88 -79.5t-91 -62.5q-8 -4 -24.5 -12.5t-40.5 -17t-53 -15t-60 -6.5q-47 0 -89 19zM982 602
q-25 -46 -75.5 -128.5t-123.5 -182.5q12 -1 24 -1h24q19 40 41.5 82t43.5 83t38.5 79t27.5 68zM368 218q-3 -4 -5 -9q-5 -10 -5 -22q0 -13 11.5 -27t42.5 -14q22 0 38.5 8t28 21.5t17 31t5.5 35.5v9q-48 0 -83.5 -6.5t-49.5 -26.5zM447 116q-10 -3 -19 -4t-17 -1
q-20 0 -34.5 5.5t-24.5 12.5q-11 8 -19 19q-17 23 -17 56q0 20 8.5 40.5t26.5 37t46.5 27t69.5 10.5q-14 10 -33.5 17t-48.5 7q-39 0 -74.5 -14t-65.5 -37q-39 -31 -70 -72q-26 -35 -48 -86t-22 -115q0 -16 2.5 -35.5t12.5 -36t28.5 -27.5t50.5 -11t64.5 11.5t58.5 25.5
q31 16 60 37q64 48 134 114.5t139 140.5q-26 4 -53.5 7t-55.5 5q0 -20 -8 -42q-8 -21 -20 -39q-11 -16 -28 -30.5t-43 -22.5zM975 726q3 5 22 15.5t44.5 21t53 19t47.5 11.5q19 3 28.5 -5.5t11 -21t-4.5 -27t-17 -23.5q-12 -11 -40 -14t-57 -3q-34 0 -73 4q-23 5 -15 23z
" />
    <glyph glyph-name="Acircumflex" unicode="&#xc2;" 
d="M127 -132q-34 16 -53.5 41.5t-30 53.5t-13.5 54t-3 43q0 42 9.5 78t23 65t28 51t24.5 35q26 34 55.5 55.5t60.5 33.5t62.5 16.5t61.5 4.5q2 0 24.5 -1t51.5 -8.5t59 -25t47 -50.5q37 -4 81 -9t92 -9q50 55 94.5 109.5t80.5 102t60.5 86.5t34.5 63q4 4 6 7t9 3
q4 0 12.5 -4.5t16 -14.5t13.5 -25t6 -37q0 -42 -30 -110t-79 -176q35 7 60 21.5t38 38.5v1l1 1l1 -2q0 -9 -4.5 -28.5t-19 -41.5t-41 -41.5t-70.5 -28.5q-22 -54 -36.5 -102.5t-14.5 -85.5q0 -32 13.5 -52t45.5 -22q5 0 10 1t11 2.5t12 5.5h1q1 0 1.5 0.5t1.5 0.5q4 0 4 -3
q0 -8 -7 -19t-19.5 -21t-29 -17.5t-35.5 -7.5q-51 0 -73.5 35t-22.5 92q0 42 10.5 90.5t29.5 97.5q-15 1 -27 3q-11 2 -21.5 3.5t-16.5 3.5q-36 -46 -76.5 -93t-83.5 -90t-88 -79.5t-91 -62.5q-8 -4 -24.5 -12.5t-40.5 -17t-53 -15t-60 -6.5q-47 0 -89 19zM982 602
q-25 -46 -75.5 -128.5t-123.5 -182.5q12 -1 24 -1h24q19 40 41.5 82t43.5 83t38.5 79t27.5 68zM368 218q-3 -4 -5 -9q-5 -10 -5 -22q0 -13 11.5 -27t42.5 -14q22 0 38.5 8t28 21.5t17 31t5.5 35.5v9q-48 0 -83.5 -6.5t-49.5 -26.5zM447 116q-10 -3 -19 -4t-17 -1
q-20 0 -34.5 5.5t-24.5 12.5q-11 8 -19 19q-17 23 -17 56q0 20 8.5 40.5t26.5 37t46.5 27t69.5 10.5q-14 10 -33.5 17t-48.5 7q-39 0 -74.5 -14t-65.5 -37q-39 -31 -70 -72q-26 -35 -48 -86t-22 -115q0 -16 2.5 -35.5t12.5 -36t28.5 -27.5t50.5 -11t64.5 11.5t58.5 25.5
q31 16 60 37q64 48 134 114.5t139 140.5q-26 4 -53.5 7t-55.5 5q0 -20 -8 -42q-8 -21 -20 -39q-11 -16 -28 -30.5t-43 -22.5zM911 760q5 5 34 8t61 3q14 0 26.5 -0.5t22.5 -2.5l19 -6q14 -7 33 -21t35.5 -28.5t28.5 -27.5t13 -17q0 -15 -14 -15q-1 0 -1.5 0.5t-2.5 0.5
q-28 7 -53 15q-21 7 -41 15.5t-29 19.5q-3 -1 -9 -1q-15 0 -35.5 5.5t-38.5 12.5q-22 8 -44 18q-10 6 -10 12q0 4 5 9z" />
    <glyph glyph-name="Atilde" unicode="&#xc3;" 
d="M127 -132q-34 16 -53.5 41.5t-30 53.5t-13.5 54t-3 43q0 42 9.5 78t23 65t28 51t24.5 35q26 34 55.5 55.5t60.5 33.5t62.5 16.5t61.5 4.5q2 0 24.5 -1t51.5 -8.5t59 -25t47 -50.5q37 -4 81 -9t92 -9q50 55 94.5 109.5t80.5 102t60.5 86.5t34.5 63q4 4 6 7t9 3
q4 0 12.5 -4.5t16 -14.5t13.5 -25t6 -37q0 -42 -30 -110t-79 -176q35 7 60 21.5t38 38.5v1l1 1l1 -2q0 -9 -4.5 -28.5t-19 -41.5t-41 -41.5t-70.5 -28.5q-22 -54 -36.5 -102.5t-14.5 -85.5q0 -32 13.5 -52t45.5 -22q5 0 10 1t11 2.5t12 5.5h1q1 0 1.5 0.5t1.5 0.5q4 0 4 -3
q0 -8 -7 -19t-19.5 -21t-29 -17.5t-35.5 -7.5q-51 0 -73.5 35t-22.5 92q0 42 10.5 90.5t29.5 97.5q-15 1 -27 3q-11 2 -21.5 3.5t-16.5 3.5q-36 -46 -76.5 -93t-83.5 -90t-88 -79.5t-91 -62.5q-8 -4 -24.5 -12.5t-40.5 -17t-53 -15t-60 -6.5q-47 0 -89 19zM982 602
q-25 -46 -75.5 -128.5t-123.5 -182.5q12 -1 24 -1h24q19 40 41.5 82t43.5 83t38.5 79t27.5 68zM368 218q-3 -4 -5 -9q-5 -10 -5 -22q0 -13 11.5 -27t42.5 -14q22 0 38.5 8t28 21.5t17 31t5.5 35.5v9q-48 0 -83.5 -6.5t-49.5 -26.5zM447 116q-10 -3 -19 -4t-17 -1
q-20 0 -34.5 5.5t-24.5 12.5q-11 8 -19 19q-17 23 -17 56q0 20 8.5 40.5t26.5 37t46.5 27t69.5 10.5q-14 10 -33.5 17t-48.5 7q-39 0 -74.5 -14t-65.5 -37q-39 -31 -70 -72q-26 -35 -48 -86t-22 -115q0 -16 2.5 -35.5t12.5 -36t28.5 -27.5t50.5 -11t64.5 11.5t58.5 25.5
q31 16 60 37q64 48 134 114.5t139 140.5q-26 4 -53.5 7t-55.5 5q0 -20 -8 -42q-8 -21 -20 -39q-11 -16 -28 -30.5t-43 -22.5zM915 769q-2 6 -2 7v6t6.5 5t22 3t45.5 1q32 0 60 -5q13 -2 37.5 -12t50.5 -34q13 -12 25.5 -17t22 -8t15 -5.5t5.5 -9.5v-6.5t-6.5 -4.5t-22 -3
t-46.5 -1q-29 0 -53 3l-8 2q-17 3 -32 9.5t-25.5 13.5t-16.5 12l-6 5q-11 9 -23 15.5t-22.5 11t-18 7.5t-8.5 5z" />
    <glyph glyph-name="Adieresis" unicode="&#xc4;" 
d="M127 -132q-34 16 -53.5 41.5t-30 53.5t-13.5 54t-3 43q0 42 9.5 78t23 65t28 51t24.5 35q26 34 55.5 55.5t60.5 33.5t62.5 16.5t61.5 4.5q2 0 24.5 -1t51.5 -8.5t59 -25t47 -50.5q37 -4 81 -9t92 -9q50 55 94.5 109.5t80.5 102t60.5 86.5t34.5 63q4 4 6 7t9 3
q4 0 12.5 -4.5t16 -14.5t13.5 -25t6 -37q0 -42 -30 -110t-79 -176q35 7 60 21.5t38 38.5v1l1 1l1 -2q0 -9 -4.5 -28.5t-19 -41.5t-41 -41.5t-70.5 -28.5q-22 -54 -36.5 -102.5t-14.5 -85.5q0 -32 13.5 -52t45.5 -22q5 0 10 1t11 2.5t12 5.5h1q1 0 1.5 0.5t1.5 0.5q4 0 4 -3
q0 -8 -7 -19t-19.5 -21t-29 -17.5t-35.5 -7.5q-51 0 -73.5 35t-22.5 92q0 42 10.5 90.5t29.5 97.5q-15 1 -27 3q-11 2 -21.5 3.5t-16.5 3.5q-36 -46 -76.5 -93t-83.5 -90t-88 -79.5t-91 -62.5q-8 -4 -24.5 -12.5t-40.5 -17t-53 -15t-60 -6.5q-47 0 -89 19zM982 602
q-25 -46 -75.5 -128.5t-123.5 -182.5q12 -1 24 -1h24q19 40 41.5 82t43.5 83t38.5 79t27.5 68zM368 218q-3 -4 -5 -9q-5 -10 -5 -22q0 -13 11.5 -27t42.5 -14q22 0 38.5 8t28 21.5t17 31t5.5 35.5v9q-48 0 -83.5 -6.5t-49.5 -26.5zM447 116q-10 -3 -19 -4t-17 -1
q-20 0 -34.5 5.5t-24.5 12.5q-11 8 -19 19q-17 23 -17 56q0 20 8.5 40.5t26.5 37t46.5 27t69.5 10.5q-14 10 -33.5 17t-48.5 7q-39 0 -74.5 -14t-65.5 -37q-39 -31 -70 -72q-26 -35 -48 -86t-22 -115q0 -16 2.5 -35.5t12.5 -36t28.5 -27.5t50.5 -11t64.5 11.5t58.5 25.5
q31 16 60 37q64 48 134 114.5t139 140.5q-26 4 -53.5 7t-55.5 5q0 -20 -8 -42q-8 -21 -20 -39q-11 -16 -28 -30.5t-43 -22.5zM1035 711q-5 -6 -12 -3.5t-15 11.5q-16 21 -27 39q-10 16 -16.5 32.5t-1.5 27.5q4 12 14 19.5t21.5 8t22.5 -6t16 -23.5t6.5 -35t1 -32.5t-3.5 -25
t-6 -12.5zM1135 676q-5 -6 -12 -3.5t-15 11.5q-16 21 -27 39q-10 16 -16.5 32.5t-1.5 27.5q4 12 14 19.5t21.5 8t22.5 -6t16 -23.5t6.5 -35t1 -32.5t-3.5 -25t-6 -12.5z" />
    <glyph glyph-name="Aring" unicode="&#xc5;" 
d="M127 -132q-34 16 -53.5 41.5t-30 53.5t-13.5 54t-3 43q0 42 9.5 78t23 65t28 51t24.5 35q26 34 55.5 55.5t60.5 33.5t62.5 16.5t61.5 4.5q2 0 24.5 -1t51.5 -8.5t59 -25t47 -50.5q37 -4 81 -9t92 -9q50 55 94.5 109.5t80.5 102t60.5 86.5t34.5 63q4 4 6 7t9 3
q4 0 12.5 -4.5t16 -14.5t13.5 -25t6 -37q0 -42 -30 -110t-79 -176q35 7 60 21.5t38 38.5v1l1 1l1 -2q0 -9 -4.5 -28.5t-19 -41.5t-41 -41.5t-70.5 -28.5q-22 -54 -36.5 -102.5t-14.5 -85.5q0 -32 13.5 -52t45.5 -22q5 0 10 1t11 2.5t12 5.5h1q1 0 1.5 0.5t1.5 0.5q4 0 4 -3
q0 -8 -7 -19t-19.5 -21t-29 -17.5t-35.5 -7.5q-51 0 -73.5 35t-22.5 92q0 42 10.5 90.5t29.5 97.5q-15 1 -27 3q-11 2 -21.5 3.5t-16.5 3.5q-36 -46 -76.5 -93t-83.5 -90t-88 -79.5t-91 -62.5q-8 -4 -24.5 -12.5t-40.5 -17t-53 -15t-60 -6.5q-47 0 -89 19zM982 602
q-25 -46 -75.5 -128.5t-123.5 -182.5q12 -1 24 -1h24q19 40 41.5 82t43.5 83t38.5 79t27.5 68zM368 218q-3 -4 -5 -9q-5 -10 -5 -22q0 -13 11.5 -27t42.5 -14q22 0 38.5 8t28 21.5t17 31t5.5 35.5v9q-48 0 -83.5 -6.5t-49.5 -26.5zM447 116q-10 -3 -19 -4t-17 -1
q-20 0 -34.5 5.5t-24.5 12.5q-11 8 -19 19q-17 23 -17 56q0 20 8.5 40.5t26.5 37t46.5 27t69.5 10.5q-14 10 -33.5 17t-48.5 7q-39 0 -74.5 -14t-65.5 -37q-39 -31 -70 -72q-26 -35 -48 -86t-22 -115q0 -16 2.5 -35.5t12.5 -36t28.5 -27.5t50.5 -11t64.5 11.5t58.5 25.5
q31 16 60 37q64 48 134 114.5t139 140.5q-26 4 -53.5 7t-55.5 5q0 -20 -8 -42q-8 -21 -20 -39q-11 -16 -28 -30.5t-43 -22.5zM1081 673q-5 -6 -12 -3.5t-15 11.5q-14 17 -25 33q-9 14 -15 29t-1 26q4 12 14 19.5t21.5 8t22.5 -6t16 -23.5t6 -33t-0.5 -29t-5 -21.5
t-6.5 -10.5zM1067 707q4 0 8 11.5t1 25.5q-2 7 -7.5 10.5t-12 5t-13 0.5t-9.5 -4q-3 -4 -1 -11t6 -14q4 -9 12 -18q9 -10 16 -6z" />
    <glyph glyph-name="Egrave" unicode="&#xc8;" horiz-adv-x="956" 
d="M311 29q-1 6 -1.5 12t-0.5 11q0 25 7 49t15 42q10 21 22 40q24 31 54 52.5t56 34.5q31 15 62 24q-22 43 -22 82q0 20 5 38.5t13 35.5q-72 -7 -144 -15t-129 -20.5t-92.5 -32t-35.5 -50.5q0 -8 -3 -8q-5 0 -16 6.5t-22 17.5t-19.5 25.5t-8.5 30.5q0 44 42 64.5t113.5 29.5
t165.5 11.5t199 9.5q27 27 57.5 48.5t56.5 36.5q30 18 60 30q12 5 29 11t35.5 11t38 8.5t37.5 3.5q29 0 47 -12t18 -34q0 -21 -18 -44.5t-57.5 -45.5t-102 -40.5t-152.5 -30.5q-20 -28 -27 -52.5t-7 -44.5q0 -14 2 -24t4 -18q3 -9 7 -15q8 1 19 2t21 1h22q8 0 13.5 -4
t8.5 -9t4.5 -10.5t1.5 -9.5q0 -2 -3 -5q-1 -1 -2 -1q-66 -7 -113 -22t-79 -34t-51.5 -40.5t-29.5 -42.5t-13 -39.5t-3 -30.5q0 -3 0.5 -6t0.5 -5l2 -9.5t7.5 -24t16 -32t28.5 -32t44 -24.5t63 -10q24 0 67 8.5t97.5 41t117 95t125.5 170.5l1 1q2 2 4 2t6.5 -5t4.5 -10v-3
q-37 -80 -90 -150q-23 -30 -51 -60t-61.5 -57t-72.5 -49t-83 -35q-39 -11 -78 -11t-77.5 10.5t-70.5 32t-54.5 53.5t-30.5 76zM693 532q-4 -2 -5 -4q40 4 77 11t66 16.5t46.5 21.5t17.5 28q0 4 -2.5 8.5t-12.5 4.5q2 0 -9.5 -1.5t-36 -10t-60 -26t-81.5 -48.5zM1064 727
q8 -18 -15 -23q-39 -4 -73 -4q-29 0 -57.5 3t-39.5 14q-11 9 -17 23.5t-4.5 27t10.5 21t29 5.5q19 -3 47 -11.5t53.5 -19t44.5 -21t22 -15.5z" />
    <glyph glyph-name="Eacute" unicode="&#xc9;" horiz-adv-x="956" 
d="M311 29q-1 6 -1.5 12t-0.5 11q0 25 7 49t15 42q10 21 22 40q24 31 54 52.5t56 34.5q31 15 62 24q-22 43 -22 82q0 20 5 38.5t13 35.5q-72 -7 -144 -15t-129 -20.5t-92.5 -32t-35.5 -50.5q0 -8 -3 -8q-5 0 -16 6.5t-22 17.5t-19.5 25.5t-8.5 30.5q0 44 42 64.5t113.5 29.5
t165.5 11.5t199 9.5q27 27 57.5 48.5t56.5 36.5q30 18 60 30q12 5 29 11t35.5 11t38 8.5t37.5 3.5q29 0 47 -12t18 -34q0 -21 -18 -44.5t-57.5 -45.5t-102 -40.5t-152.5 -30.5q-20 -28 -27 -52.5t-7 -44.5q0 -14 2 -24t4 -18q3 -9 7 -15q8 1 19 2t21 1h22q8 0 13.5 -4
t8.5 -9t4.5 -10.5t1.5 -9.5q0 -2 -3 -5q-1 -1 -2 -1q-66 -7 -113 -22t-79 -34t-51.5 -40.5t-29.5 -42.5t-13 -39.5t-3 -30.5q0 -3 0.5 -6t0.5 -5l2 -9.5t7.5 -24t16 -32t28.5 -32t44 -24.5t63 -10q24 0 67 8.5t97.5 41t117 95t125.5 170.5l1 1q2 2 4 2t6.5 -5t4.5 -10v-3
q-37 -80 -90 -150q-23 -30 -51 -60t-61.5 -57t-72.5 -49t-83 -35q-39 -11 -78 -11t-77.5 10.5t-70.5 32t-54.5 53.5t-30.5 76zM693 532q-4 -2 -5 -4q40 4 77 11t66 16.5t46.5 21.5t17.5 28q0 4 -2.5 8.5t-12.5 4.5q2 0 -9.5 -1.5t-36 -10t-60 -26t-81.5 -48.5zM868 728
q3 5 22 15.5t44.5 21t53 19t47.5 11.5q19 3 28.5 -5.5t11 -21t-4.5 -27t-17 -23.5q-12 -11 -40 -14t-57 -3q-34 0 -73 4q-23 5 -15 23z" />
    <glyph glyph-name="Ecircumflex" unicode="&#xca;" horiz-adv-x="956" 
d="M311 29q-1 6 -1.5 12t-0.5 11q0 25 7 49t15 42q10 21 22 40q24 31 54 52.5t56 34.5q31 15 62 24q-22 43 -22 82q0 20 5 38.5t13 35.5q-72 -7 -144 -15t-129 -20.5t-92.5 -32t-35.5 -50.5q0 -8 -3 -8q-5 0 -16 6.5t-22 17.5t-19.5 25.5t-8.5 30.5q0 44 42 64.5t113.5 29.5
t165.5 11.5t199 9.5q27 27 57.5 48.5t56.5 36.5q30 18 60 30q12 5 29 11t35.5 11t38 8.5t37.5 3.5q29 0 47 -12t18 -34q0 -21 -18 -44.5t-57.5 -45.5t-102 -40.5t-152.5 -30.5q-20 -28 -27 -52.5t-7 -44.5q0 -14 2 -24t4 -18q3 -9 7 -15q8 1 19 2t21 1h22q8 0 13.5 -4
t8.5 -9t4.5 -10.5t1.5 -9.5q0 -2 -3 -5q-1 -1 -2 -1q-66 -7 -113 -22t-79 -34t-51.5 -40.5t-29.5 -42.5t-13 -39.5t-3 -30.5q0 -3 0.5 -6t0.5 -5l2 -9.5t7.5 -24t16 -32t28.5 -32t44 -24.5t63 -10q24 0 67 8.5t97.5 41t117 95t125.5 170.5l1 1q2 2 4 2t6.5 -5t4.5 -10v-3
q-37 -80 -90 -150q-23 -30 -51 -60t-61.5 -57t-72.5 -49t-83 -35q-39 -11 -78 -11t-77.5 10.5t-70.5 32t-54.5 53.5t-30.5 76zM693 532q-4 -2 -5 -4q40 4 77 11t66 16.5t46.5 21.5t17.5 28q0 4 -2.5 8.5t-12.5 4.5q2 0 -9.5 -1.5t-36 -10t-60 -26t-81.5 -48.5zM817 772
q5 5 34 8t61 3q14 0 26.5 -0.5t22.5 -2.5l19 -6q14 -7 33 -21t35.5 -28.5t28.5 -27.5t13 -17q0 -15 -14 -15q-1 0 -1.5 0.5t-2.5 0.5q-28 7 -53 15q-21 7 -41 15.5t-29 19.5q-3 -1 -9 -1q-15 0 -35.5 5.5t-38.5 12.5q-22 8 -44 18q-10 6 -10 12q0 4 5 9z" />
    <glyph glyph-name="Edieresis" unicode="&#xcb;" horiz-adv-x="956" 
d="M311 29q-1 6 -1.5 12t-0.5 11q0 25 7 49t15 42q10 21 22 40q24 31 54 52.5t56 34.5q31 15 62 24q-22 43 -22 82q0 20 5 38.5t13 35.5q-72 -7 -144 -15t-129 -20.5t-92.5 -32t-35.5 -50.5q0 -8 -3 -8q-5 0 -16 6.5t-22 17.5t-19.5 25.5t-8.5 30.5q0 44 42 64.5t113.5 29.5
t165.5 11.5t199 9.5q27 27 57.5 48.5t56.5 36.5q30 18 60 30q12 5 29 11t35.5 11t38 8.5t37.5 3.5q29 0 47 -12t18 -34q0 -21 -18 -44.5t-57.5 -45.5t-102 -40.5t-152.5 -30.5q-20 -28 -27 -52.5t-7 -44.5q0 -14 2 -24t4 -18q3 -9 7 -15q8 1 19 2t21 1h22q8 0 13.5 -4
t8.5 -9t4.5 -10.5t1.5 -9.5q0 -2 -3 -5q-1 -1 -2 -1q-66 -7 -113 -22t-79 -34t-51.5 -40.5t-29.5 -42.5t-13 -39.5t-3 -30.5q0 -3 0.5 -6t0.5 -5l2 -9.5t7.5 -24t16 -32t28.5 -32t44 -24.5t63 -10q24 0 67 8.5t97.5 41t117 95t125.5 170.5l1 1q2 2 4 2t6.5 -5t4.5 -10v-3
q-37 -80 -90 -150q-23 -30 -51 -60t-61.5 -57t-72.5 -49t-83 -35q-39 -11 -78 -11t-77.5 10.5t-70.5 32t-54.5 53.5t-30.5 76zM693 532q-4 -2 -5 -4q40 4 77 11t66 16.5t46.5 21.5t17.5 28q0 4 -2.5 8.5t-12.5 4.5q2 0 -9.5 -1.5t-36 -10t-60 -26t-81.5 -48.5zM951 703
q-5 -6 -12 -3.5t-15 11.5q-16 21 -27 39q-10 16 -16.5 32.5t-1.5 27.5q4 12 14 19.5t21.5 8t22.5 -6t16 -23.5t6.5 -35t1 -32.5t-3.5 -25t-6 -12.5zM1051 668q-5 -6 -12 -3.5t-15 11.5q-16 21 -27 39q-10 16 -16.5 32.5t-1.5 27.5q4 12 14 19.5t21.5 8t22.5 -6t16 -23.5
t6.5 -35t1 -32.5t-3.5 -25t-6 -12.5z" />
    <glyph glyph-name="Igrave" unicode="&#xcc;" horiz-adv-x="596" 
d="M808 670q8 0 22 -1.5t27 -7t22.5 -16t9.5 -29.5q0 1 -1 -13.5t-13.5 -35t-40.5 -40.5t-82 -30q-35 -7 -64 -11t-54 -7q-27 -43 -51.5 -90.5t-45.5 -92.5t-37.5 -83.5t-27.5 -63.5q-9 -20 -22 -50t-31 -62.5t-42 -65t-54.5 -58t-68.5 -41.5t-84 -16h-12t-12 1
q-35 4 -61 17q-23 11 -41.5 33t-18.5 60v8t1 9q5 30 18 54q11 20 33 37t60 17q5 0 11 -0.5t12 -1.5q11 -3 20 -8q8 -5 14.5 -12.5t6.5 -21.5q0 -11 -4 -11q-5 0 -17.5 7t-28.5 7q-8 0 -18 -3t-19 -11t-15 -22.5t-6 -37.5q0 -12 2.5 -26t11 -25.5t23.5 -19.5t40 -8
q43 0 77 31t60 75t46.5 92t36.5 83q9 19 22 51t31 72t41 84t50 86h-47t-68 -2t-76 -7t-70.5 -15.5t-52 -27.5t-20.5 -43q0 -6 2 -14t2 -13q0 -3 -2 -3q-5 0 -11.5 4.5t-12.5 12.5t-10 18t-4 22q0 17 9 35.5t29 36t53.5 31t82.5 19.5q44 5 110 7t135 6q45 55 98.5 92
t118.5 39h8zM850 601q4 7 6 14q1 4 0 6q-4 12 -16 15t-26 1q-16 -2 -36 -8q-24 -9 -48.5 -30.5t-48.5 -52.5q60 7 106 19.5t63 35.5zM989 722q8 -18 -15 -23q-39 -4 -73 -4q-29 0 -57.5 3t-39.5 14q-11 9 -17 23.5t-4.5 27t10.5 21t29 5.5q19 -3 47 -11.5t53.5 -19t44.5 -21
t22 -15.5z" />
    <glyph glyph-name="Iacute" unicode="&#xcd;" horiz-adv-x="596" 
d="M808 670q8 0 22 -1.5t27 -7t22.5 -16t9.5 -29.5q0 1 -1 -13.5t-13.5 -35t-40.5 -40.5t-82 -30q-35 -7 -64 -11t-54 -7q-27 -43 -51.5 -90.5t-45.5 -92.5t-37.5 -83.5t-27.5 -63.5q-9 -20 -22 -50t-31 -62.5t-42 -65t-54.5 -58t-68.5 -41.5t-84 -16h-12t-12 1
q-35 4 -61 17q-23 11 -41.5 33t-18.5 60v8t1 9q5 30 18 54q11 20 33 37t60 17q5 0 11 -0.5t12 -1.5q11 -3 20 -8q8 -5 14.5 -12.5t6.5 -21.5q0 -11 -4 -11q-5 0 -17.5 7t-28.5 7q-8 0 -18 -3t-19 -11t-15 -22.5t-6 -37.5q0 -12 2.5 -26t11 -25.5t23.5 -19.5t40 -8
q43 0 77 31t60 75t46.5 92t36.5 83q9 19 22 51t31 72t41 84t50 86h-47t-68 -2t-76 -7t-70.5 -15.5t-52 -27.5t-20.5 -43q0 -6 2 -14t2 -13q0 -3 -2 -3q-5 0 -11.5 4.5t-12.5 12.5t-10 18t-4 22q0 17 9 35.5t29 36t53.5 31t82.5 19.5q44 5 110 7t135 6q45 55 98.5 92
t118.5 39h8zM850 601q4 7 6 14q1 4 0 6q-4 12 -16 15t-26 1q-16 -2 -36 -8q-24 -9 -48.5 -30.5t-48.5 -52.5q60 7 106 19.5t63 35.5zM798 732q3 5 22 15.5t44.5 21t53 19t47.5 11.5q19 3 28.5 -5.5t11 -21t-4.5 -27t-17 -23.5q-12 -11 -40 -14t-57 -3q-34 0 -73 4
q-23 5 -15 23z" />
    <glyph glyph-name="Icircumflex" unicode="&#xce;" horiz-adv-x="596" 
d="M808 670q8 0 22 -1.5t27 -7t22.5 -16t9.5 -29.5q0 1 -1 -13.5t-13.5 -35t-40.5 -40.5t-82 -30q-35 -7 -64 -11t-54 -7q-27 -43 -51.5 -90.5t-45.5 -92.5t-37.5 -83.5t-27.5 -63.5q-9 -20 -22 -50t-31 -62.5t-42 -65t-54.5 -58t-68.5 -41.5t-84 -16h-12t-12 1
q-35 4 -61 17q-23 11 -41.5 33t-18.5 60v8t1 9q5 30 18 54q11 20 33 37t60 17q5 0 11 -0.5t12 -1.5q11 -3 20 -8q8 -5 14.5 -12.5t6.5 -21.5q0 -11 -4 -11q-5 0 -17.5 7t-28.5 7q-8 0 -18 -3t-19 -11t-15 -22.5t-6 -37.5q0 -12 2.5 -26t11 -25.5t23.5 -19.5t40 -8
q43 0 77 31t60 75t46.5 92t36.5 83q9 19 22 51t31 72t41 84t50 86h-47t-68 -2t-76 -7t-70.5 -15.5t-52 -27.5t-20.5 -43q0 -6 2 -14t2 -13q0 -3 -2 -3q-5 0 -11.5 4.5t-12.5 12.5t-10 18t-4 22q0 17 9 35.5t29 36t53.5 31t82.5 19.5q44 5 110 7t135 6q45 55 98.5 92
t118.5 39h8zM850 601q4 7 6 14q1 4 0 6q-4 12 -16 15t-26 1q-16 -2 -36 -8q-24 -9 -48.5 -30.5t-48.5 -52.5q60 7 106 19.5t63 35.5zM721 780q5 5 34 8t61 3q14 0 26.5 -0.5t22.5 -2.5l19 -6q14 -7 33 -21t35.5 -28.5t28.5 -27.5t13 -17q0 -15 -14 -15q-1 0 -1.5 0.5
t-2.5 0.5q-28 7 -53 15q-21 7 -41 15.5t-29 19.5q-3 -1 -9 -1q-15 0 -35.5 5.5t-38.5 12.5q-22 8 -44 18q-10 6 -10 12q0 4 5 9z" />
    <glyph glyph-name="Idieresis" unicode="&#xcf;" horiz-adv-x="596" 
d="M808 670q8 0 22 -1.5t27 -7t22.5 -16t9.5 -29.5q0 1 -1 -13.5t-13.5 -35t-40.5 -40.5t-82 -30q-35 -7 -64 -11t-54 -7q-27 -43 -51.5 -90.5t-45.5 -92.5t-37.5 -83.5t-27.5 -63.5q-9 -20 -22 -50t-31 -62.5t-42 -65t-54.5 -58t-68.5 -41.5t-84 -16h-12t-12 1
q-35 4 -61 17q-23 11 -41.5 33t-18.5 60v8t1 9q5 30 18 54q11 20 33 37t60 17q5 0 11 -0.5t12 -1.5q11 -3 20 -8q8 -5 14.5 -12.5t6.5 -21.5q0 -11 -4 -11q-5 0 -17.5 7t-28.5 7q-8 0 -18 -3t-19 -11t-15 -22.5t-6 -37.5q0 -12 2.5 -26t11 -25.5t23.5 -19.5t40 -8
q43 0 77 31t60 75t46.5 92t36.5 83q9 19 22 51t31 72t41 84t50 86h-47t-68 -2t-76 -7t-70.5 -15.5t-52 -27.5t-20.5 -43q0 -6 2 -14t2 -13q0 -3 -2 -3q-5 0 -11.5 4.5t-12.5 12.5t-10 18t-4 22q0 17 9 35.5t29 36t53.5 31t82.5 19.5q44 5 110 7t135 6q45 55 98.5 92
t118.5 39h8zM850 601q4 7 6 14q1 4 0 6q-4 12 -16 15t-26 1q-16 -2 -36 -8q-24 -9 -48.5 -30.5t-48.5 -52.5q60 7 106 19.5t63 35.5zM867 708q-5 -6 -12 -3.5t-15 11.5q-16 21 -27 39q-10 16 -16.5 32.5t-1.5 27.5q4 12 14 19.5t21.5 8t22.5 -6t16 -23.5t6.5 -35t1 -32.5
t-3.5 -25t-6 -12.5zM967 673q-5 -6 -12 -3.5t-15 11.5q-16 21 -27 39q-10 16 -16.5 32.5t-1.5 27.5q4 12 14 19.5t21.5 8t22.5 -6t16 -23.5t6.5 -35t1 -32.5t-3.5 -25t-6 -12.5z" />
    <glyph glyph-name="Ntilde" unicode="&#xd1;" horiz-adv-x="1554" 
d="M447 14q-3 24 -3 45q0 36 5.5 64t13.5 48q8 23 19 41q-48 -8 -89.5 -13t-82.5 -5q-49 0 -93 7t-78 22t-54.5 38.5t-22.5 55.5q0 27 10.5 45.5t25 30t30.5 16t27 4.5q5 0 5 -3q0 -1 -2 -3q-1 -1 -1 -2q-11 -11 -16 -18.5t-6 -13t0 -9t1 -5.5q0 -27 20.5 -44t55 -26.5
t80 -13.5t96.5 -4q32 0 65.5 1t66.5 3q31 35 70 62q33 23 79 42.5t103 19.5q40 0 75 -10t61 -28.5t41 -45t15 -60.5q0 -25 -9 -49q0 -3 -7.5 -18.5t-23.5 -33t-39.5 -31.5t-56.5 -14q-28 0 -46 9t-28.5 22.5t-14.5 28.5t-4 28q0 21 5 38q3 9 6 16q-31 -2 -67.5 -7t-75.5 -12
l-14.5 -17t-31 -44.5t-30.5 -63.5t-14 -74q0 -29 10 -53.5t27.5 -42.5t41 -28.5t49.5 -10.5q32 0 63 12t55 27q28 18 52 40q49 44 97 104q42 51 88.5 125.5t84.5 173.5q-17 50 -25.5 87t-8.5 67q0 29 6 50t13.5 35t14.5 21l9 9q7 5 18 11t28 6q22 0 37.5 -9t25.5 -25
t14.5 -36.5t4.5 -43.5q0 -21 -3.5 -43t-9.5 -43q-5 -18 -15 -48.5t-27 -72.5q30 -61 55 -121q10 -26 20 -53.5t18 -55t13 -53.5t6 -48q7 7 16.5 21.5t17.5 28.5q10 17 19 35q18 33 37 76.5t37.5 90t37.5 92.5t38 85q22 46 50 87t58.5 71.5t62.5 48t63 17.5q24 0 40 -8
t26 -20.5t14 -27t4 -27.5q0 -25 -8 -44.5t-12 -19.5q-1 0 -3 2q-1 1 -1 3q-3 16 -10 26t-15.5 15.5t-17 7.5t-14.5 2q-26 0 -53 -24.5t-54 -64.5t-52.5 -90t-49.5 -100.5t-45 -97t-38 -78.5q-21 -39 -41 -74q-18 -30 -38.5 -61.5t-40.5 -50.5q-23 -22 -47.5 -29t-44.5 -7
q-16 0 -29 2.5t-16 5.5q0 1 3 4q9 5 14 12.5t8 13.5q4 7 5 15q1 5 1 18q0 24 -6.5 56.5t-17.5 70t-25 79t-28 83.5q-5 -12 -25.5 -47.5t-52.5 -81t-74.5 -95.5t-91 -92t-101.5 -69t-107 -27q-64 0 -105 17t-65.5 42t-35.5 54.5t-15 53.5zM826 339q-7 1 -13.5 1h-12.5
q-35 0 -62 -8.5t-45 -19.5q-21 -12 -37 -27q14 2 32 4q14 2 33 3t39 1q16 0 34.5 -0.5t34 -6t26 -16.5t10.5 -32q0 -5 -2 -5q-8 0 -15.5 3t-13.5 3q-12 0 -21.5 -3.5t-15.5 -8.5q-7 -5 -12 -11l-6 -8q-5 -8 -5 -21q0 -2 0.5 -9.5t6 -15t17 -13.5t33.5 -6q20 0 34.5 8t24 19
t15 21.5t7.5 15.5q4 8 5.5 18t1.5 21q0 22 -5 36q-6 15 -17 26q-10 10 -27 19t-44 12zM1112 600l-2.5 -0.5t-5 -4.5t-4.5 -12.5t-2 -23.5q0 -20 3.5 -45t10.5 -48q11 35 15.5 58.5t4.5 38.5q0 26 -8 31.5t-12 5.5zM1628 779q-2 6 -2 7v6t6.5 5t22 3t45.5 1q32 0 60 -5
q13 -2 37.5 -12t50.5 -34q13 -12 25.5 -17t22 -8t15 -5.5t5.5 -9.5v-6.5t-6.5 -4.5t-22 -3t-46.5 -1q-29 0 -53 3l-8 2q-17 3 -32 9.5t-25.5 13.5t-16.5 12l-6 5q-11 9 -23 15.5t-22.5 11t-18 7.5t-8.5 5z" />
    <glyph glyph-name="Ograve" unicode="&#xd2;" 
d="M747 1q38 31 68 70.5t52 75.5q26 41 46 85q20 48 33 95.5t13 85.5q0 44 -20 69t-59 25q-21 0 -42.5 -8t-43 -20.5t-41.5 -29t-38 -33.5q-42 -40 -81 -91q-50 -67 -68 -115.5t-18 -82.5q0 -24 6 -40.5t14 -27.5q9 -12 20 -20l8 -8q3 -4 6 -7.5t3 -8.5q0 -6 -4 -8.5
t-9 -2.5q-9 0 -15 3q-4 1 -7 3q-49 26 -67.5 63t-18.5 77q0 36 10.5 70.5t24.5 62.5q15 33 35 62q45 65 88 105t82 62.5t73 30.5t60 8q44 0 72.5 -12.5t45 -33.5t22.5 -47.5t6 -53.5q0 -35 -9 -73.5t-23 -75.5q-45 -112 -109 -199q-27 -37 -61.5 -72.5t-76.5 -63.5t-91 -45
t-106 -17q-45 0 -89 14t-79 42.5t-56.5 71.5t-21.5 101q0 48 17 104.5t57 124.5q40 69 85 118t90.5 84t89 58t80.5 40q-47 -5 -102.5 -14t-112 -18t-109 -15.5t-93.5 -6.5q-48 0 -92 7t-77 22t-53.5 38t-22.5 55q0 27 10 45t24 29.5t30 16.5t27 5q7 0 7 -3q0 -1 -2 -3
q-1 -1 -1 -2q-11 -9 -15.5 -17t-6 -13.5t-0.5 -9.5t1 -6q0 -26 20 -43t54 -27t79.5 -14t95.5 -4q60 0 122 3.5t116 7t95 7t59 3.5q9 0 20 -1t20.5 -4t16 -9t6.5 -15q0 -10 -5 -16t-12 -10q-31 -11 -75.5 -33t-94.5 -61.5t-102.5 -98.5t-100.5 -144q-34 -60 -48 -106.5
t-14 -82.5q0 -49 20.5 -79.5t47 -47.5t52.5 -23.5t37 -7.5q4 -1 17 -1q15 0 37 3t49 12t58 25t65 42zM1128 717q8 -18 -15 -23q-39 -4 -73 -4q-29 0 -57.5 3t-39.5 14q-11 9 -17 23.5t-4.5 27t10.5 21t29 5.5q19 -3 47 -11.5t53.5 -19t44.5 -21t22 -15.5z" />
    <glyph glyph-name="Oacute" unicode="&#xd3;" 
d="M747 1q38 31 68 70.5t52 75.5q26 41 46 85q20 48 33 95.5t13 85.5q0 44 -20 69t-59 25q-21 0 -42.5 -8t-43 -20.5t-41.5 -29t-38 -33.5q-42 -40 -81 -91q-50 -67 -68 -115.5t-18 -82.5q0 -24 6 -40.5t14 -27.5q9 -12 20 -20l8 -8q3 -4 6 -7.5t3 -8.5q0 -6 -4 -8.5
t-9 -2.5q-9 0 -15 3q-4 1 -7 3q-49 26 -67.5 63t-18.5 77q0 36 10.5 70.5t24.5 62.5q15 33 35 62q45 65 88 105t82 62.5t73 30.5t60 8q44 0 72.5 -12.5t45 -33.5t22.5 -47.5t6 -53.5q0 -35 -9 -73.5t-23 -75.5q-45 -112 -109 -199q-27 -37 -61.5 -72.5t-76.5 -63.5t-91 -45
t-106 -17q-45 0 -89 14t-79 42.5t-56.5 71.5t-21.5 101q0 48 17 104.5t57 124.5q40 69 85 118t90.5 84t89 58t80.5 40q-47 -5 -102.5 -14t-112 -18t-109 -15.5t-93.5 -6.5q-48 0 -92 7t-77 22t-53.5 38t-22.5 55q0 27 10 45t24 29.5t30 16.5t27 5q7 0 7 -3q0 -1 -2 -3
q-1 -1 -1 -2q-11 -9 -15.5 -17t-6 -13.5t-0.5 -9.5t1 -6q0 -26 20 -43t54 -27t79.5 -14t95.5 -4q60 0 122 3.5t116 7t95 7t59 3.5q9 0 20 -1t20.5 -4t16 -9t6.5 -15q0 -10 -5 -16t-12 -10q-31 -11 -75.5 -33t-94.5 -61.5t-102.5 -98.5t-100.5 -144q-34 -60 -48 -106.5
t-14 -82.5q0 -49 20.5 -79.5t47 -47.5t52.5 -23.5t37 -7.5q4 -1 17 -1q15 0 37 3t49 12t58 25t65 42zM919 721q3 5 22 15.5t44.5 21t53 19t47.5 11.5q19 3 28.5 -5.5t11 -21t-4.5 -27t-17 -23.5q-12 -11 -40 -14t-57 -3q-34 0 -73 4q-23 5 -15 23z" />
    <glyph glyph-name="Ocircumflex" unicode="&#xd4;" 
d="M747 1q38 31 68 70.5t52 75.5q26 41 46 85q20 48 33 95.5t13 85.5q0 44 -20 69t-59 25q-21 0 -42.5 -8t-43 -20.5t-41.5 -29t-38 -33.5q-42 -40 -81 -91q-50 -67 -68 -115.5t-18 -82.5q0 -24 6 -40.5t14 -27.5q9 -12 20 -20l8 -8q3 -4 6 -7.5t3 -8.5q0 -6 -4 -8.5
t-9 -2.5q-9 0 -15 3q-4 1 -7 3q-49 26 -67.5 63t-18.5 77q0 36 10.5 70.5t24.5 62.5q15 33 35 62q45 65 88 105t82 62.5t73 30.5t60 8q44 0 72.5 -12.5t45 -33.5t22.5 -47.5t6 -53.5q0 -35 -9 -73.5t-23 -75.5q-45 -112 -109 -199q-27 -37 -61.5 -72.5t-76.5 -63.5t-91 -45
t-106 -17q-45 0 -89 14t-79 42.5t-56.5 71.5t-21.5 101q0 48 17 104.5t57 124.5q40 69 85 118t90.5 84t89 58t80.5 40q-47 -5 -102.5 -14t-112 -18t-109 -15.5t-93.5 -6.5q-48 0 -92 7t-77 22t-53.5 38t-22.5 55q0 27 10 45t24 29.5t30 16.5t27 5q7 0 7 -3q0 -1 -2 -3
q-1 -1 -1 -2q-11 -9 -15.5 -17t-6 -13.5t-0.5 -9.5t1 -6q0 -26 20 -43t54 -27t79.5 -14t95.5 -4q60 0 122 3.5t116 7t95 7t59 3.5q9 0 20 -1t20.5 -4t16 -9t6.5 -15q0 -10 -5 -16t-12 -10q-31 -11 -75.5 -33t-94.5 -61.5t-102.5 -98.5t-100.5 -144q-34 -60 -48 -106.5
t-14 -82.5q0 -49 20.5 -79.5t47 -47.5t52.5 -23.5t37 -7.5q4 -1 17 -1q15 0 37 3t49 12t58 25t65 42zM879 746q5 5 34 8t61 3q14 0 26.5 -0.5t22.5 -2.5l19 -6q14 -7 33 -21t35.5 -28.5t28.5 -27.5t13 -17q0 -15 -14 -15q-1 0 -1.5 0.5t-2.5 0.5q-28 7 -53 15
q-21 7 -41 15.5t-29 19.5q-3 -1 -9 -1q-15 0 -35.5 5.5t-38.5 12.5q-22 8 -44 18q-10 6 -10 12q0 4 5 9z" />
    <glyph glyph-name="Otilde" unicode="&#xd5;" 
d="M747 1q38 31 68 70.5t52 75.5q26 41 46 85q20 48 33 95.5t13 85.5q0 44 -20 69t-59 25q-21 0 -42.5 -8t-43 -20.5t-41.5 -29t-38 -33.5q-42 -40 -81 -91q-50 -67 -68 -115.5t-18 -82.5q0 -24 6 -40.5t14 -27.5q9 -12 20 -20l8 -8q3 -4 6 -7.5t3 -8.5q0 -6 -4 -8.5
t-9 -2.5q-9 0 -15 3q-4 1 -7 3q-49 26 -67.5 63t-18.5 77q0 36 10.5 70.5t24.5 62.5q15 33 35 62q45 65 88 105t82 62.5t73 30.5t60 8q44 0 72.5 -12.5t45 -33.5t22.5 -47.5t6 -53.5q0 -35 -9 -73.5t-23 -75.5q-45 -112 -109 -199q-27 -37 -61.5 -72.5t-76.5 -63.5t-91 -45
t-106 -17q-45 0 -89 14t-79 42.5t-56.5 71.5t-21.5 101q0 48 17 104.5t57 124.5q40 69 85 118t90.5 84t89 58t80.5 40q-47 -5 -102.5 -14t-112 -18t-109 -15.5t-93.5 -6.5q-48 0 -92 7t-77 22t-53.5 38t-22.5 55q0 27 10 45t24 29.5t30 16.5t27 5q7 0 7 -3q0 -1 -2 -3
q-1 -1 -1 -2q-11 -9 -15.5 -17t-6 -13.5t-0.5 -9.5t1 -6q0 -26 20 -43t54 -27t79.5 -14t95.5 -4q60 0 122 3.5t116 7t95 7t59 3.5q9 0 20 -1t20.5 -4t16 -9t6.5 -15q0 -10 -5 -16t-12 -10q-31 -11 -75.5 -33t-94.5 -61.5t-102.5 -98.5t-100.5 -144q-34 -60 -48 -106.5
t-14 -82.5q0 -49 20.5 -79.5t47 -47.5t52.5 -23.5t37 -7.5q4 -1 17 -1q15 0 37 3t49 12t58 25t65 42zM872 741q-2 6 -2 7v6t6.5 5t22 3t45.5 1q32 0 60 -5q13 -2 37.5 -12t50.5 -34q13 -12 25.5 -17t22 -8t15 -5.5t5.5 -9.5v-6.5t-6.5 -4.5t-22 -3t-46.5 -1q-29 0 -53 3
l-8 2q-17 3 -32 9.5t-25.5 13.5t-16.5 12l-6 5q-11 9 -23 15.5t-22.5 11t-18 7.5t-8.5 5z" />
    <glyph glyph-name="Odieresis" unicode="&#xd6;" 
d="M747 1q38 31 68 70.5t52 75.5q26 41 46 85q20 48 33 95.5t13 85.5q0 44 -20 69t-59 25q-21 0 -42.5 -8t-43 -20.5t-41.5 -29t-38 -33.5q-42 -40 -81 -91q-50 -67 -68 -115.5t-18 -82.5q0 -24 6 -40.5t14 -27.5q9 -12 20 -20l8 -8q3 -4 6 -7.5t3 -8.5q0 -6 -4 -8.5
t-9 -2.5q-9 0 -15 3q-4 1 -7 3q-49 26 -67.5 63t-18.5 77q0 36 10.5 70.5t24.5 62.5q15 33 35 62q45 65 88 105t82 62.5t73 30.5t60 8q44 0 72.5 -12.5t45 -33.5t22.5 -47.5t6 -53.5q0 -35 -9 -73.5t-23 -75.5q-45 -112 -109 -199q-27 -37 -61.5 -72.5t-76.5 -63.5t-91 -45
t-106 -17q-45 0 -89 14t-79 42.5t-56.5 71.5t-21.5 101q0 48 17 104.5t57 124.5q40 69 85 118t90.5 84t89 58t80.5 40q-47 -5 -102.5 -14t-112 -18t-109 -15.5t-93.5 -6.5q-48 0 -92 7t-77 22t-53.5 38t-22.5 55q0 27 10 45t24 29.5t30 16.5t27 5q7 0 7 -3q0 -1 -2 -3
q-1 -1 -1 -2q-11 -9 -15.5 -17t-6 -13.5t-0.5 -9.5t1 -6q0 -26 20 -43t54 -27t79.5 -14t95.5 -4q60 0 122 3.5t116 7t95 7t59 3.5q9 0 20 -1t20.5 -4t16 -9t6.5 -15q0 -10 -5 -16t-12 -10q-31 -11 -75.5 -33t-94.5 -61.5t-102.5 -98.5t-100.5 -144q-34 -60 -48 -106.5
t-14 -82.5q0 -49 20.5 -79.5t47 -47.5t52.5 -23.5t37 -7.5q4 -1 17 -1q15 0 37 3t49 12t58 25t65 42zM960 634q-5 -6 -12 -3.5t-15 11.5q-16 21 -27 39q-10 16 -16.5 32.5t-1.5 27.5q4 12 14 19.5t21.5 8t22.5 -6t16 -23.5t6.5 -35t1 -32.5t-3.5 -25t-6 -12.5zM1060 599
q-5 -6 -12 -3.5t-15 11.5q-16 21 -27 39q-10 16 -16.5 32.5t-1.5 27.5q4 12 14 19.5t21.5 8t22.5 -6t16 -23.5t6.5 -35t1 -32.5t-3.5 -25t-6 -12.5z" />
    <glyph glyph-name="Ugrave" unicode="&#xd9;" horiz-adv-x="789" 
d="M272 302q9 21 19.5 47t19.5 49q11 27 22 55q10 28 14 50.5t4 39.5q0 29 -8.5 46t-19.5 26q-12 11 -27 14q-7 2 -14.5 3t-15.5 1q-21 0 -42 -8t-37.5 -24t-27 -40.5t-10.5 -56.5q0 -27 12 -48q5 -10 14 -18q8 -7 19.5 -12t28.5 -5h7q3 0 3 -2q0 -4 -6 -12.5t-17 -16.5
t-25.5 -14.5t-30.5 -6.5q-17 0 -33 6.5t-28 21.5q-10 11 -17 25q-7 12 -12 30t-5 41q0 55 21.5 92.5t53 60.5t68.5 32.5t67 9.5q27 0 51.5 -5t43.5 -13q20 -10 36 -28q14 -16 25.5 -42t11.5 -67q0 -20 -3.5 -45t-12.5 -54q-3 -14 -15 -43t-29.5 -66.5t-37 -80t-35.5 -84
t-27 -78.5t-11 -64q0 -29 12 -46.5t43 -17.5q33 0 67 21.5t66 55t61.5 73t53.5 76.5t40 66t23 40q16 27 34 63t35 68q18 38 38 77q23 49 39.5 90.5t16.5 68.5q0 4 -0.5 6.5t-0.5 6.5q0 3 2 3q5 0 13.5 -5t16 -15.5t13 -26t5.5 -35.5q0 -14 -2.5 -30.5t-9.5 -36.5
q-8 -25 -24.5 -61.5t-37 -80t-42 -91t-39 -93t-29 -87.5t-11.5 -74t13.5 -51.5t45.5 -21.5q2 0 12 1t21 7q1 0 2 1q1 0 1.5 0.5t1.5 0.5q2 0 2 -3q0 -8 -7 -19t-19 -21.5t-28.5 -17.5t-34.5 -7q-53 0 -75 34t-22 93v20t2 21q-28 -35 -59.5 -65.5t-64.5 -53.5t-66.5 -36.5
t-66.5 -13.5q-32 0 -54 10.5t-35.5 28t-20 40.5t-6.5 48q0 33 9 71t21.5 75t26.5 70.5t24 57.5zM929 735q8 -18 -15 -23q-39 -4 -73 -4q-29 0 -57.5 3t-39.5 14q-11 9 -17 23.5t-4.5 27t10.5 21t29 5.5q19 -3 47 -11.5t53.5 -19t44.5 -21t22 -15.5z" />
    <glyph glyph-name="Uacute" unicode="&#xda;" horiz-adv-x="789" 
d="M272 302q9 21 19.5 47t19.5 49q11 27 22 55q10 28 14 50.5t4 39.5q0 29 -8.5 46t-19.5 26q-12 11 -27 14q-7 2 -14.5 3t-15.5 1q-21 0 -42 -8t-37.5 -24t-27 -40.5t-10.5 -56.5q0 -27 12 -48q5 -10 14 -18q8 -7 19.5 -12t28.5 -5h7q3 0 3 -2q0 -4 -6 -12.5t-17 -16.5
t-25.5 -14.5t-30.5 -6.5q-17 0 -33 6.5t-28 21.5q-10 11 -17 25q-7 12 -12 30t-5 41q0 55 21.5 92.5t53 60.5t68.5 32.5t67 9.5q27 0 51.5 -5t43.5 -13q20 -10 36 -28q14 -16 25.5 -42t11.5 -67q0 -20 -3.5 -45t-12.5 -54q-3 -14 -15 -43t-29.5 -66.5t-37 -80t-35.5 -84
t-27 -78.5t-11 -64q0 -29 12 -46.5t43 -17.5q33 0 67 21.5t66 55t61.5 73t53.5 76.5t40 66t23 40q16 27 34 63t35 68q18 38 38 77q23 49 39.5 90.5t16.5 68.5q0 4 -0.5 6.5t-0.5 6.5q0 3 2 3q5 0 13.5 -5t16 -15.5t13 -26t5.5 -35.5q0 -14 -2.5 -30.5t-9.5 -36.5
q-8 -25 -24.5 -61.5t-37 -80t-42 -91t-39 -93t-29 -87.5t-11.5 -74t13.5 -51.5t45.5 -21.5q2 0 12 1t21 7q1 0 2 1q1 0 1.5 0.5t1.5 0.5q2 0 2 -3q0 -8 -7 -19t-19 -21.5t-28.5 -17.5t-34.5 -7q-53 0 -75 34t-22 93v20t2 21q-28 -35 -59.5 -65.5t-64.5 -53.5t-66.5 -36.5
t-66.5 -13.5q-32 0 -54 10.5t-35.5 28t-20 40.5t-6.5 48q0 33 9 71t21.5 75t26.5 70.5t24 57.5zM728 726q3 5 22 15.5t44.5 21t53 19t47.5 11.5q19 3 28.5 -5.5t11 -21t-4.5 -27t-17 -23.5q-12 -11 -40 -14t-57 -3q-34 0 -73 4q-23 5 -15 23z" />
    <glyph glyph-name="Ucircumflex" unicode="&#xdb;" horiz-adv-x="789" 
d="M272 302q9 21 19.5 47t19.5 49q11 27 22 55q10 28 14 50.5t4 39.5q0 29 -8.5 46t-19.5 26q-12 11 -27 14q-7 2 -14.5 3t-15.5 1q-21 0 -42 -8t-37.5 -24t-27 -40.5t-10.5 -56.5q0 -27 12 -48q5 -10 14 -18q8 -7 19.5 -12t28.5 -5h7q3 0 3 -2q0 -4 -6 -12.5t-17 -16.5
t-25.5 -14.5t-30.5 -6.5q-17 0 -33 6.5t-28 21.5q-10 11 -17 25q-7 12 -12 30t-5 41q0 55 21.5 92.5t53 60.5t68.5 32.5t67 9.5q27 0 51.5 -5t43.5 -13q20 -10 36 -28q14 -16 25.5 -42t11.5 -67q0 -20 -3.5 -45t-12.5 -54q-3 -14 -15 -43t-29.5 -66.5t-37 -80t-35.5 -84
t-27 -78.5t-11 -64q0 -29 12 -46.5t43 -17.5q33 0 67 21.5t66 55t61.5 73t53.5 76.5t40 66t23 40q16 27 34 63t35 68q18 38 38 77q23 49 39.5 90.5t16.5 68.5q0 4 -0.5 6.5t-0.5 6.5q0 3 2 3q5 0 13.5 -5t16 -15.5t13 -26t5.5 -35.5q0 -14 -2.5 -30.5t-9.5 -36.5
q-8 -25 -24.5 -61.5t-37 -80t-42 -91t-39 -93t-29 -87.5t-11.5 -74t13.5 -51.5t45.5 -21.5q2 0 12 1t21 7q1 0 2 1q1 0 1.5 0.5t1.5 0.5q2 0 2 -3q0 -8 -7 -19t-19 -21.5t-28.5 -17.5t-34.5 -7q-53 0 -75 34t-22 93v20t2 21q-28 -35 -59.5 -65.5t-64.5 -53.5t-66.5 -36.5
t-66.5 -13.5q-32 0 -54 10.5t-35.5 28t-20 40.5t-6.5 48q0 33 9 71t21.5 75t26.5 70.5t24 57.5zM627 800q5 5 34 8t61 3q14 0 26.5 -0.5t22.5 -2.5l19 -6q14 -7 33 -21t35.5 -28.5t28.5 -27.5t13 -17q0 -15 -14 -15q-1 0 -1.5 0.5t-2.5 0.5q-28 7 -53 15q-21 7 -41 15.5
t-29 19.5q-3 -1 -9 -1q-15 0 -35.5 5.5t-38.5 12.5q-22 8 -44 18q-10 6 -10 12q0 4 5 9z" />
    <glyph glyph-name="Udieresis" unicode="&#xdc;" horiz-adv-x="789" 
d="M272 302q9 21 19.5 47t19.5 49q11 27 22 55q10 28 14 50.5t4 39.5q0 29 -8.5 46t-19.5 26q-12 11 -27 14q-7 2 -14.5 3t-15.5 1q-21 0 -42 -8t-37.5 -24t-27 -40.5t-10.5 -56.5q0 -27 12 -48q5 -10 14 -18q8 -7 19.5 -12t28.5 -5h7q3 0 3 -2q0 -4 -6 -12.5t-17 -16.5
t-25.5 -14.5t-30.5 -6.5q-17 0 -33 6.5t-28 21.5q-10 11 -17 25q-7 12 -12 30t-5 41q0 55 21.5 92.5t53 60.5t68.5 32.5t67 9.5q27 0 51.5 -5t43.5 -13q20 -10 36 -28q14 -16 25.5 -42t11.5 -67q0 -20 -3.5 -45t-12.5 -54q-3 -14 -15 -43t-29.5 -66.5t-37 -80t-35.5 -84
t-27 -78.5t-11 -64q0 -29 12 -46.5t43 -17.5q33 0 67 21.5t66 55t61.5 73t53.5 76.5t40 66t23 40q16 27 34 63t35 68q18 38 38 77q23 49 39.5 90.5t16.5 68.5q0 4 -0.5 6.5t-0.5 6.5q0 3 2 3q5 0 13.5 -5t16 -15.5t13 -26t5.5 -35.5q0 -14 -2.5 -30.5t-9.5 -36.5
q-8 -25 -24.5 -61.5t-37 -80t-42 -91t-39 -93t-29 -87.5t-11.5 -74t13.5 -51.5t45.5 -21.5q2 0 12 1t21 7q1 0 2 1q1 0 1.5 0.5t1.5 0.5q2 0 2 -3q0 -8 -7 -19t-19 -21.5t-28.5 -17.5t-34.5 -7q-53 0 -75 34t-22 93v20t2 21q-28 -35 -59.5 -65.5t-64.5 -53.5t-66.5 -36.5
t-66.5 -13.5q-32 0 -54 10.5t-35.5 28t-20 40.5t-6.5 48q0 33 9 71t21.5 75t26.5 70.5t24 57.5zM793 707q-5 -6 -12 -3.5t-15 11.5q-16 21 -27 39q-10 16 -16.5 32.5t-1.5 27.5q4 12 14 19.5t21.5 8t22.5 -6t16 -23.5t6.5 -35t1 -32.5t-3.5 -25t-6 -12.5zM893 672
q-5 -6 -12 -3.5t-15 11.5q-16 21 -27 39q-10 16 -16.5 32.5t-1.5 27.5q4 12 14 19.5t21.5 8t22.5 -6t16 -23.5t6.5 -35t1 -32.5t-3.5 -25t-6 -12.5z" />
    <glyph glyph-name="Yacute" unicode="&#xdd;" horiz-adv-x="776" 
d="M-47 -303q0 45 25 69.5t55 35.5q35 13 80 15q25 2 55 3t64 1q38 0 78.5 -1t82.5 -1q33 47 69.5 108t75.5 142q-27 -35 -58.5 -65t-64.5 -53t-66.5 -36t-66.5 -13q-36 0 -58 12.5t-35 31.5t-17.5 42t-4.5 45q0 33 5 56q2 12 5 23q6 25 15.5 52.5t19.5 53t19.5 47.5
t16.5 37q9 21 20 47t20 49q11 27 21 55t14 50.5t4 39.5q0 29 -8.5 46t-19.5 26q-12 11 -27 14q-7 2 -14.5 3t-15.5 1q-22 0 -43 -8.5t-37.5 -25t-26.5 -40.5t-10 -56q0 -12 2.5 -24t8.5 -23q5 -10 14 -18q8 -7 19.5 -12t28.5 -5h8q3 0 3 -2q0 -5 -6.5 -13t-17.5 -16.5
t-25.5 -14.5t-30.5 -6t-32 6.5t-29 21.5q-10 11 -17 26q-7 13 -12 30.5t-5 40.5q0 55 21.5 92.5t53.5 60t69 32t67 9.5q27 0 51.5 -5t43.5 -13q20 -11 36 -29q14 -16 25.5 -42.5t11.5 -67.5q0 -42 -16 -97q0 -10 -11.5 -37t-29 -63.5t-37.5 -80.5t-37.5 -86.5t-29 -81.5
t-11.5 -67t12.5 -46t43.5 -18q43 0 88 34t88.5 87t84 119t75 130.5t60.5 120t40 88.5q16 37 27 67t11 53q0 4 -0.5 6.5t-0.5 6.5q0 3 2 3q5 0 13.5 -5t16 -15.5t13 -26t5.5 -35.5q0 -14 -2.5 -30.5t-9.5 -36.5q-27 -76 -56 -153q-26 -66 -57.5 -144t-65.5 -147
q-21 -47 -47 -93q-22 -40 -50 -84.5t-57 -79.5q52 1 98 4.5t81 11.5t55.5 22.5t20.5 36.5q0 3 0.5 6.5t-1 8t-6.5 11.5t-17 17q0 3 8 3q9 -1 22.5 -4t26 -11.5t21.5 -24t9 -39.5q0 -34 -20 -56t-53 -34.5t-76 -17.5t-89 -5q-24 0 -58 1t-75 3q-33 -38 -68.5 -70.5t-73 -56.5
t-77 -38t-80.5 -14h-12q-42 3 -75 15q-29 11 -53.5 33.5t-29.5 65.5v10zM146 -381q14 2 34 8t45 21t54.5 40.5t64.5 66.5q-42 2 -85 3.5t-83 1.5q-31 0 -62 0.5t-55.5 -4.5t-40 -19t-15.5 -43q0 -18 9.5 -32.5t25.5 -24t37 -15t43 -5.5h14t14 2zM743 734q3 5 22 15.5
t44.5 21t53 19t47.5 11.5q19 3 28.5 -5.5t11 -21t-4.5 -27t-17 -23.5q-12 -11 -40 -14t-57 -3q-34 0 -73 4q-23 5 -15 23z" />
    <glyph glyph-name="agrave" unicode="&#xe0;" horiz-adv-x="407" 
d="M430 290q2 0 4 -2q4 -4 1 -12q-40 -102 -74.5 -158t-63 -82.5t-50 -31t-34.5 -4.5q-31 1 -41 20t-7 50q-19 -26 -48 -48.5t-68 -21.5q-38 1 -60.5 20t-32 47t-8 61.5t10.5 62.5q10 35 32.5 69.5t54 60t71.5 38t87 2.5q5 -1 11 -3q9 -2 24 -11q16 -11 28.5 -29.5
t7.5 -49.5q-2 -15 -9.5 -23.5t-16.5 -13.5t-18 -7t-14 -2h-1q-3 0 -3 1.5v2.5q2 5 6 15.5t6.5 22.5t2.5 25t-4 24q-5 13 -16 20q-17 10 -39 2t-44.5 -29.5t-43 -52.5t-33.5 -65q-26 -70 -20.5 -112t30.5 -47q10 -2 24 5t28.5 20.5t28.5 31.5t25 38q10 16 19 35t16 35
q0 1 1 2t4 0q9 -5 20 -12.5t18.5 -17.5t10.5 -22.5t-3 -27.5q-2 -5 -4 -8.5t-4 -7.5q-11 -23 -13 -35.5t0 -18.5q2 -7 7 -9q13 -2 29.5 10.5t34 33.5t35 48.5t32.5 55.5t27 53t19 42q2 3 6 7t11 3zM443 456q8 -18 -15 -23q-39 -4 -73 -4q-29 0 -57.5 3t-39.5 14
q-11 9 -17 23.5t-4.5 27t10.5 21t29 5.5q19 -3 47 -11.5t53.5 -19t44.5 -21t22 -15.5z" />
    <glyph glyph-name="aacute" unicode="&#xe1;" horiz-adv-x="407" 
d="M430 290q2 0 4 -2q4 -4 1 -12q-40 -102 -74.5 -158t-63 -82.5t-50 -31t-34.5 -4.5q-31 1 -41 20t-7 50q-19 -26 -48 -48.5t-68 -21.5q-38 1 -60.5 20t-32 47t-8 61.5t10.5 62.5q10 35 32.5 69.5t54 60t71.5 38t87 2.5q5 -1 11 -3q9 -2 24 -11q16 -11 28.5 -29.5
t7.5 -49.5q-2 -15 -9.5 -23.5t-16.5 -13.5t-18 -7t-14 -2h-1q-3 0 -3 1.5v2.5q2 5 6 15.5t6.5 22.5t2.5 25t-4 24q-5 13 -16 20q-17 10 -39 2t-44.5 -29.5t-43 -52.5t-33.5 -65q-26 -70 -20.5 -112t30.5 -47q10 -2 24 5t28.5 20.5t28.5 31.5t25 38q10 16 19 35t16 35
q0 1 1 2t4 0q9 -5 20 -12.5t18.5 -17.5t10.5 -22.5t-3 -27.5q-2 -5 -4 -8.5t-4 -7.5q-11 -23 -13 -35.5t0 -18.5q2 -7 7 -9q13 -2 29.5 10.5t34 33.5t35 48.5t32.5 55.5t27 53t19 42q2 3 6 7t11 3zM243 456q3 5 22 15.5t44.5 21t53 19t47.5 11.5q19 3 28.5 -5.5t11 -21
t-4.5 -27t-17 -23.5q-12 -11 -40 -14t-57 -3q-34 0 -73 4q-23 5 -15 23z" />
    <glyph glyph-name="acircumflex" unicode="&#xe2;" horiz-adv-x="407" 
d="M430 290q2 0 4 -2q4 -4 1 -12q-40 -102 -74.5 -158t-63 -82.5t-50 -31t-34.5 -4.5q-31 1 -41 20t-7 50q-19 -26 -48 -48.5t-68 -21.5q-38 1 -60.5 20t-32 47t-8 61.5t10.5 62.5q10 35 32.5 69.5t54 60t71.5 38t87 2.5q5 -1 11 -3q9 -2 24 -11q16 -11 28.5 -29.5
t7.5 -49.5q-2 -15 -9.5 -23.5t-16.5 -13.5t-18 -7t-14 -2h-1q-3 0 -3 1.5v2.5q2 5 6 15.5t6.5 22.5t2.5 25t-4 24q-5 13 -16 20q-17 10 -39 2t-44.5 -29.5t-43 -52.5t-33.5 -65q-26 -70 -20.5 -112t30.5 -47q10 -2 24 5t28.5 20.5t28.5 31.5t25 38q10 16 19 35t16 35
q0 1 1 2t4 0q9 -5 20 -12.5t18.5 -17.5t10.5 -22.5t-3 -27.5q-2 -5 -4 -8.5t-4 -7.5q-11 -23 -13 -35.5t0 -18.5q2 -7 7 -9q13 -2 29.5 10.5t34 33.5t35 48.5t32.5 55.5t27 53t19 42q2 3 6 7t11 3zM157 502q5 5 34 8t61 3q14 0 26.5 -0.5t22.5 -2.5l19 -6q14 -7 33 -21
t35.5 -28.5t28.5 -27.5t13 -17q0 -15 -14 -15q-1 0 -1.5 0.5t-2.5 0.5q-28 7 -53 15q-21 7 -41 15.5t-29 19.5q-3 -1 -9 -1q-15 0 -35.5 5.5t-38.5 12.5q-22 8 -44 18q-10 6 -10 12q0 4 5 9z" />
    <glyph glyph-name="atilde" unicode="&#xe3;" horiz-adv-x="407" 
d="M430 290q2 0 4 -2q4 -4 1 -12q-40 -102 -74.5 -158t-63 -82.5t-50 -31t-34.5 -4.5q-31 1 -41 20t-7 50q-19 -26 -48 -48.5t-68 -21.5q-38 1 -60.5 20t-32 47t-8 61.5t10.5 62.5q10 35 32.5 69.5t54 60t71.5 38t87 2.5q5 -1 11 -3q9 -2 24 -11q16 -11 28.5 -29.5
t7.5 -49.5q-2 -15 -9.5 -23.5t-16.5 -13.5t-18 -7t-14 -2h-1q-3 0 -3 1.5v2.5q2 5 6 15.5t6.5 22.5t2.5 25t-4 24q-5 13 -16 20q-17 10 -39 2t-44.5 -29.5t-43 -52.5t-33.5 -65q-26 -70 -20.5 -112t30.5 -47q10 -2 24 5t28.5 20.5t28.5 31.5t25 38q10 16 19 35t16 35
q0 1 1 2t4 0q9 -5 20 -12.5t18.5 -17.5t10.5 -22.5t-3 -27.5q-2 -5 -4 -8.5t-4 -7.5q-11 -23 -13 -35.5t0 -18.5q2 -7 7 -9q13 -2 29.5 10.5t34 33.5t35 48.5t32.5 55.5t27 53t19 42q2 3 6 7t11 3zM130 486q-2 6 -2 7v6t6.5 5t22 3t45.5 1q32 0 60 -5q13 -2 37.5 -12
t50.5 -34q13 -12 25.5 -17t22 -8t15 -5.5t5.5 -9.5v-6.5t-6.5 -4.5t-22 -3t-46.5 -1q-29 0 -53 3l-8 2q-17 3 -32 9.5t-25.5 13.5t-16.5 12l-6 5q-11 9 -23 15.5t-22.5 11t-18 7.5t-8.5 5z" />
    <glyph glyph-name="adieresis" unicode="&#xe4;" horiz-adv-x="407" 
d="M430 290q2 0 4 -2q4 -4 1 -12q-40 -102 -74.5 -158t-63 -82.5t-50 -31t-34.5 -4.5q-31 1 -41 20t-7 50q-19 -26 -48 -48.5t-68 -21.5q-38 1 -60.5 20t-32 47t-8 61.5t10.5 62.5q10 35 32.5 69.5t54 60t71.5 38t87 2.5q5 -1 11 -3q9 -2 24 -11q16 -11 28.5 -29.5
t7.5 -49.5q-2 -15 -9.5 -23.5t-16.5 -13.5t-18 -7t-14 -2h-1q-3 0 -3 1.5v2.5q2 5 6 15.5t6.5 22.5t2.5 25t-4 24q-5 13 -16 20q-17 10 -39 2t-44.5 -29.5t-43 -52.5t-33.5 -65q-26 -70 -20.5 -112t30.5 -47q10 -2 24 5t28.5 20.5t28.5 31.5t25 38q10 16 19 35t16 35
q0 1 1 2t4 0q9 -5 20 -12.5t18.5 -17.5t10.5 -22.5t-3 -27.5q-2 -5 -4 -8.5t-4 -7.5q-11 -23 -13 -35.5t0 -18.5q2 -7 7 -9q13 -2 29.5 10.5t34 33.5t35 48.5t32.5 55.5t27 53t19 42q2 3 6 7t11 3zM219 395q-5 -6 -12 -3.5t-15 11.5q-16 21 -27 39q-10 16 -16.5 32.5
t-1.5 27.5q4 12 14 19.5t21.5 8t22.5 -6t16 -23.5t6.5 -35t1 -32.5t-3.5 -25t-6 -12.5zM319 360q-5 -6 -12 -3.5t-15 11.5q-16 21 -27 39q-10 16 -16.5 32.5t-1.5 27.5q4 12 14 19.5t21.5 8t22.5 -6t16 -23.5t6.5 -35t1 -32.5t-3.5 -25t-6 -12.5z" />
    <glyph glyph-name="aring" unicode="&#xe5;" horiz-adv-x="407" 
d="M430 290q2 0 4 -2q4 -4 1 -12q-40 -102 -74.5 -158t-63 -82.5t-50 -31t-34.5 -4.5q-31 1 -41 20t-7 50q-19 -26 -48 -48.5t-68 -21.5q-38 1 -60.5 20t-32 47t-8 61.5t10.5 62.5q10 35 32.5 69.5t54 60t71.5 38t87 2.5q5 -1 11 -3q9 -2 24 -11q16 -11 28.5 -29.5
t7.5 -49.5q-2 -15 -9.5 -23.5t-16.5 -13.5t-18 -7t-14 -2h-1q-3 0 -3 1.5v2.5q2 5 6 15.5t6.5 22.5t2.5 25t-4 24q-5 13 -16 20q-17 10 -39 2t-44.5 -29.5t-43 -52.5t-33.5 -65q-26 -70 -20.5 -112t30.5 -47q10 -2 24 5t28.5 20.5t28.5 31.5t25 38q10 16 19 35t16 35
q0 1 1 2t4 0q9 -5 20 -12.5t18.5 -17.5t10.5 -22.5t-3 -27.5q-2 -5 -4 -8.5t-4 -7.5q-11 -23 -13 -35.5t0 -18.5q2 -7 7 -9q13 -2 29.5 10.5t34 33.5t35 48.5t32.5 55.5t27 53t19 42q2 3 6 7t11 3zM293 379q-5 -6 -12 -3.5t-15 11.5q-14 17 -25 33q-9 14 -15 29t-1 26
q4 12 14 19.5t21.5 8t22.5 -6t16 -23.5t6 -33t-0.5 -29t-5 -21.5t-6.5 -10.5zM279 413q4 0 8 11.5t1 25.5q-2 7 -7.5 10.5t-12 5t-13 0.5t-9.5 -4q-3 -4 -1 -11t6 -14q4 -9 12 -18q9 -10 16 -6z" />
    <glyph glyph-name="egrave" unicode="&#xe8;" horiz-adv-x="324" 
d="M72 -4q-31 0 -51 8t-32 17q-14 11 -23 25q-17 29 -17.5 69.5t10.5 75.5q9 30 26.5 60t43 54.5t57 41t69.5 18.5q29 3 50 -4q18 -7 30.5 -25t4.5 -57q-5 -19 -14 -37q-8 -16 -20 -32.5t-31 -29.5q-20 -13 -40.5 -21.5t-40 -13.5t-35.5 -7.5t-26 -2.5q-5 -27 -3.5 -47
t7.5 -34q4 -10 15 -17q8 -6 23 -10t38 1q16 4 34 14q15 8 34 22.5t37 37.5q16 19 33 44t33 50t29 48t21 38q2 2 6.5 6t12.5 2q2 -1 4 -3q3 -3 -1 -12q-38 -72 -68.5 -118.5t-53.5 -74.5q-19 -24 -44 -42q-21 -16 -51 -29.5t-67 -14.5zM48 188q-2 -7 -5 -16.5t-5 -15.5
q51 14 81.5 36t47 43.5t21.5 39.5t6 24v3q2 14 0 22l-3 9v1q-1 2 -5 4h-6q-8 0 -15.5 -4t-9.5 -6q-29 -17 -59 -55.5t-48 -84.5zM344 456q8 -18 -15 -23q-39 -4 -73 -4q-29 0 -57.5 3t-39.5 14q-11 9 -17 23.5t-4.5 27t10.5 21t29 5.5q19 -3 47 -11.5t53.5 -19t44.5 -21
t22 -15.5z" />
    <glyph glyph-name="eacute" unicode="&#xe9;" horiz-adv-x="324" 
d="M72 -4q-31 0 -51 8t-32 17q-14 11 -23 25q-17 29 -17.5 69.5t10.5 75.5q9 30 26.5 60t43 54.5t57 41t69.5 18.5q29 3 50 -4q18 -7 30.5 -25t4.5 -57q-5 -19 -14 -37q-8 -16 -20 -32.5t-31 -29.5q-20 -13 -40.5 -21.5t-40 -13.5t-35.5 -7.5t-26 -2.5q-5 -27 -3.5 -47
t7.5 -34q4 -10 15 -17q8 -6 23 -10t38 1q16 4 34 14q15 8 34 22.5t37 37.5q16 19 33 44t33 50t29 48t21 38q2 2 6.5 6t12.5 2q2 -1 4 -3q3 -3 -1 -12q-38 -72 -68.5 -118.5t-53.5 -74.5q-19 -24 -44 -42q-21 -16 -51 -29.5t-67 -14.5zM48 188q-2 -7 -5 -16.5t-5 -15.5
q51 14 81.5 36t47 43.5t21.5 39.5t6 24v3q2 14 0 22l-3 9v1q-1 2 -5 4h-6q-8 0 -15.5 -4t-9.5 -6q-29 -17 -59 -55.5t-48 -84.5zM157 456q3 5 22 15.5t44.5 21t53 19t47.5 11.5q19 3 28.5 -5.5t11 -21t-4.5 -27t-17 -23.5q-12 -11 -40 -14t-57 -3q-34 0 -73 4q-23 5 -15 23z
" />
    <glyph glyph-name="ecircumflex" unicode="&#xea;" horiz-adv-x="324" 
d="M72 -4q-31 0 -51 8t-32 17q-14 11 -23 25q-17 29 -17.5 69.5t10.5 75.5q9 30 26.5 60t43 54.5t57 41t69.5 18.5q29 3 50 -4q18 -7 30.5 -25t4.5 -57q-5 -19 -14 -37q-8 -16 -20 -32.5t-31 -29.5q-20 -13 -40.5 -21.5t-40 -13.5t-35.5 -7.5t-26 -2.5q-5 -27 -3.5 -47
t7.5 -34q4 -10 15 -17q8 -6 23 -10t38 1q16 4 34 14q15 8 34 22.5t37 37.5q16 19 33 44t33 50t29 48t21 38q2 2 6.5 6t12.5 2q2 -1 4 -3q3 -3 -1 -12q-38 -72 -68.5 -118.5t-53.5 -74.5q-19 -24 -44 -42q-21 -16 -51 -29.5t-67 -14.5zM48 188q-2 -7 -5 -16.5t-5 -15.5
q51 14 81.5 36t47 43.5t21.5 39.5t6 24v3q2 14 0 22l-3 9v1q-1 2 -5 4h-6q-8 0 -15.5 -4t-9.5 -6q-29 -17 -59 -55.5t-48 -84.5zM90 502q5 5 34 8t61 3q14 0 26.5 -0.5t22.5 -2.5l19 -6q14 -7 33 -21t35.5 -28.5t28.5 -27.5t13 -17q0 -15 -14 -15q-1 0 -1.5 0.5t-2.5 0.5
q-28 7 -53 15q-21 7 -41 15.5t-29 19.5q-3 -1 -9 -1q-15 0 -35.5 5.5t-38.5 12.5q-22 8 -44 18q-10 6 -10 12q0 4 5 9z" />
    <glyph glyph-name="edieresis" unicode="&#xeb;" horiz-adv-x="324" 
d="M72 -4q-31 0 -51 8t-32 17q-14 11 -23 25q-17 29 -17.5 69.5t10.5 75.5q9 30 26.5 60t43 54.5t57 41t69.5 18.5q29 3 50 -4q18 -7 30.5 -25t4.5 -57q-5 -19 -14 -37q-8 -16 -20 -32.5t-31 -29.5q-20 -13 -40.5 -21.5t-40 -13.5t-35.5 -7.5t-26 -2.5q-5 -27 -3.5 -47
t7.5 -34q4 -10 15 -17q8 -6 23 -10t38 1q16 4 34 14q15 8 34 22.5t37 37.5q16 19 33 44t33 50t29 48t21 38q2 2 6.5 6t12.5 2q2 -1 4 -3q3 -3 -1 -12q-38 -72 -68.5 -118.5t-53.5 -74.5q-19 -24 -44 -42q-21 -16 -51 -29.5t-67 -14.5zM48 188q-2 -7 -5 -16.5t-5 -15.5
q51 14 81.5 36t47 43.5t21.5 39.5t6 24v3q2 14 0 22l-3 9v1q-1 2 -5 4h-6q-8 0 -15.5 -4t-9.5 -6q-29 -17 -59 -55.5t-48 -84.5zM214 395q-5 -6 -12 -3.5t-15 11.5q-16 21 -27 39q-10 16 -16.5 32.5t-1.5 27.5q4 12 14 19.5t21.5 8t22.5 -6t16 -23.5t6.5 -35t1 -32.5
t-3.5 -25t-6 -12.5zM314 360q-5 -6 -12 -3.5t-15 11.5q-16 21 -27 39q-10 16 -16.5 32.5t-1.5 27.5q4 12 14 19.5t21.5 8t22.5 -6t16 -23.5t6.5 -35t1 -32.5t-3.5 -25t-6 -12.5z" />
    <glyph glyph-name="igrave" unicode="&#xec;" horiz-adv-x="186" 
d="M211 290q2 0 4 -2q4 -4 1 -12q-40 -102 -77.5 -158t-70 -82.5t-57 -31.5t-37.5 -4q-32 2 -45 17t-13 39t10 54.5t25 63t32 65t31 60.5q7 14 9.5 25t4.5 19q0 3 2 7.5t5 8t8.5 4.5t13.5 -3q24 -12 31 -32t3.5 -44.5t-15.5 -51t-25.5 -51.5t-26.5 -47t-19 -36
q-10 -23 -12.5 -35t-1.5 -18q1 -7 6 -8q20 -3 47 17.5t54.5 55.5t53 80t42.5 90q2 3 6 7t11 3zM224 456q8 -18 -15 -23q-39 -4 -73 -4q-29 0 -57.5 3t-39.5 14q-11 9 -17 23.5t-4.5 27t10.5 21t29 5.5q19 -3 47 -11.5t53.5 -19t44.5 -21t22 -15.5z" />
    <glyph glyph-name="iacute" unicode="&#xed;" horiz-adv-x="186" 
d="M211 290q2 0 4 -2q4 -4 1 -12q-40 -102 -77.5 -158t-70 -82.5t-57 -31.5t-37.5 -4q-32 2 -45 17t-13 39t10 54.5t25 63t32 65t31 60.5q7 14 9.5 25t4.5 19q0 3 2 7.5t5 8t8.5 4.5t13.5 -3q24 -12 31 -32t3.5 -44.5t-15.5 -51t-25.5 -51.5t-26.5 -47t-19 -36
q-10 -23 -12.5 -35t-1.5 -18q1 -7 6 -8q20 -3 47 17.5t54.5 55.5t53 80t42.5 90q2 3 6 7t11 3zM15 456q3 5 22 15.5t44.5 21t53 19t47.5 11.5q19 3 28.5 -5.5t11 -21t-4.5 -27t-17 -23.5q-12 -11 -40 -14t-57 -3q-34 0 -73 4q-23 5 -15 23z" />
    <glyph glyph-name="icircumflex" unicode="&#xee;" horiz-adv-x="186" 
d="M211 290q2 0 4 -2q4 -4 1 -12q-40 -102 -77.5 -158t-70 -82.5t-57 -31.5t-37.5 -4q-32 2 -45 17t-13 39t10 54.5t25 63t32 65t31 60.5q7 14 9.5 25t4.5 19q0 3 2 7.5t5 8t8.5 4.5t13.5 -3q24 -12 31 -32t3.5 -44.5t-15.5 -51t-25.5 -51.5t-26.5 -47t-19 -36
q-10 -23 -12.5 -35t-1.5 -18q1 -7 6 -8q20 -3 47 17.5t54.5 55.5t53 80t42.5 90q2 3 6 7t11 3zM-23 502q5 5 34 8t61 3q14 0 26.5 -0.5t22.5 -2.5l19 -6q14 -7 33 -21t35.5 -28.5t28.5 -27.5t13 -17q0 -15 -14 -15q-1 0 -1.5 0.5t-2.5 0.5q-28 7 -53 15q-21 7 -41 15.5
t-29 19.5q-3 -1 -9 -1q-15 0 -35.5 5.5t-38.5 12.5q-22 8 -44 18q-10 6 -10 12q0 4 5 9z" />
    <glyph glyph-name="idieresis" unicode="&#xef;" horiz-adv-x="186" 
d="M211 290q2 0 4 -2q4 -4 1 -12q-40 -102 -77.5 -158t-70 -82.5t-57 -31.5t-37.5 -4q-32 2 -45 17t-13 39t10 54.5t25 63t32 65t31 60.5q7 14 9.5 25t4.5 19q0 3 2 7.5t5 8t8.5 4.5t13.5 -3q24 -12 31 -32t3.5 -44.5t-15.5 -51t-25.5 -51.5t-26.5 -47t-19 -36
q-10 -23 -12.5 -35t-1.5 -18q1 -7 6 -8q20 -3 47 17.5t54.5 55.5t53 80t42.5 90q2 3 6 7t11 3zM88 395q-5 -6 -12 -3.5t-15 11.5q-16 21 -27 39q-10 16 -16.5 32.5t-1.5 27.5q4 12 14 19.5t21.5 8t22.5 -6t16 -23.5t6.5 -35t1 -32.5t-3.5 -25t-6 -12.5zM188 360
q-5 -6 -12 -3.5t-15 11.5q-16 21 -27 39q-10 16 -16.5 32.5t-1.5 27.5q4 12 14 19.5t21.5 8t22.5 -6t16 -23.5t6.5 -35t1 -32.5t-3.5 -25t-6 -12.5z" />
    <glyph glyph-name="ntilde" unicode="&#xf1;" horiz-adv-x="387" 
d="M-10 16q2 -11 -3 -13.5t-8 -2.5h-5q-32 2 -45 17t-13.5 39t10 54.5t25.5 63t32 65t30 60.5q7 14 10 25t5 19q0 3 1.5 7.5t5 8t8.5 4.5t13 -3q19 -9 27.5 -23.5t9 -32.5t-5.5 -38.5t-15 -41.5q18 27 38.5 52t41 44.5t40.5 31t39 11.5q21 0 36 -8q13 -7 22.5 -23.5
t4.5 -47.5q-3 -24 -14.5 -51t-25.5 -52t-27 -46.5t-19 -35.5q-10 -23 -12.5 -35.5t-1.5 -18.5q1 -7 6 -8q20 -3 47 17.5t54.5 55.5t53 80t42.5 90q2 3 6 7t11 3q2 0 4 -2q4 -4 1 -12q-40 -102 -77.5 -158t-70 -82.5t-57 -31.5t-37.5 -4q-43 3 -53 28.5t-0.5 63t31.5 82.5
t43 87q16 26 20.5 41.5t3.5 23.5q-1 9 -7 11q-6 3 -20 -8.5t-32.5 -33t-40 -50.5t-43 -61t-42 -65t-36.5 -62q-3 -5 -6 -11q-5 -12 -5 -30zM73 486q-2 6 -2 7v6t6.5 5t22 3t45.5 1q32 0 60 -5q13 -2 37.5 -12t50.5 -34q13 -12 25.5 -17t22 -8t15 -5.5t5.5 -9.5v-6.5
t-6.5 -4.5t-22 -3t-46.5 -1q-29 0 -53 3l-8 2q-17 3 -32 9.5t-25.5 13.5t-16.5 12l-6 5q-11 9 -23 15.5t-22.5 11t-18 7.5t-8.5 5z" />
    <glyph glyph-name="ograve" unicode="&#xf2;" horiz-adv-x="363" 
d="M-30 218q20 50 53 86q14 15 31.5 28.5t39 22.5t48 11.5t57.5 -3.5q29 -6 44.5 -20t21.5 -32.5t5.5 -39t-4.5 -39.5q42 8 69.5 25t38.5 27q2 1 6.5 3.5t10.5 2.5q8 0 8 -3.5t-3 -7.5q-24 -24 -60.5 -47t-78.5 -35q-2 -5 -3 -8.5t-2 -5.5q-1 -3 -2 -5q-29 -72 -63.5 -109
t-65.5 -53q-36 -18 -72 -18q-38 2 -62 20t-33.5 47t-5.5 68.5t22 84.5zM212 228q13 54 3 81.5t-31 28.5t-38 -15.5t-19 -43.5q-2 -16 7 -25.5t20 -14.5q13 -6 31 -8q13 -3 27 -3zM182 142q5 12 9.5 23t7.5 22q-25 -2 -49 3q-21 4 -35 11.5t-22.5 17t-12.5 19.5t-5 19
q-8 -15 -18.5 -37t-20 -46t-16 -49t-7.5 -45.5t6 -35.5t25 -19q9 -2 24.5 1t34.5 15t39.5 36t39.5 65zM345 456q8 -18 -15 -23q-39 -4 -73 -4q-29 0 -57.5 3t-39.5 14q-11 9 -17 23.5t-4.5 27t10.5 21t29 5.5q19 -3 47 -11.5t53.5 -19t44.5 -21t22 -15.5z" />
    <glyph glyph-name="oacute" unicode="&#xf3;" horiz-adv-x="363" 
d="M-30 218q20 50 53 86q14 15 31.5 28.5t39 22.5t48 11.5t57.5 -3.5q29 -6 44.5 -20t21.5 -32.5t5.5 -39t-4.5 -39.5q42 8 69.5 25t38.5 27q2 1 6.5 3.5t10.5 2.5q8 0 8 -3.5t-3 -7.5q-24 -24 -60.5 -47t-78.5 -35q-2 -5 -3 -8.5t-2 -5.5q-1 -3 -2 -5q-29 -72 -63.5 -109
t-65.5 -53q-36 -18 -72 -18q-38 2 -62 20t-33.5 47t-5.5 68.5t22 84.5zM212 228q13 54 3 81.5t-31 28.5t-38 -15.5t-19 -43.5q-2 -16 7 -25.5t20 -14.5q13 -6 31 -8q13 -3 27 -3zM182 142q5 12 9.5 23t7.5 22q-25 -2 -49 3q-21 4 -35 11.5t-22.5 17t-12.5 19.5t-5 19
q-8 -15 -18.5 -37t-20 -46t-16 -49t-7.5 -45.5t6 -35.5t25 -19q9 -2 24.5 1t34.5 15t39.5 36t39.5 65zM163 456q3 5 22 15.5t44.5 21t53 19t47.5 11.5q19 3 28.5 -5.5t11 -21t-4.5 -27t-17 -23.5q-12 -11 -40 -14t-57 -3q-34 0 -73 4q-23 5 -15 23z" />
    <glyph glyph-name="ocircumflex" unicode="&#xf4;" horiz-adv-x="363" 
d="M-30 218q20 50 53 86q14 15 31.5 28.5t39 22.5t48 11.5t57.5 -3.5q29 -6 44.5 -20t21.5 -32.5t5.5 -39t-4.5 -39.5q42 8 69.5 25t38.5 27q2 1 6.5 3.5t10.5 2.5q8 0 8 -3.5t-3 -7.5q-24 -24 -60.5 -47t-78.5 -35q-2 -5 -3 -8.5t-2 -5.5q-1 -3 -2 -5q-29 -72 -63.5 -109
t-65.5 -53q-36 -18 -72 -18q-38 2 -62 20t-33.5 47t-5.5 68.5t22 84.5zM212 228q13 54 3 81.5t-31 28.5t-38 -15.5t-19 -43.5q-2 -16 7 -25.5t20 -14.5q13 -6 31 -8q13 -3 27 -3zM182 142q5 12 9.5 23t7.5 22q-25 -2 -49 3q-21 4 -35 11.5t-22.5 17t-12.5 19.5t-5 19
q-8 -15 -18.5 -37t-20 -46t-16 -49t-7.5 -45.5t6 -35.5t25 -19q9 -2 24.5 1t34.5 15t39.5 36t39.5 65zM125 502q5 5 34 8t61 3q14 0 26.5 -0.5t22.5 -2.5l19 -6q14 -7 33 -21t35.5 -28.5t28.5 -27.5t13 -17q0 -15 -14 -15q-1 0 -1.5 0.5t-2.5 0.5q-28 7 -53 15
q-21 7 -41 15.5t-29 19.5q-3 -1 -9 -1q-15 0 -35.5 5.5t-38.5 12.5q-22 8 -44 18q-10 6 -10 12q0 4 5 9z" />
    <glyph glyph-name="otilde" unicode="&#xf5;" horiz-adv-x="363" 
d="M-30 218q20 50 53 86q14 15 31.5 28.5t39 22.5t48 11.5t57.5 -3.5q29 -6 44.5 -20t21.5 -32.5t5.5 -39t-4.5 -39.5q42 8 69.5 25t38.5 27q2 1 6.5 3.5t10.5 2.5q8 0 8 -3.5t-3 -7.5q-24 -24 -60.5 -47t-78.5 -35q-2 -5 -3 -8.5t-2 -5.5q-1 -3 -2 -5q-29 -72 -63.5 -109
t-65.5 -53q-36 -18 -72 -18q-38 2 -62 20t-33.5 47t-5.5 68.5t22 84.5zM212 228q13 54 3 81.5t-31 28.5t-38 -15.5t-19 -43.5q-2 -16 7 -25.5t20 -14.5q13 -6 31 -8q13 -3 27 -3zM182 142q5 12 9.5 23t7.5 22q-25 -2 -49 3q-21 4 -35 11.5t-22.5 17t-12.5 19.5t-5 19
q-8 -15 -18.5 -37t-20 -46t-16 -49t-7.5 -45.5t6 -35.5t25 -19q9 -2 24.5 1t34.5 15t39.5 36t39.5 65zM108 486q-2 6 -2 7v6t6.5 5t22 3t45.5 1q32 0 60 -5q13 -2 37.5 -12t50.5 -34q13 -12 25.5 -17t22 -8t15 -5.5t5.5 -9.5v-6.5t-6.5 -4.5t-22 -3t-46.5 -1q-29 0 -53 3
l-8 2q-17 3 -32 9.5t-25.5 13.5t-16.5 12l-6 5q-11 9 -23 15.5t-22.5 11t-18 7.5t-8.5 5z" />
    <glyph glyph-name="odieresis" unicode="&#xf6;" horiz-adv-x="363" 
d="M-30 218q20 50 53 86q14 15 31.5 28.5t39 22.5t48 11.5t57.5 -3.5q29 -6 44.5 -20t21.5 -32.5t5.5 -39t-4.5 -39.5q42 8 69.5 25t38.5 27q2 1 6.5 3.5t10.5 2.5q8 0 8 -3.5t-3 -7.5q-24 -24 -60.5 -47t-78.5 -35q-2 -5 -3 -8.5t-2 -5.5q-1 -3 -2 -5q-29 -72 -63.5 -109
t-65.5 -53q-36 -18 -72 -18q-38 2 -62 20t-33.5 47t-5.5 68.5t22 84.5zM212 228q13 54 3 81.5t-31 28.5t-38 -15.5t-19 -43.5q-2 -16 7 -25.5t20 -14.5q13 -6 31 -8q13 -3 27 -3zM182 142q5 12 9.5 23t7.5 22q-25 -2 -49 3q-21 4 -35 11.5t-22.5 17t-12.5 19.5t-5 19
q-8 -15 -18.5 -37t-20 -46t-16 -49t-7.5 -45.5t6 -35.5t25 -19q9 -2 24.5 1t34.5 15t39.5 36t39.5 65zM220 395q-5 -6 -12 -3.5t-15 11.5q-16 21 -27 39q-10 16 -16.5 32.5t-1.5 27.5q4 12 14 19.5t21.5 8t22.5 -6t16 -23.5t6.5 -35t1 -32.5t-3.5 -25t-6 -12.5zM320 360
q-5 -6 -12 -3.5t-15 11.5q-16 21 -27 39q-10 16 -16.5 32.5t-1.5 27.5q4 12 14 19.5t21.5 8t22.5 -6t16 -23.5t6.5 -35t1 -32.5t-3.5 -25t-6 -12.5z" />
    <glyph glyph-name="ugrave" unicode="&#xf9;" horiz-adv-x="395" 
d="M186 229q10 17 19 37.5t16 37.5q8 20 15 40q0 3 2 7.5t5 8t8.5 4.5t13.5 -3q24 -12 31 -32t3.5 -44.5t-15.5 -51t-25.5 -51.5t-26.5 -47t-19 -36q-10 -23 -12.5 -35t-1.5 -18q1 -7 6 -8q20 -3 47 17.5t54.5 55.5t53 80t42.5 90q2 3 6 7t11 3q2 0 4 -2q4 -4 1 -12
q-40 -102 -77.5 -158t-70 -82.5t-57 -31.5t-37.5 -4q-38 2 -49.5 23t-6.5 53q-29 -35 -60.5 -57.5t-63.5 -18.5q-43 4 -59.5 23.5t-18.5 41.5q-4 26 7 57q15 44 39.5 90.5t43.5 86.5q7 14 10 25t4 19q1 6 7 15t22 2q23 -11 30.5 -30.5t4.5 -43t-13.5 -49t-23.5 -50
t-26 -46.5t-20 -37q-9 -18 -13 -33q-3 -13 -0.5 -25t16.5 -16q20 -3 43.5 16t46.5 49t45 66t39 67zM400 456q8 -18 -15 -23q-39 -4 -73 -4q-29 0 -57.5 3t-39.5 14q-11 9 -17 23.5t-4.5 27t10.5 21t29 5.5q19 -3 47 -11.5t53.5 -19t44.5 -21t22 -15.5z" />
    <glyph glyph-name="uacute" unicode="&#xfa;" horiz-adv-x="395" 
d="M186 229q10 17 19 37.5t16 37.5q8 20 15 40q0 3 2 7.5t5 8t8.5 4.5t13.5 -3q24 -12 31 -32t3.5 -44.5t-15.5 -51t-25.5 -51.5t-26.5 -47t-19 -36q-10 -23 -12.5 -35t-1.5 -18q1 -7 6 -8q20 -3 47 17.5t54.5 55.5t53 80t42.5 90q2 3 6 7t11 3q2 0 4 -2q4 -4 1 -12
q-40 -102 -77.5 -158t-70 -82.5t-57 -31.5t-37.5 -4q-38 2 -49.5 23t-6.5 53q-29 -35 -60.5 -57.5t-63.5 -18.5q-43 4 -59.5 23.5t-18.5 41.5q-4 26 7 57q15 44 39.5 90.5t43.5 86.5q7 14 10 25t4 19q1 6 7 15t22 2q23 -11 30.5 -30.5t4.5 -43t-13.5 -49t-23.5 -50
t-26 -46.5t-20 -37q-9 -18 -13 -33q-3 -13 -0.5 -25t16.5 -16q20 -3 43.5 16t46.5 49t45 66t39 67zM201 456q3 5 22 15.5t44.5 21t53 19t47.5 11.5q19 3 28.5 -5.5t11 -21t-4.5 -27t-17 -23.5q-12 -11 -40 -14t-57 -3q-34 0 -73 4q-23 5 -15 23z" />
    <glyph glyph-name="ucircumflex" unicode="&#xfb;" horiz-adv-x="395" 
d="M186 229q10 17 19 37.5t16 37.5q8 20 15 40q0 3 2 7.5t5 8t8.5 4.5t13.5 -3q24 -12 31 -32t3.5 -44.5t-15.5 -51t-25.5 -51.5t-26.5 -47t-19 -36q-10 -23 -12.5 -35t-1.5 -18q1 -7 6 -8q20 -3 47 17.5t54.5 55.5t53 80t42.5 90q2 3 6 7t11 3q2 0 4 -2q4 -4 1 -12
q-40 -102 -77.5 -158t-70 -82.5t-57 -31.5t-37.5 -4q-38 2 -49.5 23t-6.5 53q-29 -35 -60.5 -57.5t-63.5 -18.5q-43 4 -59.5 23.5t-18.5 41.5q-4 26 7 57q15 44 39.5 90.5t43.5 86.5q7 14 10 25t4 19q1 6 7 15t22 2q23 -11 30.5 -30.5t4.5 -43t-13.5 -49t-23.5 -50
t-26 -46.5t-20 -37q-9 -18 -13 -33q-3 -13 -0.5 -25t16.5 -16q20 -3 43.5 16t46.5 49t45 66t39 67zM129 502q5 5 34 8t61 3q14 0 26.5 -0.5t22.5 -2.5l19 -6q14 -7 33 -21t35.5 -28.5t28.5 -27.5t13 -17q0 -15 -14 -15q-1 0 -1.5 0.5t-2.5 0.5q-28 7 -53 15q-21 7 -41 15.5
t-29 19.5q-3 -1 -9 -1q-15 0 -35.5 5.5t-38.5 12.5q-22 8 -44 18q-10 6 -10 12q0 4 5 9z" />
    <glyph glyph-name="udieresis" unicode="&#xfc;" horiz-adv-x="395" 
d="M186 229q10 17 19 37.5t16 37.5q8 20 15 40q0 3 2 7.5t5 8t8.5 4.5t13.5 -3q24 -12 31 -32t3.5 -44.5t-15.5 -51t-25.5 -51.5t-26.5 -47t-19 -36q-10 -23 -12.5 -35t-1.5 -18q1 -7 6 -8q20 -3 47 17.5t54.5 55.5t53 80t42.5 90q2 3 6 7t11 3q2 0 4 -2q4 -4 1 -12
q-40 -102 -77.5 -158t-70 -82.5t-57 -31.5t-37.5 -4q-38 2 -49.5 23t-6.5 53q-29 -35 -60.5 -57.5t-63.5 -18.5q-43 4 -59.5 23.5t-18.5 41.5q-4 26 7 57q15 44 39.5 90.5t43.5 86.5q7 14 10 25t4 19q1 6 7 15t22 2q23 -11 30.5 -30.5t4.5 -43t-13.5 -49t-23.5 -50
t-26 -46.5t-20 -37q-9 -18 -13 -33q-3 -13 -0.5 -25t16.5 -16q20 -3 43.5 16t46.5 49t45 66t39 67zM239 395q-5 -6 -12 -3.5t-15 11.5q-16 21 -27 39q-10 16 -16.5 32.5t-1.5 27.5q4 12 14 19.5t21.5 8t22.5 -6t16 -23.5t6.5 -35t1 -32.5t-3.5 -25t-6 -12.5zM339 360
q-5 -6 -12 -3.5t-15 11.5q-16 21 -27 39q-10 16 -16.5 32.5t-1.5 27.5q4 12 14 19.5t21.5 8t22.5 -6t16 -23.5t6.5 -35t1 -32.5t-3.5 -25t-6 -12.5z" />
    <glyph glyph-name="yacute" unicode="&#xfd;" horiz-adv-x="394" 
d="M244 156q-19 -31 -30 -57q-5 -11 -9 -21.5t-5.5 -19t-0.5 -14t6 -6.5q20 -3 46.5 17.5t54.5 55.5t53 80t42 90q2 3 6 7t12 3q2 0 4 -2q4 -4 1 -12q-40 -102 -78 -158t-70.5 -82.5t-56.5 -31.5t-37 -4q-4 0 -7.5 0.5t-6.5 0.5q-6 -13 -13.5 -26.5t-15.5 -27.5q18 0 40.5 1
t44 3t38.5 5.5t25 8.5q12 8 12.5 17t-2.5 16q-1 2 -1 4q0 4 8 3q7 -1 15.5 -3.5t16 -9t11 -17.5t-0.5 -29t-19 -28t-36 -14.5t-46.5 -5t-49.5 1t-45.5 3.5t-34.5 2q-29 -47 -66 -92.5t-79 -77t-89 -43t-97 10.5q-31 13 -51 35q-17 19 -27.5 49t3.5 74q12 39 37 68
q21 25 56.5 44t89.5 15q16 -2 31 -6q13 -5 26 -13t21 -24q23 4 44.5 5t40.5 0q16 29 30 56.5t25 51.5q-17 -19 -36 -33q-17 -12 -38.5 -20t-47.5 -2q-36 8 -49.5 27.5t-15.5 39.5t2.5 36l4.5 16q16 44 40.5 90.5t43.5 86.5q7 14 10 25t4 19q1 6 7 15t22 2q23 -11 30.5 -30.5
t4.5 -43t-13.5 -49t-24 -50t-26.5 -46.5t-20 -37q-9 -18 -13 -33q-3 -13 -0.5 -25t17.5 -16q20 -3 43 16t46.5 49t45 66t39.5 67q24 44 37 79q7 18 12 36q1 6 7 15t22 2q27 -14 33 -37.5t-1 -52t-22 -58.5t-30 -57zM-171 -275q25 -4 51 10t52 39.5t50.5 60.5t47.5 73
q-12 0 -25 -1t-26 -3v-8t-1 -9q-7 -32 -20 -53q-11 -18 -31 -28t-52 6q-13 8 -19 19q-6 10 -6.5 25t10.5 35t33.5 32t50.5 19q-11 11 -32 15q-21 3 -43 -5t-41.5 -26t-34 -44.5t-21.5 -60.5q-5 -25 -1 -44q3 -17 16 -32t42 -20zM-46 -100q-20 -5 -35 -13.5t-23 -22.5
q-3 -5 -4 -9q-2 -10 5 -14q10 -6 26.5 2.5t24.5 33.5q4 10 6 23zM189 456q3 5 22 15.5t44.5 21t53 19t47.5 11.5q19 3 28.5 -5.5t11 -21t-4.5 -27t-17 -23.5q-12 -11 -40 -14t-57 -3q-34 0 -73 4q-23 5 -15 23z" />
    <glyph glyph-name="ydieresis" unicode="&#xff;" horiz-adv-x="394" 
d="M244 156q-19 -31 -30 -57q-5 -11 -9 -21.5t-5.5 -19t-0.5 -14t6 -6.5q20 -3 46.5 17.5t54.5 55.5t53 80t42 90q2 3 6 7t12 3q2 0 4 -2q4 -4 1 -12q-40 -102 -78 -158t-70.5 -82.5t-56.5 -31.5t-37 -4q-4 0 -7.5 0.5t-6.5 0.5q-6 -13 -13.5 -26.5t-15.5 -27.5q18 0 40.5 1
t44 3t38.5 5.5t25 8.5q12 8 12.5 17t-2.5 16q-1 2 -1 4q0 4 8 3q7 -1 15.5 -3.5t16 -9t11 -17.5t-0.5 -29t-19 -28t-36 -14.5t-46.5 -5t-49.5 1t-45.5 3.5t-34.5 2q-29 -47 -66 -92.5t-79 -77t-89 -43t-97 10.5q-31 13 -51 35q-17 19 -27.5 49t3.5 74q12 39 37 68
q21 25 56.5 44t89.5 15q16 -2 31 -6q13 -5 26 -13t21 -24q23 4 44.5 5t40.5 0q16 29 30 56.5t25 51.5q-17 -19 -36 -33q-17 -12 -38.5 -20t-47.5 -2q-36 8 -49.5 27.5t-15.5 39.5t2.5 36l4.5 16q16 44 40.5 90.5t43.5 86.5q7 14 10 25t4 19q1 6 7 15t22 2q23 -11 30.5 -30.5
t4.5 -43t-13.5 -49t-24 -50t-26.5 -46.5t-20 -37q-9 -18 -13 -33q-3 -13 -0.5 -25t17.5 -16q20 -3 43 16t46.5 49t45 66t39.5 67q24 44 37 79q7 18 12 36q1 6 7 15t22 2q27 -14 33 -37.5t-1 -52t-22 -58.5t-30 -57zM-171 -275q25 -4 51 10t52 39.5t50.5 60.5t47.5 73
q-12 0 -25 -1t-26 -3v-8t-1 -9q-7 -32 -20 -53q-11 -18 -31 -28t-52 6q-13 8 -19 19q-6 10 -6.5 25t10.5 35t33.5 32t50.5 19q-11 11 -32 15q-21 3 -43 -5t-41.5 -26t-34 -44.5t-21.5 -60.5q-5 -25 -1 -44q3 -17 16 -32t42 -20zM-46 -100q-20 -5 -35 -13.5t-23 -22.5
q-3 -5 -4 -9q-2 -10 5 -14q10 -6 26.5 2.5t24.5 33.5q4 10 6 23zM249 395q-5 -6 -12 -3.5t-15 11.5q-16 21 -27 39q-10 16 -16.5 32.5t-1.5 27.5q4 12 14 19.5t21.5 8t22.5 -6t16 -23.5t6.5 -35t1 -32.5t-3.5 -25t-6 -12.5zM349 360q-5 -6 -12 -3.5t-15 11.5q-16 21 -27 39
q-10 16 -16.5 32.5t-1.5 27.5q4 12 14 19.5t21.5 8t22.5 -6t16 -23.5t6.5 -35t1 -32.5t-3.5 -25t-6 -12.5z" />
    <glyph glyph-name="circumflex" unicode="&#x2c6;" horiz-adv-x="385" 
d="M47 502q5 5 34 8t61 3q14 0 26.5 -0.5t22.5 -2.5l19 -6q14 -7 33 -21t35.5 -28.5t28.5 -27.5t13 -17q0 -15 -14 -15q-1 0 -1.5 0.5t-2.5 0.5q-28 7 -53 15q-21 7 -41 15.5t-29 19.5q-3 -1 -9 -1q-15 0 -35.5 5.5t-38.5 12.5q-22 8 -44 18q-10 6 -10 12q0 4 5 9z" />
    <glyph glyph-name="ring" unicode="&#x2da;" horiz-adv-x="136" 
d="M90 379q-5 -6 -12 -3.5t-15 11.5q-14 17 -25 33q-9 14 -15 29t-1 26q4 12 14 19.5t21.5 8t22.5 -6t16 -23.5t6 -33t-0.5 -29t-5 -21.5t-6.5 -10.5zM76 413q4 0 8 11.5t1 25.5q-2 7 -7.5 10.5t-12 5t-13 0.5t-9.5 -4q-3 -4 -1 -11t6 -14q4 -9 12 -18q9 -10 16 -6z" />
    <glyph glyph-name="tilde" unicode="&#x2dc;" horiz-adv-x="413" 
d="M63 486q-2 6 -2 7v6t6.5 5t22 3t45.5 1q32 0 60 -5q13 -2 37.5 -12t50.5 -34q13 -12 25.5 -17t22 -8t15 -5.5t5.5 -9.5v-6.5t-6.5 -4.5t-22 -3t-46.5 -1q-29 0 -53 3l-8 2q-17 3 -32 9.5t-25.5 13.5t-16.5 12l-6 5q-11 9 -23 15.5t-22.5 11t-18 7.5t-8.5 5z" />
    <glyph glyph-name="Euro" unicode="&#x20ac;" horiz-adv-x="680" 
d="M755 664q31 -14 44 -38q6 -10 8 -23.5t-2 -30t-15.5 -36.5t-32.5 -44q-10 -9 -21 -18q-9 -8 -20.5 -16t-23.5 -14q-45 -24 -71 -24.5t-39.5 10t-17.5 27t-4 27.5q0 2 1 4q2 3 8 1q10 -5 30 -6.5t52 11.5q25 10 48 24.5t38.5 31.5t20 34t-7.5 31q-4 4 -11 7q-6 2 -15.5 3
t-24.5 -2q-9 -2 -43.5 -12t-83.5 -37t-108 -74t-117 -122h60q6 0 10.5 -4.5t4.5 -10.5q0 -7 -4.5 -11t-10.5 -4h-83q-5 -8 -10.5 -16t-10.5 -16h65q6 0 10.5 -4t4.5 -11q0 -6 -4.5 -10.5t-10.5 -4.5h-83q-1 0 -1 -1q-40 -67 -58 -116.5t-20.5 -84.5t6.5 -57t23.5 -35
t31 -18.5t28.5 -7.5q29 -3 59 5q26 6 55 23.5t55 54.5q3 5 6 7q2 2 4 1t4 -9q1 -8 1 -18t-3 -22t-10 -25.5t-20.5 -27t-33.5 -25t-50 -18.5l-1 -1q-41 -8 -82 -4.5t-74 21t-55.5 48t-28.5 75t8.5 103t55.5 132.5h-60q-6 0 -10.5 4.5t-4.5 10.5q0 7 4.5 11t10.5 4h78
q3 7 8 13q3 5 6 9.5t6 9.5h-59q-15 0 -15 15q0 6 4 10.5t11 4.5h79q77 106 157 164.5t148 86.5q38 17 76 28q32 9 67.5 13t63.5 -6z" />
    <glyph glyph-name="minus" unicode="&#x2212;" horiz-adv-x="384" 
d="M348 332q2 -2 2 -5v-4q0 -11 -2.5 -23.5t-8 -25t-15.5 -22.5t-26 -15q-20 -6 -46 -7t-53 1t-54.5 4t-50.5 1t-40.5 -6t-25.5 -18q-1 -1 -1 -2t-1 -1t-1 1q-1 0 -1 4q0 2 1 3q1 13 5.5 26.5t13.5 24.5t23 18t34 9q23 1 60.5 -4.5t75 -7.5t68 6.5t40.5 38.5q0 1 1 2
q0 2 2 2z" />
    </font>
</defs>
</svg>
